  0
SECTION
  2
HEADER
  9
$ACADVER
  1
AC1032
  9
$ACADMAINTVER
 90
      125
  9
$DWGCODEPAGE
  3
ANSI_1252
  9
$LASTSAVEDBY
  1
maudmireillebausier
  9
$REQUIREDVERSIONS
160
                 0
  9
$INSBASE
 10
0.0
 20
0.0
 30
0.0
  9
$EXTMIN
 10
-331.1815121236016
 20
-1538.018046011518
 30
-0.0000000000000011
  9
$EXTMAX
 10
399.7326259657484
 20
-383.5228936800092
 30
0.0000000000000011
  9
$LIMMIN
 10
0.0
 20
0.0
  9
$LIMMAX
 10
12.0
 20
9.0
  9
$ORTHOMODE
 70
     0
  9
$REGENMODE
 70
     1
  9
$FILLMODE
 70
     1
  9
$QTEXTMODE
 70
     0
  9
$MIRRTEXT
 70
     0
  9
$LTSCALE
 40
1.0
  9
$ATTMODE
 70
     1
  9
$TEXTSIZE
 40
0.2
  9
$TRACEWID
 40
0.05
  9
$TEXTSTYLE
  7
STANDARD
  9
$CLAYER
  8
0
  9
$CELTYPE
  6
Continuous
  9
$CECOLOR
 62
   256
  9
$CELTSCALE
 40
1.0
  9
$DISPSILH
 70
     0
  9
$DIMSCALE
 40
1.0
  9
$DIMASZ
 40
0.18
  9
$DIMEXO
 40
0.0625
  9
$DIMDLI
 40
0.38
  9
$DIMRND
 40
0.0
  9
$DIMDLE
 40
0.0
  9
$DIMEXE
 40
0.18
  9
$DIMTP
 40
0.0
  9
$DIMTM
 40
0.0
  9
$DIMTXT
 40
0.18
  9
$DIMCEN
 40
0.09
  9
$DIMTSZ
 40
0.0
  9
$DIMTOL
 70
     0
  9
$DIMLIM
 70
     0
  9
$DIMTIH
 70
     1
  9
$DIMTOH
 70
     1
  9
$DIMSE1
 70
     0
  9
$DIMSE2
 70
     0
  9
$DIMTAD
 70
     0
  9
$DIMZIN
 70
     0
  9
$DIMBLK
  1

  9
$DIMASO
 70
     1
  9
$DIMSHO
 70
     1
  9
$DIMPOST
  1

  9
$DIMAPOST
  1

  9
$DIMALT
 70
     0
  9
$DIMALTD
 70
     2
  9
$DIMALTF
 40
25.4
  9
$DIMLFAC
 40
1.0
  9
$DIMTOFL
 70
     0
  9
$DIMTVP
 40
0.0
  9
$DIMTIX
 70
     0
  9
$DIMSOXD
 70
     0
  9
$DIMSAH
 70
     0
  9
$DIMBLK1
  1

  9
$DIMBLK2
  1

  9
$DIMSTYLE
  2
Standard
  9
$DIMCLRD
 70
     0
  9
$DIMCLRE
 70
     0
  9
$DIMCLRT
 70
     0
  9
$DIMTFAC
 40
1.0
  9
$DIMGAP
 40
0.09
  9
$DIMJUST
 70
     0
  9
$DIMSD1
 70
     0
  9
$DIMSD2
 70
     0
  9
$DIMTOLJ
 70
     1
  9
$DIMTZIN
 70
     0
  9
$DIMALTZ
 70
     0
  9
$DIMALTTZ
 70
     0
  9
$DIMUPT
 70
     0
  9
$DIMDEC
 70
     4
  9
$DIMTDEC
 70
     4
  9
$DIMALTU
 70
     2
  9
$DIMALTTD
 70
     2
  9
$DIMTXSTY
  7
STANDARD
  9
$DIMAUNIT
 70
     0
  9
$DIMADEC
 70
     0
  9
$DIMALTRND
 40
0.0
  9
$DIMAZIN
 70
     0
  9
$DIMDSEP
 70
    46
  9
$DIMATFIT
 70
     3
  9
$DIMFRAC
 70
     0
  9
$DIMLDRBLK
  1

  9
$DIMLUNIT
 70
     2
  9
$DIMLWD
 70
    -2
  9
$DIMLWE
 70
    -2
  9
$DIMTMOVE
 70
     0
  9
$DIMFXL
 40
1.0
  9
$DIMFXLON
 70
     0
  9
$DIMJOGANG
 40
0.7853981633974483
  9
$DIMTFILL
 70
     0
  9
$DIMTFILLCLR
 70
     0
  9
$DIMARCSYM
 70
     0
  9
$DIMLTYPE
  6

  9
$DIMLTEX1
  6

  9
$DIMLTEX2
  6

  9
$DIMTXTDIRECTION
 70
     0
  9
$LUNITS
 70
     2
  9
$LUPREC
 70
     4
  9
$SKETCHINC
 40
0.1
  9
$FILLETRAD
 40
0.0
  9
$AUNITS
 70
     0
  9
$AUPREC
 70
     0
  9
$MENU
  1
.
  9
$ELEVATION
 40
0.0
  9
$PELEVATION
 40
0.0
  9
$THICKNESS
 40
0.0
  9
$LIMCHECK
 70
     0
  9
$CHAMFERA
 40
0.0
  9
$CHAMFERB
 40
0.0
  9
$CHAMFERC
 40
0.0
  9
$CHAMFERD
 40
0.0
  9
$SKPOLY
 70
     0
  9
$TDCREATE
 40
2459773.748923611
  9
$TDUCREATE
 40
2459773.665590278
  9
$TDUPDATE
 40
2459793.701851852
  9
$TDUUPDATE
 40
2459793.618518519
  9
$TDINDWG
 40
1.7872569444
  9
$TDUSRTIMER
 40
1.7872569444
  9
$USRTIMER
 70
     1
  9
$ANGBASE
 50
0.0
  9
$ANGDIR
 70
     0
  9
$PDMODE
 70
     0
  9
$PDSIZE
 40
0.0
  9
$PLINEWID
 40
0.0
  9
$SPLFRAME
 70
     0
  9
$SPLINETYPE
 70
     6
  9
$SPLINESEGS
 70
     8
  9
$HANDSEED
  5
10436
  9
$SURFTAB1
 70
     6
  9
$SURFTAB2
 70
     6
  9
$SURFTYPE
 70
     6
  9
$SURFU
 70
     6
  9
$SURFV
 70
     6
  9
$UCSBASE
  2

  9
$UCSNAME
  2

  9
$UCSORG
 10
-199.0000152582503
 20
-1509.459970179451
 30
0.0
  9
$UCSXDIR
 10
1.0
 20
0.0
 30
0.0
  9
$UCSYDIR
 10
0.0
 20
1.0
 30
0.0
  9
$UCSORTHOREF
  2

  9
$UCSORTHOVIEW
 70
     0
  9
$UCSORGTOP
 10
0.0
 20
0.0
 30
0.0
  9
$UCSORGBOTTOM
 10
0.0
 20
0.0
 30
0.0
  9
$UCSORGLEFT
 10
0.0
 20
0.0
 30
0.0
  9
$UCSORGRIGHT
 10
0.0
 20
0.0
 30
0.0
  9
$UCSORGFRONT
 10
0.0
 20
0.0
 30
0.0
  9
$UCSORGBACK
 10
0.0
 20
0.0
 30
0.0
  9
$PUCSBASE
  2

  9
$PUCSNAME
  2

  9
$PUCSORG
 10
0.0
 20
0.0
 30
0.0
  9
$PUCSXDIR
 10
1.0
 20
0.0
 30
0.0
  9
$PUCSYDIR
 10
0.0
 20
1.0
 30
0.0
  9
$PUCSORTHOREF
  2

  9
$PUCSORTHOVIEW
 70
     0
  9
$PUCSORGTOP
 10
0.0
 20
0.0
 30
0.0
  9
$PUCSORGBOTTOM
 10
0.0
 20
0.0
 30
0.0
  9
$PUCSORGLEFT
 10
0.0
 20
0.0
 30
0.0
  9
$PUCSORGRIGHT
 10
0.0
 20
0.0
 30
0.0
  9
$PUCSORGFRONT
 10
0.0
 20
0.0
 30
0.0
  9
$PUCSORGBACK
 10
0.0
 20
0.0
 30
0.0
  9
$USERI1
 70
     0
  9
$USERI2
 70
     0
  9
$USERI3
 70
     0
  9
$USERI4
 70
     0
  9
$USERI5
 70
     0
  9
$USERR1
 40
0.0
  9
$USERR2
 40
0.0
  9
$USERR3
 40
0.0
  9
$USERR4
 40
0.0
  9
$USERR5
 40
0.0
  9
$WORLDVIEW
 70
     1
  9
$SHADEDGE
 70
     3
  9
$SHADEDIF
 70
    70
  9
$TILEMODE
 70
     1
  9
$MAXACTVP
 70
    64
  9
$PINSBASE
 10
0.0
 20
0.0
 30
0.0
  9
$PLIMCHECK
 70
     0
  9
$PEXTMIN
 10
-0.0430452629098532
 20
-0.0751647761157237
 30
-0.0015258207003583
  9
$PEXTMAX
 10
10.45660355499354
 20
7.995399265248181
 30
0.0000000349246037
  9
$PLIMMIN
 10
-0.1378687909337618
 20
-0.2151859806228741
  9
$PLIMMAX
 10
5.766758631370509
 20
8.135645088992827
  9
$UNITMODE
 70
     0
  9
$VISRETAIN
 70
     1
  9
$PLINEGEN
 70
     0
  9
$PSLTSCALE
 70
     1
  9
$TREEDEPTH
 70
  3020
  9
$CMLSTYLE
  2
Standard
  9
$CMLJUST
 70
     0
  9
$CMLSCALE
 40
1.0
  9
$PROXYGRAPHICS
 70
     1
  9
$MEASUREMENT
 70
     0
  9
$CELWEIGHT
370
    -1
  9
$ENDCAPS
280
     0
  9
$JOINSTYLE
280
     0
  9
$LWDISPLAY
290
     0
  9
$INSUNITS
 70
     4
  9
$HYPERLINKBASE
  1

  9
$STYLESHEET
  1

  9
$XEDIT
290
     1
  9
$CEPSNTYPE
380
     0
  9
$PSTYLEMODE
290
     1
  9
$FINGERPRINTGUID
  2
{AF85AC24-2F79-D444-A5B3-37CB86864283}
  9
$VERSIONGUID
  2
{B1C0A3AD-0B35-284B-A3DA-F04394BE6F2A}
  9
$EXTNAMES
290
     1
  9
$PSVPSCALE
 40
0.0
  9
$OLESTARTUP
290
     0
  9
$SORTENTS
280
   127
  9
$INDEXCTL
280
     0
  9
$HIDETEXT
280
     0
  9
$XCLIPFRAME
280
     2
  9
$HALOGAP
280
     0
  9
$OBSCOLOR
 70
   257
  9
$OBSLTYPE
280
     0
  9
$INTERSECTIONDISPLAY
280
     0
  9
$INTERSECTIONCOLOR
 70
   257
  9
$DIMASSOC
280
     1
  9
$PROJECTNAME
  1

  9
$CAMERADISPLAY
290
     0
  9
$LENSLENGTH
 40
50.0
  9
$CAMERAHEIGHT
 40
0.0
  9
$STEPSPERSEC
 40
2.0
  9
$STEPSIZE
 40
6.0
  9
$3DDWFPREC
 40
2.0
  9
$PSOLWIDTH
 40
0.25
  9
$PSOLHEIGHT
 40
4.0
  9
$LOFTANG1
 40
1.570796326794896
  9
$LOFTANG2
 40
1.570796326794896
  9
$LOFTMAG1
 40
0.0
  9
$LOFTMAG2
 40
0.0
  9
$LOFTPARAM
 70
     7
  9
$LOFTNORMALS
280
     1
  9
$LATITUDE
 40
37.795
  9
$LONGITUDE
 40
-122.394
  9
$NORTHDIRECTION
 40
0.0
  9
$TIMEZONE
 70
 -8000
  9
$LIGHTGLYPHDISPLAY
280
     1
  9
$TILEMODELIGHTSYNCH
280
     1
  9
$CMATERIAL
347
10005
  9
$SOLIDHIST
280
     0
  9
$SHOWHIST
280
     1
  9
$DWFFRAME
280
     2
  9
$DGNFRAME
280
     0
  9
$REALWORLDSCALE
290
     1
  9
$INTERFERECOLOR
 62
     1
  9
$INTERFEREOBJVS
345
10027
  9
$INTERFEREVPVS
346
10024
  9
$CSHADOW
280
     0
  9
$SHADOWPLANELOCATION
 40
0.0
  0
ENDSEC
  0
SECTION
  2
CLASSES
  0
CLASS
  1
ACDBDICTIONARYWDFLT
  2
AcDbDictionaryWithDefault
  3
ObjectDBX Classes
 90
        0
 91
        1
280
     0
281
     0
  0
CLASS
  1
MATERIAL
  2
AcDbMaterial
  3
ObjectDBX Classes
 90
     1153
 91
        3
280
     0
281
     0
  0
CLASS
  1
VISUALSTYLE
  2
AcDbVisualStyle
  3
ObjectDBX Classes
 90
     4095
 91
       24
280
     0
281
     0
  0
CLASS
  1
TABLESTYLE
  2
AcDbTableStyle
  3
ObjectDBX Classes
 90
     4095
 91
        1
280
     0
281
     0
  0
CLASS
  1
SCALE
  2
AcDbScale
  3
ObjectDBX Classes
 90
     1153
 91
       17
280
     0
281
     0
  0
CLASS
  1
MLEADERSTYLE
  2
AcDbMLeaderStyle
  3
ACDB_MLEADERSTYLE_CLASS
 90
     4095
 91
        1
280
     0
281
     0
  0
CLASS
  1
ACDBSECTIONVIEWSTYLE
  2
AcDbSectionViewStyle
  3
ObjectDBX Classes
 90
     1025
 91
        1
280
     0
281
     0
  0
CLASS
  1
ACDBDETAILVIEWSTYLE
  2
AcDbDetailViewStyle
  3
ObjectDBX Classes
 90
     1025
 91
        1
280
     0
281
     0
  0
CLASS
  1
SORTENTSTABLE
  2
AcDbSortentsTable
  3
ObjectDBX Classes
 90
        0
 91
        0
280
     0
281
     0
  0
CLASS
  1
DICTIONARYVAR
  2
AcDbDictionaryVar
  3
ObjectDBX Classes
 90
        0
 91
        9
280
     0
281
     0
  0
CLASS
  1
CELLSTYLEMAP
  2
AcDbCellStyleMap
  3
ObjectDBX Classes
 90
     1152
 91
        2
280
     0
281
     0
  0
CLASS
  1
MULTILEADER
  2
AcDbMLeader
  3
ACDB_MLEADER_CLASS
 90
     1025
 91
       13
280
     0
281
     1
  0
CLASS
  1
RASTERVARIABLES
  2
AcDbRasterVariables
  3
ISM
 90
        0
 91
        1
280
     0
281
     0
  0
ENDSEC
  0
SECTION
  2
TABLES
  0
TABLE
  2
VPORT
  5
8
330
0
100
AcDbSymbolTable
 70
     1
  0
VPORT
  5
10059
330
8
100
AcDbSymbolTableRecord
100
AcDbViewportTableRecord
  2
*Active
 70
     0
 10
0.0
 20
0.0
 11
1.0
 21
1.0
 12
38.0638645276108
 22
-682.4546557344538
 13
0.0
 23
0.0
 14
1.0
 24
1.0
 15
0.0
 25
0.0
 16
0.0
 26
0.0
 36
1.0
 17
0.0
 27
0.0
 37
0.0
 40
676.5247010005896
 41
1.093195266272189
 42
50.0
 43
0.0
 44
0.0
 50
0.0
 51
0.0
 71
     0
 72
  1000
 73
     1
 74
     3
 75
     0
 76
     0
 77
     0
 78
     0
281
     0
 65
     1
110
0.0
120
0.0
130
0.0
111
1.0
121
0.0
131
0.0
112
0.0
122
1.0
132
0.0
 79
     0
146
0.0
348
10023
 60
     2
 61
     5
292
     1
282
     1
141
0.0
142
0.0
 63
   250
421
  3355443
1001
ACAD_NAV_VCDISPLAY
1070
     1
  0
ENDTAB
  0
TABLE
  2
LTYPE
  5
5
330
0
100
AcDbSymbolTable
 70
     2
  0
LTYPE
  5
14
330
5
100
AcDbSymbolTableRecord
100
AcDbLinetypeTableRecord
  2
BYBLOCK
 70
     0
  3

 72
    65
 73
     0
 40
0.0
  0
LTYPE
  5
15
330
5
100
AcDbSymbolTableRecord
100
AcDbLinetypeTableRecord
  2
BYLAYER
 70
     0
  3

 72
    65
 73
     0
 40
0.0
  0
LTYPE
  5
10001
330
5
100
AcDbSymbolTableRecord
100
AcDbLinetypeTableRecord
  2
Continuous
 70
     0
  3
Solid line
 72
    65
 73
     0
 40
0.0
  0
ENDTAB
  0
TABLE
  2
LAYER
  5
2
102
{ACAD_XDICTIONARY
360
1006D
102
}
330
0
100
AcDbSymbolTable
 70
     6
  0
LAYER
  5
50
102
{ACAD_XDICTIONARY
360
101F1
102
}
330
2
100
AcDbSymbolTableRecord
100
AcDbLayerTableRecord
  2
0
 70
     0
 62
     7
  6
Continuous
370
    -3
390
10003
347
10015
348
0
  0
LAYER
  5
10062
102
{ACAD_XDICTIONARY
360
10063
102
}
330
2
100
AcDbSymbolTableRecord
100
AcDbLayerTableRecord
  2
5-outcut
 70
     0
 62
     1
  6
Continuous
370
    -3
390
10003
347
10015
348
0
1001
AcAecLayerStandard
1000

1000

1001
AcCmTransparency
1071
        0
  0
LAYER
  5
10064
102
{ACAD_XDICTIONARY
360
10065
102
}
330
2
100
AcDbSymbolTableRecord
100
AcDbLayerTableRecord
  2
4-pocket 8mm
 70
     0
 62
     6
  6
Continuous
370
    -3
390
10003
347
10015
348
0
1001
AcAecLayerStandard
1000

1000

1001
AcCmTransparency
1071
        0
  0
LAYER
  5
10066
102
{ACAD_XDICTIONARY
360
10067
102
}
330
2
100
AcDbSymbolTableRecord
100
AcDbLayerTableRecord
  2
2-pocket 4mm
 70
     0
 62
     2
  6
Continuous
370
    -3
390
10003
347
10015
348
0
1001
AcAecLayerStandard
1000

1000

1001
AcCmTransparency
1071
        0
  0
LAYER
  5
10068
102
{ACAD_XDICTIONARY
360
10069
102
}
330
2
100
AcDbSymbolTableRecord
100
AcDbLayerTableRecord
  2
3-pocket 6mm
 70
     0
 62
     5
  6
Continuous
370
    -3
390
10003
347
10015
348
0
1001
AcAecLayerStandard
1000

1000

1001
AcCmTransparency
1071
        0
  0
LAYER
  5
10257
330
2
100
AcDbSymbolTableRecord
100
AcDbLayerTableRecord
  2
1-screw
 70
     0
 62
     7
  6
Continuous
370
    -3
390
10003
347
10015
348
0
1001
AcAecLayerStandard
1000

1000

1001
AcCmTransparency
1071
        0
  0
ENDTAB
  0
TABLE
  2
STYLE
  5
3
330
0
100
AcDbSymbolTable
 70
     1
  0
STYLE
  5
11
330
3
100
AcDbSymbolTableRecord
100
AcDbTextStyleTableRecord
  2
STANDARD
 70
     0
 40
0.0
 41
1.0
 50
0.0
 71
     0
 42
0.2
  3

  4

  0
ENDTAB
  0
TABLE
  2
VIEW
  5
6
330
0
100
AcDbSymbolTable
 70
     1
  0
ENDTAB
  0
TABLE
  2
UCS
  5
7
330
0
100
AcDbSymbolTable
 70
     0
  0
ENDTAB
  0
TABLE
  2
APPID
  5
9
330
0
100
AcDbSymbolTable
 70
     9
  0
APPID
  5
12
330
9
100
AcDbSymbolTableRecord
100
AcDbRegAppTableRecord
  2
ACAD
 70
     0
  0
APPID
  5
10058
330
9
100
AcDbSymbolTableRecord
100
AcDbRegAppTableRecord
  2
ACAD_NAV_VCDISPLAY
 70
     0
  0
APPID
  5
1005B
330
9
100
AcDbSymbolTableRecord
100
AcDbRegAppTableRecord
  2
ACAD_EXEMPT_FROM_CAD_STANDARDS
 70
     0
  0
APPID
  5
1006A
330
9
100
AcDbSymbolTableRecord
100
AcDbRegAppTableRecord
  2
AcAecLayerStandard
 70
     0
  0
APPID
  5
1006B
330
9
100
AcDbSymbolTableRecord
100
AcDbRegAppTableRecord
  2
AcCmTransparency
 70
     0
  0
APPID
  5
1006C
330
9
100
AcDbSymbolTableRecord
100
AcDbRegAppTableRecord
  2
ACAD_PSEXT
 70
     0
  0
APPID
  5
10262
330
9
100
AcDbSymbolTableRecord
100
AcDbRegAppTableRecord
  2
AcadAnnotative
 70
     0
  0
APPID
  5
10263
330
9
100
AcDbSymbolTableRecord
100
AcDbRegAppTableRecord
  2
ACAD_DSTYLE_DIMJAG
 70
     0
  0
APPID
  5
10264
330
9
100
AcDbSymbolTableRecord
100
AcDbRegAppTableRecord
  2
ACAD_DSTYLE_DIMTALN
 70
     0
  0
ENDTAB
  0
TABLE
  2
DIMSTYLE
  5
A
330
0
100
AcDbSymbolTable
 70
     3
100
AcDbDimStyleTable
 71
     1
340
10053
  0
DIMSTYLE
105
10053
330
A
100
AcDbSymbolTableRecord
100
AcDbDimStyleTableRecord
  2
Standard
 70
     0
340
11
  0
DIMSTYLE
105
10261
330
A
100
AcDbSymbolTableRecord
100
AcDbDimStyleTableRecord
  2
Annotatif
 70
     0
 40
0.0
340
11
1001
AcadAnnotative
1000
AnnotativeData
1002
{
1070
     1
1070
     1
1002
}
1001
ACAD_DSTYLE_DIMJAG
1070
   388
1040
1.5
1001
ACAD_DSTYLE_DIMTALN
1070
   392
1070
     0
  0
ENDTAB
  0
TABLE
  2
BLOCK_RECORD
  5
1
330
0
100
AcDbSymbolTable
 70
     2
  0
BLOCK_RECORD
  5
1F
330
1
100
AcDbSymbolTableRecord
100
AcDbBlockTableRecord
  2
*MODEL_SPACE
340
10055
 70
     0
280
     1
281
     0
  0
BLOCK_RECORD
  5
1B
330
1
100
AcDbSymbolTableRecord
100
AcDbBlockTableRecord
  2
*PAPER_SPACE
340
10056
 70
     0
280
     1
281
     0
  0
BLOCK_RECORD
  5
1025B
330
1
100
AcDbSymbolTableRecord
100
AcDbBlockTableRecord
  2
_Dot
340
0
 70
     0
280
     1
281
     0
  0
ENDTAB
  0
ENDSEC
  0
SECTION
  2
BLOCKS
  0
BLOCK
  5
20
330
1F
100
AcDbEntity
  8
0
100
AcDbBlockBegin
  2
*MODEL_SPACE
 70
     0
 10
0.0
 20
0.0
 30
0.0
  3
*MODEL_SPACE
  1

  0
ENDBLK
  5
21
330
1F
100
AcDbEntity
  8
0
100
AcDbBlockEnd
  0
BLOCK
  5
1C
330
1B
100
AcDbEntity
 67
     1
  8
0
100
AcDbBlockBegin
  2
*PAPER_SPACE
 70
     0
 10
0.0
 20
0.0
 30
0.0
  3
*PAPER_SPACE
  1

  0
ENDBLK
  5
1D
330
1B
100
AcDbEntity
 67
     1
  8
0
100
AcDbBlockEnd
  0
BLOCK
  5
1025C
330
1025B
100
AcDbEntity
  8
0
100
AcDbBlockBegin
  2
_Dot
 70
     0
 10
0.0
 20
0.0
 30
0.0
  3
_Dot
  1

  0
LWPOLYLINE
  5
1025D
330
1025B
100
AcDbEntity
  8
0
  6
ByBlock
 62
     0
100
AcDbPolyline
 90
        2
 70
     1
 43
0.5
 10
-0.25
 20
0.0
 42
1.0
 10
0.25
 20
0.0
 42
1.0
  0
LINE
  5
1025E
330
1025B
100
AcDbEntity
  8
0
  6
ByBlock
 62
     0
370
    -2
100
AcDbLine
 10
-0.5
 20
0.0
 30
0.0
 11
-1.0
 21
0.0
 31
0.0
  0
ENDBLK
  5
1025F
330
1025B
100
AcDbEntity
  8
0
100
AcDbBlockEnd
  0
ENDSEC
  0
SECTION
  2
ENTITIES
  0
LWPOLYLINE
  5
100
330
1F
100
AcDbEntity
  8
5-outcut
 62
     1
100
AcDbPolyline
 90
       16
 70
     1
 43
0.0
 10
-177.2842865059907
 20
-719.5817565990413
 42
-0.1989123673787581
 10
-189.0000152587079
 20
-691.2974853515625
 10
-189.0000152587079
 20
-453.2974853515623
 42
-0.1989123673787581
 10
-177.2842865059695
 20
-425.0132141041048
 42
-0.4142135738258418
 10
-31.71574401124587
 20
-425.0132141041007
 42
-0.1989123673796576
 10
-20.00001525870782
 20
-453.2974853515623
 10
-20.00001525870782
 20
-497.1974853515623
 10
-28.10001525862664
 20
-497.1974853515623
 10
-28.10001525862664
 20
-547.3974853515625
 10
-20.00001525870787
 20
-547.3974853515625
 10
-20.00001525870787
 20
-597.1974853515646
 10
-28.10001525862667
 20
-597.1974853515646
 10
-28.10001525862667
 20
-647.3974853515625
 10
-20.00001525870787
 20
-647.3974853515625
 10
-20.00001525870789
 20
-691.2974853515625
 42
-0.1989135534020193
 10
-31.71587308737955
 20
-719.5818856749761
 42
-0.4142130544074138
  0
LWPOLYLINE
  5
101
330
1F
100
AcDbEntity
  8
4-pocket 8mm
100
AcDbPolyline
 90
        4
 70
     1
 43
0.0
 10
-140.1000152586266
 20
-699.3974853515622
 10
-64.90001525862668
 20
-699.3974853515622
 10
-64.90001525862668
 20
-691.1974853515625
 10
-140.1000152586266
 20
-691.1974853515625
  0
LWPOLYLINE
  5
102
330
1F
100
AcDbEntity
  8
4-pocket 8mm
100
AcDbPolyline
 90
        4
 70
     1
 43
0.0
 10
-64.90001525862663
 20
-445.1974853515625
 10
-140.1000152586266
 20
-445.1974853515625
 10
-140.1000152586266
 20
-453.3974853515625
 10
-64.90001525862663
 20
-453.3974853515625
  0
LWPOLYLINE
  5
103
330
1F
100
AcDbEntity
  8
5-outcut
 62
     1
100
AcDbPolyline
 90
       14
 70
     1
 43
0.0
 10
0.0912170410157032
 20
-648.0274658203126
 10
17.52681281496523
 20
-648.027465820313
 42
-0.0837880926445704
 10
28.37548828849439
 20
-655.7431945730297
 42
-0.4142130544074137
 10
28.37561736422573
 20
-801.3116079914372
 42
-0.0837892415347219
 10
17.52681281517835
 20
-809.0274658203124
 10
0.0912170410156321
 20
-809.0274658203126
 10
0.0912170410156677
 20
-783.5774658203128
 10
8.19121704101569
 20
-783.5774658203128
 10
8.19121704101569
 20
-753.4774658203126
 10
0.0912170410156677
 20
-753.4774658203126
 10
0.0912170410157032
 20
-703.5774658203128
 10
8.19121704101569
 20
-703.5774658203128
 10
8.19121704101569
 20
-673.4774658203128
 10
0.0912170410157032
 20
-673.4774658203128
  0
LWPOLYLINE
  5
105
330
1F
100
AcDbEntity
  8
5-outcut
 62
     1
100
AcDbPolyline
 90
       24
 70
     1
 43
0.0
 10
-189.0000152587079
 20
-922.1624755859352
 10
-181.0000152587079
 20
-922.1624755859377
 10
-181.0000152587079
 20
-972.1624755859377
 10
-189.0000152587079
 20
-972.1624755859377
 10
-189.0000152587079
 20
-1022.162475585937
 10
-181.0000152587079
 20
-1022.162475585937
 10
-181.0000152587079
 20
-1090.162475585861
 42
0.0354891516934864
 10
-177.2842865060719
 20
-1094.446746833416
 42
0.414213573825843
 10
-31.71574401132719
 20
-1094.446746833399
 42
0.0354891516937256
 10
-28.00001525870791
 20
-1090.162475585829
 10
-28.00001525870801
 20
-1022.162475585937
 10
-20.00001525887025
 20
-1022.162475585937
 10
-20.00001525887025
 20
-972.1624755859377
 10
-28.00001525887027
 20
-972.1624755859377
 10
-28.0000152587079
 20
-922.1624755859377
 10
-20.00001525887025
 20
-922.1624755859352
 10
-20.00001525887025
 20
-872.1624755859375
 10
-28.00001525870791
 20
-872.1624755859375
 10
-28.0000152587079
 20
-804.162475586007
 42
0.0354902940122945
 10
-31.71587308766443
 20
-799.8780752627274
 42
0.4142130544074126
 10
-177.2842865060718
 20
-799.8782043384585
 42
0.0354891516934947
 10
-181.0000152587079
 20
-804.1624755860141
 10
-181.0000152587079
 20
-872.1624755859375
 10
-189.0000152587079
 20
-872.1624755859378
  0
LWPOLYLINE
  5
106
330
1F
100
AcDbEntity
  8
4-pocket 8mm
100
AcDbPolyline
 90
        4
 70
     1
 43
0.0
 10
-66.90001525878907
 20
-828.2624755859377
 10
-142.100015258789
 20
-828.2624755859377
 10
-142.100015258789
 20
-820.0624755859376
 10
-66.90001525878907
 20
-820.0624755859376
  0
LWPOLYLINE
  5
107
330
1F
100
AcDbEntity
  8
4-pocket 8mm
100
AcDbPolyline
 90
        4
 70
     1
 43
0.0
 10
-66.90001525878911
 20
-1074.262475585937
 10
-142.1000152587891
 20
-1074.262475585937
 10
-142.1000152587891
 20
-1066.062475585937
 10
-66.90001525878911
 20
-1066.062475585937
  0
CIRCLE
  5
109
330
1F
100
AcDbEntity
  8
4-pocket 8mm
100
AcDbCircle
 10
58.89701578702922
 20
-933.8076179479719
 30
0.0000000000000011
 40
2.049999999999998
  0
CIRCLE
  5
110
330
1F
100
AcDbEntity
  8
4-pocket 8mm
100
AcDbCircle
 10
59.30148957974022
 20
-881.4196927548088
 30
0.0
 40
8.5
  0
LWPOLYLINE
  5
111
330
1F
100
AcDbEntity
  8
5-outcut
 62
     1
100
AcDbPolyline
 90
       16
 70
     1
 43
0.0
 10
148.9999694824218
 20
-947.0274658203129
 10
152.9999694824218
 20
-947.0274658203129
 10
152.9999694824218
 20
-872.0274658203125
 10
148.9999694824219
 20
-872.0274658203125
 10
148.9999694824219
 20
-829.0274658203125
 10
107.9999694824218
 20
-829.0274658203125
 10
107.9999694824218
 20
-825.0274658203125
 10
32.99996948242189
 20
-825.0274658203125
 10
32.99996948242189
 20
-829.0274658203125
 10
-0.0000305175780982
 20
-829.0274658203125
 10
-0.0000305175781534
 20
-990.0274658203123
 10
32.99996948242185
 20
-990.0274658203123
 10
32.99996948242185
 20
-994.0274658203124
 10
107.9999694824218
 20
-994.0274658203124
 10
107.9999694824218
 20
-990.0274658203123
 10
148.9999694824218
 20
-990.0274658203128
  0
LWPOLYLINE
  5
112
330
1F
100
AcDbEntity
  8
5-outcut
 62
     1
100
AcDbPolyline
 90
       24
 70
     1
 43
0.0
 10
-0.0000305175781889
 20
-1123.527465820312
 10
-8.000030517578196
 20
-1123.527465820312
 10
-8.000030517578228
 20
-1153.527465820312
 10
-0.0000305175782245
 20
-1153.527465820312
 10
-0.0000305175782245
 20
-1179.027465820312
 10
32.99996948242178
 20
-1179.027465820312
 10
32.99996948242178
 20
-1183.027465820312
 10
107.9999694824218
 20
-1183.027465820312
 10
107.9999694824218
 20
-1179.027465820313
 10
148.9999694824218
 20
-1179.027465820313
 10
148.9999694824218
 20
-1136.027465820313
 10
152.9999694824218
 20
-1136.027465820313
 10
152.9999694824218
 20
-1061.027465820313
 10
148.9999694824218
 20
-1061.027465820313
 10
148.9999694824218
 20
-1018.027465820313
 10
107.9999694824218
 20
-1018.027465820313
 10
107.9999694824218
 20
-1014.027465820312
 10
32.99996948242185
 20
-1014.027465820312
 10
32.99996948242185
 20
-1018.027465820313
 10
-0.0000305175781534
 20
-1018.027465820313
 10
-0.0000305175781534
 20
-1043.527465820312
 10
-8.000030517578156
 20
-1043.527465820312
 10
-8.000030517578156
 20
-1073.527465820312
 10
-0.0000305175781534
 20
-1073.527465820312
  0
LWPOLYLINE
  5
113
330
1F
100
AcDbEntity
  8
5-outcut
 62
     1
100
AcDbPolyline
 90
       16
 70
     1
 43
0.0
 10
-177.2842865063154
 20
-1469.311737067791
 42
-0.1989123673787585
 10
-189.0000152590326
 20
-1441.027465820313
 10
-189.0000152590326
 20
-1203.027465820312
 42
-0.198912367378758
 10
-177.2842865061116
 20
-1174.743194573037
 42
-0.4142130544074142
 10
-31.71587308790805
 20
-1174.743065497102
 42
-0.198913553402024
 10
-20.00001525903258
 20
-1203.027465820312
 10
-20.00001525903258
 20
-1246.927465820312
 10
-28.10001525895142
 20
-1246.927465820313
 10
-28.10001525895143
 20
-1297.12746582031
 10
-20.00001525903258
 20
-1297.12746582031
 10
-20.00001525903258
 20
-1346.927465820313
 10
-28.10001525895145
 20
-1346.927465820312
 10
-28.10001525895146
 20
-1397.127465820312
 10
-20.00001525903261
 20
-1397.127465820312
 10
-20.00001525903267
 20
-1441.027465820312
 42
-0.1989123673796638
 10
-31.71574401155002
 20
-1469.311737067795
 42
-0.4142135738258402
  0
LWPOLYLINE
  5
114
330
1F
100
AcDbEntity
  8
4-pocket 8mm
100
AcDbPolyline
 90
        4
 70
     1
 43
0.0
 10
-140.1000152589514
 20
-1194.927465820312
 10
-64.90001525895144
 20
-1194.927465820312
 10
-64.90001525895142
 20
-1203.127465820312
 10
-140.1000152589514
 20
-1203.127465820312
  0
LWPOLYLINE
  5
115
330
1F
100
AcDbEntity
  8
4-pocket 8mm
100
AcDbPolyline
 90
        4
 70
     1
 43
0.0
 10
-64.90001525895147
 20
-1449.127465820312
 10
-140.1000152589514
 20
-1449.127465820312
 10
-140.1000152589514
 20
-1440.927465820312
 10
-64.90001525895147
 20
-1440.927465820312
  0
LWPOLYLINE
  5
116
330
1F
100
AcDbEntity
  8
5-outcut
 62
     1
100
AcDbPolyline
 90
        6
 70
     1
 43
0.0
 10
7.215698234959782
 20
-1469.311737067775
 42
-0.0767735775739359
 10
-0.0000305175715232
 20
-1459.459774411492
 10
-0.0000305175781889
 20
-1203.027465820312
 10
159.9999694824218
 20
-1203.027465820312
 10
159.9999694823886
 20
-1459.459774411269
 42
-0.0767735775752242
 10
152.7842407296835
 20
-1469.31173706777
 42
-0.4142135738258422
  0
LWPOLYLINE
  5
117
330
1F
100
AcDbEntity
  8
2-pocket 4mm
100
AcDbPolyline
 90
       16
 70
     1
 43
0.0
 10
-140.1000152586266
 20
-453.3974853515625
 10
-172.9000152586266
 20
-453.3974853515625
 10
-172.9000152586266
 20
-691.1974853515625
 10
-140.1000152586266
 20
-691.1974853515625
 10
-140.1000152586266
 20
-699.3974853515622
 10
-172.9000152586266
 20
-699.3974853515622
 10
-172.9000152586266
 20
-723.7165356939371
 10
-177.2842865059907
 20
-719.5817565990413
 42
-0.0365350858997445
 10
-181.1000152586267
 20
-715.1635700743733
 10
-181.1000152585651
 20
-692.4974853516447
 42
-0.1622776601815141
 10
-181.5000152586266
 20
-691.2974853515628
 10
-181.5000152586025
 20
-429.9790377189327
 42
-0.0407800020125617
 10
-177.2842865059798
 20
-425.0132141040944
 42
-0.0146400616915353
 10
-172.9000152586169
 20
-420.8784350091995
 10
-172.9000152586266
 20
-445.1974853515625
 10
-140.1000152586266
 20
-445.1974853515623
  0
LWPOLYLINE
  5
118
330
1F
100
AcDbEntity
  8
2-pocket 4mm
100
AcDbPolyline
 90
        4
 70
     1
 43
0.0
 10
-23.90001525862665
 20
-453.3974853515625
 10
-64.90001525862665
 20
-453.3974853515625
 10
-64.90001525862661
 20
-445.1974853515625
 10
-23.90001525862661
 20
-445.1974853515623
  0
LWPOLYLINE
  5
119
330
1F
100
AcDbEntity
  8
2-pocket 4mm
100
AcDbPolyline
 90
        4
 70
     1
 43
0.0
 10
-64.90001525862668
 20
-691.1974853515625
 10
-23.90001525862669
 20
-691.1974853515625
 10
-23.90001525862669
 20
-699.3974853515622
 10
-64.90001525862668
 20
-699.3974853515622
  0
CIRCLE
  5
121
330
1F
100
AcDbEntity
  8
2-pocket 4mm
100
AcDbCircle
 10
-153.0000152586266
 20
-549.2474853515625
 30
0.0
 40
2.049999999999998
  0
CIRCLE
  5
122
330
1F
100
AcDbEntity
  8
2-pocket 4mm
100
AcDbCircle
 10
-63.00001525862668
 20
-549.2474853515625
 30
0.0
 40
2.049999999999998
  0
CIRCLE
  5
123
330
1F
100
AcDbEntity
  8
2-pocket 4mm
100
AcDbCircle
 10
-63.00001525862668
 20
-589.2474853515625
 30
0.0
 40
2.049999999999998
  0
CIRCLE
  5
124
330
1F
100
AcDbEntity
  8
2-pocket 4mm
100
AcDbCircle
 10
-153.0000152586266
 20
-589.2474853515625
 30
0.0
 40
2.049999999999998
  0
CIRCLE
  5
125
330
1F
100
AcDbEntity
  8
2-pocket 4mm
100
AcDbCircle
 10
-153.0000152586267
 20
-629.2474853515625
 30
0.0
 40
2.049999999999998
  0
CIRCLE
  5
126
330
1F
100
AcDbEntity
  8
2-pocket 4mm
100
AcDbCircle
 10
-63.00001525862668
 20
-629.2474853515625
 30
0.0
 40
2.049999999999998
  0
CIRCLE
  5
127
330
1F
100
AcDbEntity
  8
2-pocket 4mm
100
AcDbCircle
 10
-153.0000152586267
 20
-669.2474853515625
 30
0.0
 40
2.049999999999998
  0
CIRCLE
  5
128
330
1F
100
AcDbEntity
  8
2-pocket 4mm
100
AcDbCircle
 10
-63.00001525862668
 20
-669.2474853515625
 30
0.0
 40
2.049999999999998
  0
LWPOLYLINE
  5
129
330
1F
100
AcDbEntity
  8
2-pocket 4mm
100
AcDbPolyline
 90
        4
 70
     1
 43
0.0
 10
-181.0000152587079
 20
-828.2624755859375
 10
-181.0000152587079
 20
-820.0624755859376
 10
-142.100015258789
 20
-820.0624755859378
 10
-142.100015258789
 20
-828.2624755859377
  0
LWPOLYLINE
  5
130
330
1F
100
AcDbEntity
  8
2-pocket 4mm
100
AcDbPolyline
 90
        4
 70
     1
 43
0.0
 10
-28.0000152587079
 20
-820.0624755859378
 10
-28.0000152587079
 20
-828.2624755859377
 10
-66.90001525878907
 20
-828.2624755859375
 10
-66.90001525878908
 20
-820.0624755859376
  0
CIRCLE
  5
131
330
1F
100
AcDbEntity
  8
2-pocket 4mm
100
AcDbCircle
 10
-154.5000152587079
 20
-863.1624755859375
 30
0.0
 40
4.000000000000004
  0
CIRCLE
  5
132
330
1F
100
AcDbEntity
  8
2-pocket 4mm
100
AcDbCircle
 10
-141.2677822116743
 20
-870.35925560529
 30
-0.0000000000000011
 40
4.000000000000004
  0
CIRCLE
  5
133
330
1F
100
AcDbEntity
  8
2-pocket 4mm
100
AcDbCircle
 10
-67.73224830574129
 20
-870.3592556052905
 30
0.0
 40
4.000000000000004
  0
CIRCLE
  5
134
330
1F
100
AcDbEntity
  8
2-pocket 4mm
100
AcDbCircle
 10
-54.50001525870789
 20
-863.1624755859375
 30
0.0
 40
3.999999999999998
  0
CIRCLE
  5
135
330
1F
100
AcDbEntity
  8
2-pocket 4mm
100
AcDbCircle
 10
-54.50001525870789
 20
-977.3979286136183
 30
0.0
 40
3.999999999999998
  0
CIRCLE
  5
136
330
1F
100
AcDbEntity
  8
2-pocket 4mm
100
AcDbCircle
 10
-67.73224830574143
 20
-993.8947895112233
 30
0.0
 40
3.999999999999998
  0
CIRCLE
  5
137
330
1F
100
AcDbEntity
  8
2-pocket 4mm
100
AcDbCircle
 10
-141.2677822116744
 20
-993.8947895112233
 30
-0.0000000000000011
 40
4.000000000000004
  0
CIRCLE
  5
138
330
1F
100
AcDbEntity
  8
2-pocket 4mm
100
AcDbCircle
 10
-154.5000152587079
 20
-977.3979286136183
 30
0.0
 40
4.000000000000004
  0
LWPOLYLINE
  5
139
330
1F
100
AcDbEntity
  8
4-pocket 8mm
100
AcDbPolyline
 90
        4
 70
     1
 43
0.0
 10
-41.00001525880285
 20
-1027.412475585937
 10
-50.25001525879378
 20
-1027.412475585937
 10
-50.25001525879368
 20
-1051.662475585938
 10
-41.00001525879367
 20
-1051.662475585938
  0
LINE
  5
140
330
1F
100
AcDbEntity
  8
2-pocket 4mm
100
AcDbLine
 10
-34.00501525880188
 20
-1035.542475585933
 30
0.0
 11
-38.00001525880148
 21
-1035.542475585954
 31
0.0
  0
LINE
  5
141
330
1F
100
AcDbEntity
  8
2-pocket 4mm
100
AcDbLine
 10
-38.00001525880148
 20
-1035.542475585954
 30
0.0
 11
-38.00001525880244
 21
-1026.912475585938
 31
0.0
  0
ARC
  5
142
330
1F
100
AcDbEntity
  8
2-pocket 4mm
100
AcDbCircle
 10
-42.00001525880239
 20
-1026.912475585938
 30
0.0
 40
3.999999999999941
100
AcDbArc
 50
0.0
 51
90.00000000000062
  0
LINE
  5
143
330
1F
100
AcDbEntity
  8
2-pocket 4mm
100
AcDbLine
 10
-42.00001525880241
 20
-1022.912475585937
 30
0.0
 11
-49.25001525879366
 21
-1022.912475585937
 31
0.0
  0
ARC
  5
144
330
1F
100
AcDbEntity
  8
2-pocket 4mm
100
AcDbCircle
 10
-49.25001525879374
 20
-1026.912475585938
 30
0.0
 40
3.999999999999912
100
AcDbArc
 50
89.99999999999898
 51
180.0
  0
LINE
  5
145
330
1F
100
AcDbEntity
  8
2-pocket 4mm
100
AcDbLine
 10
-53.25001525879365
 20
-1026.912475585938
 30
0.0
 11
-53.25001525879866
 21
-1035.542475585957
 31
0.0
  0
LINE
  5
146
330
1F
100
AcDbEntity
  8
2-pocket 4mm
100
AcDbLine
 10
-53.25001525879866
 20
-1035.542475585957
 30
0.0
 11
-57.24501525879825
 21
-1035.542475585937
 31
0.0
  0
ARC
  5
147
330
1F
100
AcDbEntity
  8
2-pocket 4mm
100
AcDbCircle
 10
-57.2450152587983
 20
-1039.537475585937
 30
0.0000000000000011
 40
3.995000000000033
100
AcDbArc
 50
89.9999999999995
 51
270.0000051226415
  0
LINE
  5
148
330
1F
100
AcDbEntity
  8
2-pocket 4mm
100
AcDbLine
 10
-57.24501490161749
 20
-1043.532475585937
 30
0.0000000000000011
 11
-53.25001525879785
 21
-1043.532475585971
 31
0.0000000000000011
  0
LINE
  5
149
330
1F
100
AcDbEntity
  8
2-pocket 4mm
100
AcDbLine
 10
-53.25001525879785
 20
-1043.532475585971
 30
0.0000000000000011
 11
-53.25001525879113
 21
-1052.162475585938
 31
0.0
  0
ARC
  5
150
330
1F
100
AcDbEntity
  8
2-pocket 4mm
100
AcDbCircle
 10
-49.2500152587912
 20
-1052.162475585938
 30
0.0
 40
3.99999999999993
100
AcDbArc
 50
180.0
 51
270.0000000000007
  0
LINE
  5
151
330
1F
100
AcDbEntity
  8
2-pocket 4mm
100
AcDbLine
 10
-49.25001525879114
 20
-1056.162475585938
 30
0.0
 11
-42.00001525880246
 21
-1056.162475585938
 31
0.0
  0
ARC
  5
152
330
1F
100
AcDbEntity
  8
2-pocket 4mm
100
AcDbCircle
 10
-42.00001525880239
 20
-1052.162475585938
 30
0.0
 40
4.000000000000055
100
AcDbArc
 50
269.9999999999989
 51
360.0
  0
LINE
  5
153
330
1F
100
AcDbEntity
  8
2-pocket 4mm
100
AcDbLine
 10
-38.00001525880233
 20
-1052.162475585938
 30
0.0
 11
-38.0000152587992
 21
-1043.532475585968
 31
0.0
  0
LINE
  5
154
330
1F
100
AcDbEntity
  8
2-pocket 4mm
100
AcDbLine
 10
-38.0000152587992
 20
-1043.532475585968
 30
0.0
 11
-34.00501562022293
 21
-1043.532475585959
 31
0.0
  0
ARC
  5
155
330
1F
100
AcDbEntity
  8
2-pocket 4mm
100
AcDbCircle
 10
-34.00501525880039
 20
-1039.537475585933
 30
0.0
 40
3.995000000026053
100
AcDbArc
 50
-90.00000518347597
 51
90.00000000002129
  0
LWPOLYLINE
  5
156
330
1F
100
AcDbEntity
  8
2-pocket 4mm
100
AcDbPolyline
 90
        4
 70
     1
 43
0.0
 10
-28.00001525870793
 20
-1066.062475585937
 10
-28.0000152587079
 20
-1074.262475585937
 10
-66.90001525878911
 20
-1074.262475585937
 10
-66.90001525878908
 20
-1066.062475585937
  0
LWPOLYLINE
  5
157
330
1F
100
AcDbEntity
  8
2-pocket 4mm
100
AcDbPolyline
 90
        4
 70
     1
 43
0.0
 10
-181.0000152587079
 20
-1074.262475585937
 10
-181.0000152587079
 20
-1066.062475585937
 10
-142.1000152587891
 20
-1066.062475585937
 10
-142.1000152587891
 20
-1074.262475585937
  0
LWPOLYLINE
  5
158
330
1F
100
AcDbEntity
  8
2-pocket 4mm
100
AcDbPolyline
 90
       16
 70
     1
 43
0.0
 10
-172.9000152589514
 20
-1440.927465820312
 10
-140.1000152589514
 20
-1440.927465820312
 10
-140.1000152589514
 20
-1449.127465820312
 10
-172.9000152589514
 20
-1449.127465820312
 10
-172.9000152589516
 20
-1473.446516162687
 42
-0.014640061691597
 10
-177.2842865063154
 20
-1469.311737067791
 42
-0.0407800020125732
 10
-181.5000152589514
 20
-1464.34591345296
 10
-181.5000152589898
 20
-1203.027465820312
 42
-0.1622776601815514
 10
-181.1000152589206
 20
-1201.827465820207
 10
-181.1000152589512
 20
-1179.161381097502
 42
-0.0365350858997511
 10
-177.2842865063154
 20
-1174.743194572834
 10
-172.9000152589514
 20
-1170.608415478323
 10
-172.9000152589514
 20
-1194.927465820312
 10
-140.1000152589514
 20
-1194.927465820313
 10
-140.1000152589514
 20
-1203.127465820312
 10
-172.9000152589514
 20
-1203.127465820312
  0
LWPOLYLINE
  5
160
330
1F
100
AcDbEntity
  8
2-pocket 4mm
100
AcDbPolyline
 90
        4
 70
     1
 43
0.0
 10
-64.90001525895147
 20
-1440.927465820312
 10
-23.90001525895149
 20
-1440.927465820312
 10
-23.90001525895145
 20
-1449.127465820312
 10
-64.90001525895144
 20
-1449.127465820312
  0
LWPOLYLINE
  5
161
330
1F
100
AcDbEntity
  8
2-pocket 4mm
100
AcDbPolyline
 90
        4
 70
     1
 43
0.0
 10
-23.90001525895143
 20
-1203.127465820312
 10
-64.90001525895142
 20
-1203.127465820312
 10
-64.90001525895144
 20
-1194.927465820312
 10
-23.90001525895144
 20
-1194.927465820313
  0
CIRCLE
  5
162
330
1F
100
AcDbEntity
  8
2-pocket 4mm
100
AcDbCircle
 10
-153.0000152589514
 20
-1225.077465820313
 30
0.0
 40
2.049999999999998
  0
CIRCLE
  5
163
330
1F
100
AcDbEntity
  8
2-pocket 4mm
100
AcDbCircle
 10
-63.00001525895144
 20
-1225.077465820313
 30
0.0
 40
2.049999999999998
  0
CIRCLE
  5
164
330
1F
100
AcDbEntity
  8
2-pocket 4mm
100
AcDbCircle
 10
-153.0000152589514
 20
-1265.077465820313
 30
0.0
 40
2.049999999999998
  0
CIRCLE
  5
165
330
1F
100
AcDbEntity
  8
2-pocket 4mm
100
AcDbCircle
 10
-63.00001525895144
 20
-1265.077465820313
 30
0.0
 40
2.049999999999998
  0
CIRCLE
  5
166
330
1F
100
AcDbEntity
  8
2-pocket 4mm
100
AcDbCircle
 10
-153.0000152589514
 20
-1305.077465820312
 30
0.0
 40
2.049999999999998
  0
CIRCLE
  5
167
330
1F
100
AcDbEntity
  8
2-pocket 4mm
100
AcDbCircle
 10
-63.00001525895146
 20
-1305.077465820313
 30
0.0
 40
2.049999999999998
  0
CIRCLE
  5
168
330
1F
100
AcDbEntity
  8
2-pocket 4mm
100
AcDbCircle
 10
-153.0000152589514
 20
-1345.077465820312
 30
0.0
 40
2.049999999999998
  0
CIRCLE
  5
169
330
1F
100
AcDbEntity
  8
2-pocket 4mm
100
AcDbCircle
 10
-63.00001525895146
 20
-1345.077465820313
 30
0.0
 40
2.049999999999998
  0
CIRCLE
  5
170
330
1F
100
AcDbEntity
  8
3-pocket 6mm
100
AcDbCircle
 10
22.49996948250299
 20
-1246.027465820312
 30
0.0
 40
4.000000000000004
  0
CIRCLE
  5
171
330
1F
100
AcDbEntity
  8
3-pocket 6mm
100
AcDbCircle
 10
137.4999694823406
 20
-1246.027465820312
 30
0.0
 40
4.000000000000004
  0
LWPOLYLINE
  5
172
330
1F
100
AcDbEntity
  8
3-pocket 6mm
100
AcDbPolyline
 90
        4
 70
     1
 43
0.0
 10
3.099969482421906
 20
-848.0274658203937
 10
3.099969482421903
 20
-856.1274658203936
 10
-0.0000305175780496
 20
-856.1274658203936
 10
-0.0000305175781179
 20
-848.0274658203937
  0
LWPOLYLINE
  5
173
330
1F
100
AcDbEntity
  8
3-pocket 6mm
100
AcDbPolyline
 90
        4
 70
     1
 43
0.0
 10
-0.0000305175781357
 20
-962.9274658202312
 10
3.099969482421868
 20
-962.9274658202312
 10
3.099969482421851
 20
-971.0274658202314
 10
-0.0000305175781562
 20
-971.0274658202314
  0
CIRCLE
  5
175
330
1F
100
AcDbEntity
  8
2-pocket 4mm
100
AcDbCircle
 10
25.49996948242182
 20
-956.0274658204004
 30
0.0
 40
3.999999999999998
  0
CIRCLE
  5
176
330
1F
100
AcDbEntity
  8
2-pocket 4mm
100
AcDbCircle
 10
39.15599445931441
 20
-934.5824409902084
 30
0.0
 40
3.999999999999998
  0
LWPOLYLINE
  5
177
330
1F
100
AcDbEntity
  8
4-pocket 8mm
100
AcDbPolyline
 90
        4
 70
     1
 43
0.0
 10
51.90783375294296
 20
-926.0274052636335
 10
70.40783375294295
 20
-926.0274052636335
 10
70.40783375294298
 20
-893.0274052636342
 10
51.90783375294299
 20
-893.0274052636342
  0
LWPOLYLINE
  5
178
330
1F
100
AcDbEntity
  8
3-pocket 6mm
100
AcDbPolyline
 90
        4
 70
     1
 43
0.0
 10
76.90783384087795
 20
-891.5274658147232
 10
76.90783384087793
 20
-927.5274658147234
 10
42.90783384087792
 20
-927.5274658221755
 10
42.90783383298728
 20
-891.5274658221756
  0
CIRCLE
  5
179
330
1F
100
AcDbEntity
  8
2-pocket 4mm
100
AcDbCircle
 10
76.09794445931438
 20
-934.5824409902084
 30
0.0
 40
3.999999999999998
  0
CIRCLE
  5
180
330
1F
100
AcDbEntity
  8
2-pocket 4mm
100
AcDbCircle
 10
88.12649364602433
 20
-934.4009416567997
 30
0.0
 40
3.999999999999998
  0
CIRCLE
  5
181
330
1F
100
AcDbEntity
  8
2-pocket 4mm
100
AcDbCircle
 10
137.8734453188193
 20
-934.4009416567997
 30
0.0
 40
3.999999999999998
  0
CIRCLE
  5
182
330
1F
100
AcDbEntity
  8
2-pocket 4mm
100
AcDbCircle
 10
137.8734453188194
 20
-884.6539899840045
 30
0.0
 40
3.999999999999998
  0
CIRCLE
  5
183
330
1F
100
AcDbEntity
  8
2-pocket 4mm
100
AcDbCircle
 10
88.12649364602433
 20
-884.6539899840045
 30
0.0
 40
3.999999999999998
  0
CIRCLE
  5
184
330
1F
100
AcDbEntity
  8
2-pocket 4mm
100
AcDbCircle
 10
76.09794445931445
 20
-874.6404909902086
 30
0.0
 40
3.999999999999998
  0
CIRCLE
  5
185
330
1F
100
AcDbEntity
  8
2-pocket 4mm
100
AcDbCircle
 10
25.49996948242189
 20
-863.0274658203937
 30
0.0
 40
4.000000000000004
  0
LWPOLYLINE
  5
10229
330
1F
100
AcDbEntity
  8
0
  6
Continuous
 62
     8
100
AcDbPolyline
 90
        4
 70
     1
 43
0.0
 10
169.9999694823886
 20
-1509.459970179451
 10
-199.0000152582503
 20
-1509.459970179451
 10
-199.0000152582503
 20
-384.8649809924236
 10
169.9999694823886
 20
-384.8649809924236
  0
CIRCLE
  5
10248
330
1F
100
AcDbEntity
  8
1-screw
  6
Continuous
100
AcDbCircle
 10
-189.0000152582503
 20
-394.8649809924238
 30
0.0
 40
2.049999999999998
  0
CIRCLE
  5
1024C
330
1F
100
AcDbEntity
  8
1-screw
  6
Continuous
100
AcDbCircle
 10
-189.0000152587091
 20
-753.0633138019737
 30
0.0
 40
2.049999999999998
  0
CIRCLE
  5
1024E
330
1F
100
AcDbEntity
  8
1-screw
  6
Continuous
100
AcDbCircle
 10
-189.0000152582503
 20
-1499.459970179451
 30
0.0
 40
2.049999999999998
  0
CIRCLE
  5
1024F
330
1F
100
AcDbEntity
  8
1-screw
  6
Continuous
100
AcDbCircle
 10
159.9999694823886
 20
-1499.459970179451
 30
0.0
 40
2.049999999999998
  0
CIRCLE
  5
10250
330
1F
100
AcDbEntity
  8
1-screw
  6
Continuous
100
AcDbCircle
 10
159.9999694823886
 20
-394.8649809924238
 30
0.0
 40
2.049999999999998
  0
CIRCLE
  5
10252
330
1F
100
AcDbEntity
  8
1-screw
  6
Continuous
100
AcDbCircle
 10
-189.0000152587091
 20
-1141.261637369901
 30
0.0
 40
2.049999999999998
  0
CIRCLE
  5
10254
330
1F
100
AcDbEntity
  8
1-screw
  6
Continuous
100
AcDbCircle
 10
159.9999694823886
 20
-1004.027465820313
 30
0.0
 40
2.049999999999998
  0
MULTILEADER
  5
1026D
330
1F
100
AcDbEntity
  8
0
 62
     0
 48
10.0
160
               536
310
18020000150000000C00000016000000000000C10C00000033000000000000000C00000013000000993A0000C00000002600000025AB4179E7B274C0C5D4CC5210067FC0000000000000000000000000000000000000000000000000000000000000F03F000000000000F03F00000000000000000000000000000000530069
310
0064006500200041000000000006000000010000000000000000002E40000000000000F03F0000000000000000000000000000F03F00000000000000000000000000000000000000000000000000000000010000000000000041007200690061006C00000000000000000000000C00000033000000000000000C0000001000
310
0000000000000C00000016000000000000C10C00000012000000FF7F00000C00000013000000010000000C00000013000000891300003C0000000600000002000000412C1440063C62C0EF5BEE72048C7EC00000000000000000636EFA192ADD6EC0EF5BEE72048C7EC000000000000000000C00000013000000122700003C
310
0000000600000002000000636EFA192ADD6EC0EF5BEE72048C7EC000000000000000003237FD0C958E70C0EF5BEE72048C7EC000000000000000000C00000016000000000000C10C00000012000000FF7F00000C00000017000000000000000C000000130000009A3A00000C00000016000000000000C10C00000012000000
310
FF7F00000C00000017000000FFFFFFFF0C0000003300000000000000
100
AcDbMLeader
270
     2
300
CONTEXT_DATA{
 40
50.0
 10
-334.740175152251
 20
-488.7510861693289
 30
0.0
 41
15.0
140
5000.0
145
4.5
174
     1
175
     1
176
     2
177
     0
290
     1
304
{\fArial|b0|i0|c0|p0;Side A}
 11
0.0
 21
0.0
 31
1.0
340
11
 12
-269.4113893405184
 22
-481.1231871243085
 32
0.0
 13
1.0
 23
0.0
 33
0.0
 42
0.0
 43
0.0
 44
0.0
 45
1.0
170
     1
 90
-1056964608
171
     3
172
     5
 91
-1073741824
141
0.0
 92
        0
291
     0
292
     0
173
     0
293
     0
142
0.0
143
0.0
294
     0
295
     0
296
     0
110
-395.3349909776262
120
-488.7510861693289
130
0.0
111
1.0
121
0.0
131
0.0
112
0.0
122
1.0
132
0.0
297
     0
302
LEADER{
290
     1
291
     1
 10
-246.9113893405184
 20
-488.7510861693289
 30
0.0
 11
-1.0
 21
0.0
 31
0.0
 90
        1
 40
18.0
304
LEADER_LINE{
 10
-145.875762977028
 20
-488.7510861693289
 30
0.0
 91
        0
305
}
271
     0
303
}
272
     9
273
     9
301
}
340
1004E
 90
 17123072
170
     1
 91
-1056964608
341
14
171
    -2
290
     1
291
     1
 41
0.36
342
1025B
 42
100.0
172
     2
343
11
173
     1
 95
        1
174
     1
175
     0
 92
-1056964608
292
     0
 93
-1056964608
 10
1.0
 20
1.0
 30
1.0
 43
0.0
176
     0
293
     0
294
     0
178
     0
179
     3
 45
50.0
271
     0
272
     9
273
     9
295
     0
  0
MULTILEADER
  5
1026F
330
1F
100
AcDbEntity
  8
0
 62
     0
 48
10.0
160
               532
310
14020000150000000C00000016000000000000C10C00000033000000000000000C00000013000000993A0000BC000000260000008FA591D0A5BE73C085884D4A51448CC0000000000000000000000000000000000000000000000000000000000000F03F000000000000F03F00000000000000000000000000000000420061
310
0063006B000000410004000000010000000000000000002E40000000000000F03F0000000000000000000000000000F03F00000000000000000000000000000000000000000000000000000000010000000000000041007200690061006C00000000000000000000000C00000033000000000000000C000000100000000000
310
00000C00000016000000000000C10C00000012000000FF7F00000C00000013000000010000000C00000013000000891300003C0000000600000002000000412C1440063C62C0F8FFFFBF4C098CC00000000000000000666EFA192ADD6EC0F8FFFFBF4C098CC000000000000000000C00000013000000122700003C00000006
310
00000002000000666EFA192ADD6EC0F8FFFFBF4C098CC000000000000000003337FD0C958E70C0F8FFFFBF4C098CC000000000000000000C00000016000000000000C10C00000012000000FF7F00000C00000017000000000000000C000000130000009A3A00000C00000016000000000000C10C00000012000000FF7F0000
310
0C00000017000000FFFFFFFF0C0000003300000000000000
100
AcDbMLeader
270
     2
300
CONTEXT_DATA{
 40
50.0
 10
-318.8806935697135
 20
-897.1624755859366
 30
0.0
 41
15.0
140
5000.0
145
4.5
174
     1
175
     1
176
     2
177
     0
290
     1
304
{\fArial|b0|i0|c0|p0;Back}
 11
0.0
 21
0.0
 31
1.0
340
11
 12
-269.4113893405184
 22
-889.5396925027167
 32
0.0
 13
1.0
 23
0.0
 33
0.0
 42
0.0
 43
0.0
 44
0.0
 45
1.0
170
     1
 90
-1056964608
171
     3
172
     5
 91
-1073741824
141
0.0
 92
        0
291
     0
292
     0
173
     0
293
     0
142
0.0
143
0.0
294
     0
295
     0
296
     0
110
-395.3349909776262
120
-897.1624755859366
130
0.0
111
1.0
121
0.0
131
0.0
112
0.0
122
1.0
132
0.0
297
     0
302
LEADER{
290
     1
291
     1
 10
-246.9113893405185
 20
-897.1624755859366
 30
0.0
 11
-1.0
 21
0.0
 31
0.0
 90
        1
 40
18.0
304
LEADER_LINE{
 10
-145.875762977028
 20
-897.1624755859366
 30
0.0
 91
        0
305
}
271
     0
303
}
272
     9
273
     9
301
}
340
1004E
 90
 17123072
170
     1
 91
-1056964608
341
14
171
    -2
290
     1
291
     1
 41
0.36
342
1025B
 42
100.0
172
     2
343
11
173
     1
 95
        1
174
     1
175
     0
 92
-1056964608
292
     0
 93
-1056964608
 10
1.0
 20
1.0
 30
1.0
 43
0.0
176
     0
293
     0
294
     0
178
     0
179
     3
 45
50.0
271
     0
272
     9
273
     9
295
     0
  0
MULTILEADER
  5
10270
330
1F
100
AcDbEntity
  8
0
 62
     0
 48
10.0
160
               536
310
18020000150000000C00000016000000000000C10C00000033000000000000000C00000013000000993A0000C00000002600000089F5E88E91A074C03035B3946F7893C0000000000000000000000000000000000000000000000000000000000000F03F000000000000F03F00000000000000000000000000000000530069
310
0064006500200042000000000006000000010000000000000000002E40000000000000F03F0000000000000000000000000000F03F00000000000000000000000000000000000000000000000000000000010000000000000041007200690061006C00000000000000000000000C00000033000000000000000C0000001000
310
0000000000000C00000016000000000000C10C00000012000000FF7F00000C00000013000000010000000C00000013000000891300003C0000000600000002000000412C1440063C62C0F796BB9CEC5993C00000000000000000636EFA192ADD6EC0F796BB9CEC5993C000000000000000000C00000013000000122700003C
310
0000000600000002000000636EFA192ADD6EC0F796BB9CEC5993C000000000000000003237FD0C958E70C0F796BB9CEC5993C000000000000000000C00000016000000000000C10C00000012000000FF7F00000C00000017000000000000000C000000130000009A3A00000C00000016000000000000C10C00000012000000
310
FF7F00000C00000017000000FFFFFFFF0C0000003300000000000000
100
AcDbMLeader
270
     2
300
CONTEXT_DATA{
 40
50.0
 10
-333.5941997088676
 20
-1238.481066638078
 30
0.0
 41
15.0
140
5000.0
145
4.5
174
     1
175
     1
176
     2
177
     0
290
     1
304
{\fArial|b0|i0|c0|p0;Side B}
 11
0.0
 21
0.0
 31
1.0
340
11
 12
-269.4113893405184
 22
-1230.853167593058
 32
0.0
 13
1.0
 23
0.0
 33
0.0
 42
0.0
 43
0.0
 44
0.0
 45
1.0
170
     1
 90
-1056964608
171
     3
172
     5
 91
-1073741824
141
0.0
 92
        0
291
     0
292
     0
173
     0
293
     0
142
0.0
143
0.0
294
     0
295
     0
296
     0
110
-395.3349909776262
120
-1238.481066638078
130
0.0
111
1.0
121
0.0
131
0.0
112
0.0
122
1.0
132
0.0
297
     0
302
LEADER{
290
     1
291
     1
 10
-246.9113893405184
 20
-1238.481066638078
 30
0.0
 11
-1.0
 21
0.0
 31
0.0
 90
        1
 40
18.0
304
LEADER_LINE{
 10
-145.875762977028
 20
-1238.481066638078
 30
0.0
 91
        0
305
}
271
     0
303
}
272
     9
273
     9
301
}
340
1004E
 90
 17123072
170
     1
 91
-1056964608
341
14
171
    -2
290
     1
291
     1
 41
0.36
342
1025B
 42
100.0
172
     2
343
11
173
     1
 95
        1
174
     1
175
     0
 92
-1056964608
292
     0
 93
-1056964608
 10
1.0
 20
1.0
 30
1.0
 43
0.0
176
     0
293
     0
294
     0
178
     0
179
     3
 45
50.0
271
     0
272
     9
273
     9
295
     0
  0
MULTILEADER
  5
10271
330
1F
100
AcDbEntity
  8
0
 62
     0
 48
10.0
160
               544
310
20020000150000000C00000016000000000000C10C00000033000000000000000C00000013000000993A0000C8000000260000001293F0FA27D66D40E8FD2BAA480187C0000000000000000000000000000000000000000000000000000000000000F03F000000000000F03F4D67E2F1059EB5BC0000000000000000460072
310
006F006E007400200066006F006F007400000000000A000000010000000000000000002E40000000000000F03F0000000000000000000000000000F03F00000000000000000000000000000000000000000000000000000000010000000000000041007200690061006C00000000000000000033000C000000330000000000
310
00000C00000010000000000000000C00000016000000000000C10C00000012000000FF7F00000C00000013000000010000000C00000013000000891300003C000000060000000200000000580AA2A855404082FCFF3F38C486C00000000000000000E6B3FAB9293D6B4082FCFF3F38C486C000000000000000000C00000013
310
000000122700003C0000000600000002000000E6B3FAB9293D6B4082FCFF3F38C486C00000000000000000E6B3FAB9297D6D4082FCFF3F38C486C000000000000000000C00000016000000000000C10C00000012000000FF7F00000C00000017000000000000000C000000130000009A3A00000C00000016000000000000C1
310
0C00000012000000FF7F00000C00000017000000FFFFFFFF0C0000003300000000000000
100
AcDbMLeader
270
     2
300
CONTEXT_DATA{
 40
50.0
 10
235.911343564657
 20
-728.5274658202109
 30
0.0
 41
15.0
140
5000.0
145
4.5
174
     1
175
     1
176
     0
177
     0
290
     1
304
{\fArial|b0|i0|c0|p0;Front foot}
 11
0.0
 21
0.0
 31
1.0
340
11
 12
240.411343564657
 22
-720.9046827369912
 32
0.0
 13
1.0
 23
-0.0000000000000003
 33
0.0
 42
0.0
 43
0.0
 44
0.0
 45
1.0
170
     1
 90
-1056964608
171
     1
172
     5
 91
-1073741824
141
0.0
 92
        0
291
     0
292
     0
173
     0
293
     0
142
0.0
143
0.0
294
     0
295
     0
296
     0
110
366.3349452017647
120
-728.5274658202109
130
0.0
111
1.0
121
-0.0000000000000003
131
0.0
112
0.0000000000000003
122
1.0
132
0.0
297
     0
302
LEADER{
290
     1
291
     1
 10
217.911343564657
 20
-728.5274658202109
 30
0.0
 11
1.0
 21
-0.0000000000000003
 31
0.0
 90
        1
 40
18.0
304
LEADER_LINE{
 10
32.66920876984659
 20
-728.5274658202109
 30
0.0
 91
        0
305
}
271
     0
303
}
272
     9
273
     9
301
}
340
1004E
 90
 17123072
170
     1
 91
-1056964608
341
14
171
    -2
290
     1
291
     1
 41
0.36
342
1025B
 42
100.0
172
     2
343
11
173
     1
 95
        1
174
     1
175
     0
 92
-1056964608
292
     0
 93
-1056964608
 10
1.0
 20
1.0
 30
1.0
 43
0.0
176
     0
293
     0
294
     0
178
     0
179
     1
 45
50.0
271
     0
272
     9
273
     9
295
     0
  0
MULTILEADER
  5
10272
330
1F
100
AcDbEntity
  8
0
 62
     0
 48
10.0
160
               528
310
10020000150000000C00000016000000000000C10C00000033000000000000000C00000013000000993A0000B800000026000000CE3CD35E72FD6D4074D662E98F978CC0000000000000000000000000000000000000000000000000000000000000F03F000000000000F03F4D67E2F1059EB5BC000000000000000054006F
310
007000000003000000010000000000000000002E40000000000000F03F0000000000000000000000000000F03F00000000000000000000000000000000000000000000000000000000010000000000000041007200690061006C00000000000000000000000C00000033000000000000000C00000010000000000000000C00
310
000016000000000000C10C00000012000000FF7F00000C00000013000000010000000C00000013000000891300003C000000060000000200000088E328C00B385D4003000040386C8CC00000000000000000E6B3FAB9293D6B4003000040386C8CC000000000000000000C00000013000000122700003C0000000600000002
310
000000E6B3FAB9293D6B4003000040386C8CC00000000000000000E6B3FAB9297D6D4003000040386C8CC000000000000000000C00000016000000000000C10C00000012000000FF7F00000C00000017000000000000000C000000130000009A3A00000C00000016000000000000C10C00000012000000FF7F00000C000000
310
17000000FFFFFFFF0C0000003300000000000000
100
AcDbMLeader
270
     2
300
CONTEXT_DATA{
 40
50.0
 10
235.911343564657
 20
-909.5274658203129
 30
0.0
 41
15.0
140
5000.0
145
4.5
174
     1
175
     1
176
     0
177
     0
290
     1
304
{\fArial|b0|i0|c0|p0;Top}
 11
0.0
 21
0.0
 31
1.0
340
11
 12
240.411343564657
 22
-899.9452693673797
 32
0.0
 13
1.0
 23
-0.0000000000000003
 33
0.0
 42
0.0
 43
0.0
 44
0.0
 45
1.0
170
     1
 90
-1056964608
171
     1
172
     5
 91
-1073741824
141
0.0
 92
        0
291
     0
292
     0
173
     0
293
     0
142
0.0
143
0.0
294
     0
295
     0
296
     0
110
366.3349452017648
120
-909.5274658203129
130
0.0
111
1.0
121
-0.0000000000000003
131
0.0
112
0.0000000000000003
122
1.0
132
0.0
297
     0
302
LEADER{
290
     1
291
     1
 10
217.911343564657
 20
-909.5274658203129
 30
0.0
 11
1.0
 21
-0.0000000000000003
 31
0.0
 90
        1
 40
18.0
304
LEADER_LINE{
 10
116.8757172011666
 20
-909.5274658203129
 30
0.0
 91
        0
305
}
271
     0
303
}
272
     9
273
     9
301
}
340
1004E
 90
 17123072
170
     1
 91
-1056964608
341
14
171
    -2
290
     1
291
     1
 41
0.36
342
1025B
 42
100.0
172
     2
343
11
173
     1
 95
        1
174
     1
175
     0
 92
-1056964608
292
     0
 93
-1056964608
 10
1.0
 20
1.0
 30
1.0
 43
0.0
176
     0
293
     0
294
     0
178
     0
179
     1
 45
50.0
271
     0
272
     9
273
     9
295
     0
  0
MULTILEADER
  5
10273
330
1F
100
AcDbEntity
  8
0
 62
     0
 48
10.0
160
               532
310
14020000150000000C00000016000000000000C10C00000033000000000000000C00000013000000993A0000BC000000260000003121EE2D6ED96D40FE10B198E35C94C0000000000000000000000000000000000000000000000000000000000000F03F000000000000F03F4D67E2F1059EB5BC000000000000000044006F
310
006F0072000000000004000000010000000000000000002E40000000000000F03F0000000000000000000000000000F03F00000000000000000000000000000000000000000000000000000000010000000000000041007200690061006C00000000000000000000000C00000033000000000000000C000000100000000000
310
00000C00000016000000000000C10C00000012000000FF7F00000C00000013000000010000000C00000013000000891300003C00000006000000020000007AE328C00B385D40B84C8A53613F94C00000000000000000E0B3FAB9293D6B40B84C8A53613F94C000000000000000000C00000013000000122700003C00000006
310
00000002000000E0B3FAB9293D6B40B84C8A53613F94C00000000000000000E0B3FAB9297D6D40B84C8A53613F94C000000000000000000C00000016000000000000C10C00000012000000FF7F00000C00000017000000000000000C000000130000009A3A00000C00000016000000000000C10C00000012000000FF7F0000
310
0C00000017000000FFFFFFFF0C0000003300000000000000
100
AcDbMLeader
270
     2
300
CONTEXT_DATA{
 40
50.0
 10
235.9113435646568
 20
-1295.845045243199
 30
0.0
 41
15.0
140
5000.0
145
4.5
174
     1
175
     1
176
     0
177
     0
290
     1
304
{\fArial|b0|i0|c0|p0;Door}
 11
0.0
 21
0.0
 31
1.0
340
11
 12
240.4113435646568
 22
-1288.222262159979
 32
0.0
 13
1.0
 23
-0.0000000000000003
 33
0.0
 42
0.0
 43
0.0
 44
0.0
 45
1.0
170
     1
 90
-1056964608
171
     1
172
     5
 91
-1073741824
141
0.0
 92
        0
291
     0
292
     0
173
     0
293
     0
142
0.0
143
0.0
294
     0
295
     0
296
     0
110
366.3349452017646
120
-1295.845045243199
130
0.0
111
1.0
121
-0.0000000000000003
131
0.0
112
0.0000000000000003
122
1.0
132
0.0
297
     0
302
LEADER{
290
     1
291
     1
 10
217.9113435646568
 20
-1295.845045243199
 30
0.0
 11
1.0
 21
-0.0000000000000003
 31
0.0
 90
        1
 40
18.0
304
LEADER_LINE{
 10
116.8757172011664
 20
-1295.845045243199
 30
0.0
 91
        0
305
}
271
     0
303
}
272
     9
273
     9
301
}
340
1004E
 90
 17123072
170
     1
 91
-1056964608
341
14
171
    -2
290
     1
291
     1
 41
0.36
342
1025B
 42
100.0
172
     2
343
11
173
     1
 95
        1
174
     1
175
     0
 92
-1056964608
292
     0
 93
-1056964608
 10
1.0
 20
1.0
 30
1.0
 43
0.0
176
     0
293
     0
294
     0
178
     0
179
     1
 45
50.0
271
     0
272
     9
273
     9
295
     0
  0
MULTILEADER
  5
10274
330
1F
100
AcDbEntity
  8
0
 62
     0
 48
10.0
160
               536
310
18020000150000000C00000016000000000000C10C00000033000000000000000C00000013000000993A0000C000000026000000BB5F1FBD0CDC6D4048C426659E4791C0000000000000000000000000000000000000000000000000000000000000F03F000000000000F03F4D67E2F1059EB5BC000000000000000042006F
310
00740074006F006D000000000006000000010000000000000000002E40000000000000F03F0000000000000000000000000000F03F00000000000000000000000000000000000000000000000000000000010000000000000041007200690061006C00000000000000000000000C00000033000000000000000C0000001000
310
0000000000000C00000016000000000000C10C00000012000000FF7F00000C00000013000000010000000C00000013000000891300003C000000060000000200000088E328C00B385D40020000201C2A91C00000000000000000E6B3FAB9293D6B40020000201C2A91C000000000000000000C00000013000000122700003C
310
0000000600000002000000E6B3FAB9293D6B40020000201C2A91C00000000000000000E6B3FAB9297D6D40020000201C2A91C000000000000000000C00000016000000000000C10C00000012000000FF7F00000C00000017000000000000000C000000130000009A3A00000C00000016000000000000C10C00000012000000
310
FF7F00000C00000017000000FFFFFFFF0C0000003300000000000000
100
AcDbMLeader
270
     2
300
CONTEXT_DATA{
 40
50.0
 10
235.911343564657
 20
-1098.527465820313
 30
0.0
 41
15.0
140
5000.0
145
4.5
174
     1
175
     1
176
     0
177
     0
290
     1
304
{\fArial|b0|i0|c0|p0;Bottom}
 11
0.0
 21
0.0
 31
1.0
340
11
 12
240.411343564657
 22
-1090.904682737093
 32
0.0
 13
1.0
 23
-0.0000000000000003
 33
0.0
 42
0.0
 43
0.0
 44
0.0
 45
1.0
170
     1
 90
-1056964608
171
     1
172
     5
 91
-1073741824
141
0.0
 92
        0
291
     0
292
     0
173
     0
293
     0
142
0.0
143
0.0
294
     0
295
     0
296
     0
110
366.3349452017648
120
-1098.527465820313
130
0.0
111
1.0
121
-0.0000000000000003
131
0.0
112
0.0000000000000003
122
1.0
132
0.0
297
     0
302
LEADER{
290
     1
291
     1
 10
217.911343564657
 20
-1098.527465820313
 30
0.0
 11
1.0
 21
-0.0000000000000003
 31
0.0
 90
        1
 40
18.0
304
LEADER_LINE{
 10
116.8757172011666
 20
-1098.527465820313
 30
0.0
 91
        0
305
}
271
     0
303
}
272
     9
273
     9
301
}
340
1004E
 90
 17123072
170
     1
 91
-1056964608
341
14
171
    -2
290
     1
291
     1
 41
0.36
342
1025B
 42
100.0
172
     2
343
11
173
     1
 95
        1
174
     1
175
     0
 92
-1056964608
292
     0
 93
-1056964608
 10
1.0
 20
1.0
 30
1.0
 43
0.0
176
     0
293
     0
294
     0
178
     0
179
     1
 45
50.0
271
     0
272
     9
273
     9
295
     0
  0
MULTILEADER
  5
10275
330
1F
100
AcDbEntity
  8
0
 62
     0
 48
10.0
160
               548
310
24020000150000000C00000016000000000000C10C00000033000000000000000C00000013000000993A0000CC00000026000000085F098884F96D4082AA9C80DB047BC0000000000000000000000000000000000000000000000000000000000000F03F000000000000F03F4D67E2F1059EB5BC000000000000000032002D
310
0050006F0063006B0065007400200034006D006D00000000000C000000010000000000000000002E40000000000000F03F0000000000000000000000000000F03F00000000000000000000000000000000000000000000000000000000010000000000000041007200690061006C00000000003300000033330C0000003300
310
0000000000000C00000010000000000000000C00000016000000000000C10C00000012000000FF7F00000C00000013000000010000000C00000013000000891300003C0000000600000002000000E6B3FAB9293D6B40F3214FF6D68D7AC00000000000000000E6B3FAB9293D6B40F3214FF6D68D7AC000000000000000000C
310
00000013000000122700003C0000000600000002000000E6B3FAB9293D6B40F3214FF6D68D7AC00000000000000000E6B3FAB9297D6D40F3214FF6D68D7AC000000000000000000C00000016000000000000C10C00000012000000FF7F00000C00000017000000000000000C000000130000009A3A00000C00000016000000
310
000000C10C00000012000000FF7F00000C00000017000000FFFFFFFF0C0000003300000000000000
100
AcDbMLeader
270
     2
300
CONTEXT_DATA{
 40
50.0
 10
235.9113435646571
 20
-424.8649809924238
 30
0.0
 41
15.0
140
5000.0
145
4.5
174
     1
175
     1
176
     0
177
     0
290
     1
304
{\fArial|b0|i0|c0|p0;2-Pocket 4mm}
 11
0.0
 21
0.0
 31
1.0
340
11
 12
240.411343564657
 22
-417.2421979092041
 32
0.0
 13
1.0
 23
-0.0000000000000003
 33
0.0
 42
0.0
 43
0.0
 44
0.0
 45
1.0
170
     1
 90
-1056964608
171
     1
172
     5
 91
-1073741824
141
0.0
 92
        0
291
     0
292
     0
173
     0
293
     0
142
0.0
143
0.0
294
     0
295
     0
296
     0
110
366.3349452017647
120
-424.864980992424
130
0.0
111
1.0
121
-0.0000000000000003
131
0.0
112
0.0000000000000003
122
1.0
132
0.0
297
     0
302
LEADER{
290
     1
291
     1
 10
217.911343564657
 20
-424.8649809924238
 30
0.0
 11
1.0
 21
-0.0000000000000003
 31
0.0
 90
        1
 40
18.0
304
LEADER_LINE{
 10
217.911343564657
 20
-424.8649809924238
 30
0.0
 91
        0
305
}
271
     0
303
}
272
     9
273
     9
301
}
340
1004E
 90
 17123072
170
     1
 91
-1056964608
341
14
171
    -2
290
     1
291
     1
 41
0.36
342
1025B
 42
100.0
172
     2
343
11
173
     1
 95
        1
174
     1
175
     0
 92
-1056964608
292
     0
 93
-1056964608
 10
1.0
 20
1.0
 30
1.0
 43
0.0
176
     0
293
     0
294
     0
178
     0
179
     1
 45
50.0
271
     0
272
     9
273
     9
295
     0
  0
LWPOLYLINE
  5
1027A
330
1F
100
AcDbEntity
  8
0
  6
Continuous
 62
     2
100
AcDbPolyline
 90
        4
 70
     1
 43
0.0
 10
197.911343564657
 20
-414.8649809924235
 10
217.911343564657
 20
-414.8649809924235
 10
217.911343564657
 20
-434.8649809924237
 10
197.911343564657
 20
-434.8649809924237
  0
MULTILEADER
  5
1027F
330
1F
100
AcDbEntity
  8
0
 62
     0
 48
10.0
160
               548
310
24020000150000000C00000016000000000000C10C00000033000000000000000C00000013000000993A0000CC00000026000000DB53A93601F16D409996A997B1E47CC0000000000000000000000000000000000000000000000000000000000000F03F000000000000F03F4D67E2F1059EB5BC000000000000000033002D
310
0050006F0063006B0065007400200036006D006D00000000000C000000010000000000000000002E40000000000000F03F0000000000000000000000000000F03F00000000000000000000000000000000000000000000000000000000010000000000000041007200690061006C00000000003300000033330C0000003300
310
0000000000000C00000010000000000000000C00000016000000000000C10C00000012000000FF7F00000C00000013000000010000000C00000013000000891300003C0000000600000002000000E6B3FAB9293D6B40F3214FF6D66D7CC00000000000000000E6B3FAB9293D6B40F3214FF6D66D7CC000000000000000000C
310
00000013000000122700003C0000000600000002000000E6B3FAB9293D6B40F3214FF6D66D7CC00000000000000000E6B3FAB9297D6D40F3214FF6D66D7CC000000000000000000C00000016000000000000C10C00000012000000FF7F00000C00000017000000000000000C000000130000009A3A00000C00000016000000
310
000000C10C00000012000000FF7F00000C00000017000000FFFFFFFF0C0000003300000000000000
100
AcDbMLeader
270
     2
300
CONTEXT_DATA{
 40
50.0
 10
235.9113435646571
 20
-454.8649809924238
 30
0.0
 41
15.0
140
5000.0
145
4.5
174
     1
175
     1
176
     0
177
     0
290
     1
304
{\fArial|b0|i0|c0|p0;3-Pocket 6mm}
 11
0.0
 21
0.0
 31
1.0
340
11
 12
240.411343564657
 22
-447.2319659856024
 32
0.0
 13
1.0
 23
-0.0000000000000003
 33
0.0
 42
0.0
 43
0.0
 44
0.0
 45
1.0
170
     1
 90
-1056964608
171
     1
172
     5
 91
-1073741824
141
0.0
 92
        0
291
     0
292
     0
173
     0
293
     0
142
0.0
143
0.0
294
     0
295
     0
296
     0
110
366.3349452017647
120
-454.8649809924238
130
0.0
111
1.0
121
-0.0000000000000003
131
0.0
112
0.0000000000000003
122
1.0
132
0.0
297
     0
302
LEADER{
290
     1
291
     1
 10
217.911343564657
 20
-454.8649809924238
 30
0.0
 11
1.0
 21
-0.0000000000000003
 31
0.0
 90
        1
 40
18.0
304
LEADER_LINE{
 10
217.911343564657
 20
-454.8649809924238
 30
0.0
 91
        0
305
}
271
     0
303
}
272
     9
273
     9
301
}
340
1004E
 90
 17123072
170
     1
 91
-1056964608
341
14
171
    -2
290
     1
291
     1
 41
0.36
342
1025B
 42
100.0
172
     2
343
11
173
     1
 95
        1
174
     1
175
     0
 92
-1056964608
292
     0
 93
-1056964608
 10
1.0
 20
1.0
 30
1.0
 43
0.0
176
     0
293
     0
294
     0
178
     0
179
     1
 45
50.0
271
     0
272
     9
273
     9
295
     0
  0
LWPOLYLINE
  5
10282
330
1F
100
AcDbEntity
  8
0
  6
Continuous
 62
     5
100
AcDbPolyline
 90
        4
 70
     1
 43
0.0
 10
197.911343564657
 20
-444.8649809924236
 10
217.911343564657
 20
-444.8649809924236
 10
217.911343564657
 20
-464.8649809924237
 10
197.911343564657
 20
-464.8649809924237
  0
MULTILEADER
  5
10283
330
1F
100
AcDbEntity
  8
0
 62
     0
 48
10.0
160
               556
310
2C020000150000000C00000016000000000000C10C00000033000000000000000C00000013000000993A0000D400000026000000B9A89A68A6046E40F1DFAF5D8FA27EC0000000000000000000000000000000000000000000000000000000000000F03F000000000000F03F4D67E2F1059EB5BC000000000000000034002D
310
0050006F0063006B006500740020007400680072006F007500670068000000000010000000010000000000000000002E40000000000000F03F0000000000000000000000000000F03F00000000000000000000000000000000000000000000000000000000010000000000000041007200690061006C00000000000E000000
310
00000C00000033000000000000000C00000010000000000000000C00000016000000000000C10C00000012000000FF7F00000C00000013000000010000000C00000013000000891300003C0000000600000002000000E6B3FAB9293D6B40F3214FF6D64D7EC00000000000000000E6B3FAB9293D6B40F3214FF6D64D7EC000
310
000000000000000C00000013000000122700003C0000000600000002000000E6B3FAB9293D6B40F3214FF6D64D7EC00000000000000000E6B3FAB9297D6D40F3214FF6D64D7EC000000000000000000C00000016000000000000C10C00000012000000FF7F00000C00000017000000000000000C000000130000009A3A0000
310
0C00000016000000000000C10C00000012000000FF7F00000C00000017000000FFFFFFFF0C0000003300000000000000
100
AcDbMLeader
270
     2
300
CONTEXT_DATA{
 40
50.0
 10
235.9113435646571
 20
-484.8649809924237
 30
0.0
 41
15.0
140
5000.0
145
4.5
174
     1
175
     1
176
     0
177
     0
290
     1
304
{\fArial|b0|i0|c0|p0;4-Pocket through}
 11
0.0
 21
0.0
 31
1.0
340
11
 12
240.411343564657
 22
-475.1600014562709
 32
0.0
 13
1.0
 23
-0.0000000000000003
 33
0.0
 42
0.0
 43
0.0
 44
0.0
 45
1.0
170
     1
 90
-1056964608
171
     1
172
     5
 91
-1073741824
141
0.0
 92
        0
291
     0
292
     0
173
     0
293
     0
142
0.0
143
0.0
294
     0
295
     0
296
     0
110
366.3349452017647
120
-484.8649809924238
130
0.0
111
1.0
121
-0.0000000000000003
131
0.0
112
0.0000000000000003
122
1.0
132
0.0
297
     0
302
LEADER{
290
     1
291
     1
 10
217.911343564657
 20
-484.8649809924237
 30
0.0
 11
1.0
 21
-0.0000000000000003
 31
0.0
 90
        1
 40
18.0
304
LEADER_LINE{
 10
217.911343564657
 20
-484.8649809924237
 30
0.0
 91
        0
305
}
271
     0
303
}
272
     9
273
     9
301
}
340
1004E
 90
 17123072
170
     1
 91
-1056964608
341
14
171
    -2
290
     1
291
     1
 41
0.36
342
1025B
 42
100.0
172
     2
343
11
173
     1
 95
        1
174
     1
175
     0
 92
-1056964608
292
     0
 93
-1056964608
 10
1.0
 20
1.0
 30
1.0
 43
0.0
176
     0
293
     0
294
     0
178
     0
179
     1
 45
50.0
271
     0
272
     9
273
     9
295
     0
  0
LWPOLYLINE
  5
10286
330
1F
100
AcDbEntity
  8
0
  6
Continuous
 62
     6
100
AcDbPolyline
 90
        4
 70
     1
 43
0.0
 10
197.911343564657
 20
-474.8649809924236
 10
217.911343564657
 20
-474.8649809924236
 10
217.911343564657
 20
-494.8649809924238
 10
197.911343564657
 20
-494.8649809924238
  0
MULTILEADER
  5
10287
330
1F
100
AcDbEntity
  8
0
 62
     0
 48
10.0
160
               540
310
1C020000150000000C00000016000000000000C10C00000033000000000000000C00000013000000993A0000C400000026000000AB7B8F0855F16D405957905F065480C0000000000000000000000000000000000000000000000000000000000000F03F000000000000F03F4D67E2F1059EB5BC000000000000000035002D
310
004F00750074006300750074000000360008000000010000000000000000002E40000000000000F03F0000000000000000000000000000F03F00000000000000000000000000000000000000000000000000000000010000000000000041007200690061006C00000000006100000000000C00000033000000000000000C00
310
000010000000000000000C00000016000000000000C10C00000012000000FF7F00000C00000013000000010000000C00000013000000891300003C0000000600000002000000E6B3FAB9293D6B40F990277BEB1680C00000000000000000E6B3FAB9293D6B40F990277BEB1680C000000000000000000C0000001300000012
310
2700003C0000000600000002000000E6B3FAB9293D6B40F990277BEB1680C00000000000000000E6B3FAB9297D6D40F990277BEB1680C000000000000000000C00000016000000000000C10C00000012000000FF7F00000C00000017000000000000000C000000130000009A3A00000C00000016000000000000C10C000000
310
12000000FF7F00000C00000017000000FFFFFFFF0C0000003300000000000000
100
AcDbMLeader
270
     2
300
CONTEXT_DATA{
 40
50.0
 10
235.911343564657
 20
-514.8649809924237
 30
0.0
 41
15.0
140
5000.0
145
4.5
174
     1
175
     1
176
     0
177
     0
290
     1
304
{\fArial|b0|i0|c0|p0;5-Outcut}
 11
0.0
 21
0.0
 31
1.0
340
11
 12
240.411343564657
 22
-507.2370819474033
 32
0.0
 13
1.0
 23
-0.0000000000000003
 33
0.0
 42
0.0
 43
0.0
 44
0.0
 45
1.0
170
     1
 90
-1056964608
171
     1
172
     5
 91
-1073741824
141
0.0
 92
        0
291
     0
292
     0
173
     0
293
     0
142
0.0
143
0.0
294
     0
295
     0
296
     0
110
366.3349452017647
120
-514.8649809924238
130
0.0
111
1.0
121
-0.0000000000000003
131
0.0
112
0.0000000000000003
122
1.0
132
0.0
297
     0
302
LEADER{
290
     1
291
     1
 10
217.911343564657
 20
-514.8649809924237
 30
0.0
 11
1.0
 21
-0.0000000000000003
 31
0.0
 90
        1
 40
18.0
304
LEADER_LINE{
 10
217.911343564657
 20
-514.8649809924237
 30
0.0
 91
        0
305
}
271
     0
303
}
272
     9
273
     9
301
}
340
1004E
 90
 17123072
170
     1
 91
-1056964608
341
14
171
    -2
290
     1
291
     1
 41
0.36
342
1025B
 42
100.0
172
     2
343
11
173
     1
 95
        1
174
     1
175
     0
 92
-1056964608
292
     0
 93
-1056964608
 10
1.0
 20
1.0
 30
1.0
 43
0.0
176
     0
293
     0
294
     0
178
     0
179
     1
 45
50.0
271
     0
272
     9
273
     9
295
     0
  0
LWPOLYLINE
  5
1028A
330
1F
100
AcDbEntity
  8
0
  6
Continuous
 62
     1
100
AcDbPolyline
 90
        4
 70
     1
 43
0.0
 10
197.9113435646569
 20
-504.8649809924236
 10
217.911343564657
 20
-504.8649809924236
 10
217.911343564657
 20
-524.8649809924237
 10
197.9113435646569
 20
-524.8649809924237
  0
MULTILEADER
  5
1028B
330
1F
100
AcDbEntity
  8
0
 62
     0
 48
10.0
160
               548
310
24020000150000000C00000016000000000000C10C00000033000000000000000C00000013000000993A0000CC00000026000000BB5F1FBD0CDC6D40F8EFD7AE473181C0000000000000000000000000000000000000000000000000000000000000F03F000000000000F03F4D67E2F1059EB5BC000000000000000042006F
310
0075006E00640069006E006700200062006F007800000000000C000000010000000000000000002E40000000000000F03F0000000000000000000000000000F03F00000000000000000000000000000000000000000000000000000000010000000000000041007200690061006C00000000003300000033330C0000003300
310
0000000000000C00000010000000000000000C00000016000000000000C10C00000012000000FF7F00000C00000013000000010000000C00000013000000891300003C0000000600000002000000E6B3FAB9293D6B40F990277BEB0681C00000000000000000E6B3FAB9293D6B40F990277BEB0681C000000000000000000C
310
00000013000000122700003C0000000600000002000000E6B3FAB9293D6B40F990277BEB0681C00000000000000000E6B3FAB9297D6D40F990277BEB0681C000000000000000000C00000016000000000000C10C00000012000000FF7F00000C00000017000000000000000C000000130000009A3A00000C00000016000000
310
000000C10C00000012000000FF7F00000C00000017000000FFFFFFFF0C0000003300000000000000
100
AcDbMLeader
270
     2
300
CONTEXT_DATA{
 40
50.0
 10
235.911343564657
 20
-544.8649809924237
 30
0.0
 41
15.0
140
5000.0
145
4.5
174
     1
175
     1
176
     0
177
     0
290
     1
304
{\fArial|b0|i0|c0|p0;Bounding box}
 11
0.0
 21
0.0
 31
1.0
340
11
 12
240.411343564657
 22
-535.1600014562709
 32
0.0
 13
1.0
 23
-0.0000000000000003
 33
0.0
 42
0.0
 43
0.0
 44
0.0
 45
1.0
170
     1
 90
-1056964608
171
     1
172
     5
 91
-1073741824
141
0.0
 92
        0
291
     0
292
     0
173
     0
293
     0
142
0.0
143
0.0
294
     0
295
     0
296
     0
110
366.3349452017647
120
-544.864980992424
130
0.0
111
1.0
121
-0.0000000000000003
131
0.0
112
0.0000000000000003
122
1.0
132
0.0
297
     0
302
LEADER{
290
     1
291
     1
 10
217.911343564657
 20
-544.8649809924237
 30
0.0
 11
1.0
 21
-0.0000000000000003
 31
0.0
 90
        1
 40
18.0
304
LEADER_LINE{
 10
217.911343564657
 20
-544.8649809924237
 30
0.0
 91
        0
305
}
271
     0
303
}
272
     9
273
     9
301
}
340
1004E
 90
 17123072
170
     1
 91
-1056964608
341
14
171
    -2
290
     1
291
     1
 41
0.36
342
1025B
 42
100.0
172
     2
343
11
173
     1
 95
        1
174
     1
175
     0
 92
-1056964608
292
     0
 93
-1056964608
 10
1.0
 20
1.0
 30
1.0
 43
0.0
176
     0
293
     0
294
     0
178
     0
179
     1
 45
50.0
271
     0
272
     9
273
     9
295
     0
  0
LWPOLYLINE
  5
1028E
330
1F
100
AcDbEntity
  8
0
  6
Continuous
 62
     8
100
AcDbPolyline
 90
        4
 70
     1
 43
0.0
 10
197.9113435646569
 20
-534.8649809924236
 10
217.911343564657
 20
-534.8649809924236
 10
217.911343564657
 20
-554.8649809924237
 10
197.9113435646569
 20
-554.8649809924237
  0
MULTILEADER
  5
1028F
330
1F
100
AcDbEntity
  8
0
 62
     0
 48
10.0
160
               540
310
1C020000150000000C00000016000000000000C10C00000033000000000000000C00000013000000993A0000C40000002600000046057EE225C46D40CB9A2DD6E22779C0000000000000000000000000000000000000000000000000000000000000F03F000000000000F03F4D67E2F1059EB5BC000000000000000031002D
310
005300630072006500770073000000620008000000010000000000000000002E40000000000000F03F0000000000000000000000000000F03F00000000000000000000000000000000000000000000000000000000010000000000000041007200690061006C00000000006100000000000C00000033000000000000000C00
310
000010000000000000000C00000016000000000000C10C00000012000000FF7F00000C00000013000000010000000C00000013000000891300003C0000000600000002000000E6B3FAB9293D6B40F3214FF6D6AD78C00000000000000000E6B3FAB9293D6B40F3214FF6D6AD78C000000000000000000C0000001300000012
310
2700003C0000000600000002000000E6B3FAB9293D6B40F3214FF6D6AD78C00000000000000000E6B3FAB9297D6D40F3214FF6D6AD78C000000000000000000C00000016000000000000C10C00000012000000FF7F00000C00000017000000000000000C000000130000009A3A00000C00000016000000000000C10C000000
310
12000000FF7F00000C00000017000000FFFFFFFF0C0000003300000000000000
100
AcDbMLeader
270
     2
300
CONTEXT_DATA{
 40
50.0
 10
235.911343564657
 20
-394.8649809924238
 30
0.0
 41
15.0
140
5000.0
145
4.5
174
     1
175
     1
176
     0
177
     0
290
     1
304
{\fArial|b0|i0|c0|p0;1-Screws}
 11
0.0
 21
0.0
 31
1.0
340
11
 12
240.411343564657
 22
-387.2370819474034
 32
0.0
 13
1.0
 23
-0.0000000000000003
 33
0.0
 42
0.0
 43
0.0
 44
0.0
 45
1.0
170
     1
 90
-1056964608
171
     1
172
     5
 91
-1073741824
141
0.0
 92
        0
291
     0
292
     0
173
     0
293
     0
142
0.0
143
0.0
294
     0
295
     0
296
     0
110
366.3349452017647
120
-394.864980992424
130
0.0
111
1.0
121
-0.0000000000000003
131
0.0
112
0.0000000000000003
122
1.0
132
0.0
297
     0
302
LEADER{
290
     1
291
     1
 10
217.911343564657
 20
-394.8649809924238
 30
0.0
 11
1.0
 21
-0.0000000000000003
 31
0.0
 90
        1
 40
18.0
304
LEADER_LINE{
 10
217.911343564657
 20
-394.8649809924238
 30
0.0
 91
        0
305
}
271
     0
303
}
272
     9
273
     9
301
}
340
1004E
 90
 17123072
170
     1
 91
-1056964608
341
14
171
    -2
290
     1
291
     1
 41
0.36
342
1025B
 42
100.0
172
     2
343
11
173
     1
 95
        1
174
     1
175
     0
 92
-1056964608
292
     0
 93
-1056964608
 10
1.0
 20
1.0
 30
1.0
 43
0.0
176
     0
293
     0
294
     0
178
     0
179
     1
 45
50.0
271
     0
272
     9
273
     9
295
     0
  0
LWPOLYLINE
  5
10292
330
1F
100
AcDbEntity
  8
0
  6
Continuous
100
AcDbPolyline
 90
        4
 70
     1
 43
0.0
 10
197.9113435646569
 20
-384.8649809924236
 10
217.911343564657
 20
-384.8649809924236
 10
217.911343564657
 20
-404.8649809924238
 10
197.9113435646569
 20
-404.8649809924238
  0
LINE
  5
102AC
330
1F
100
AcDbEntity
  8
0
  6
Continuous
100
AcDbLine
 10
-199.0000152582503
 20
-1509.459970179451
 30
0.0
 11
-199.0000152582503
 21
-1469.459970179451
 31
0.0
  0
LINE
  5
102AD
330
1F
100
AcDbEntity
  8
0
  6
Continuous
100
AcDbLine
 10
-199.0000152582503
 20
-1509.459970179451
 30
0.0
 11
-159.0000152582503
 21
-1509.459970179451
 31
0.0
  0
LINE
  5
102AE
330
1F
100
AcDbEntity
  8
0
  6
Continuous
100
AcDbLine
 10
-159.0000152582503
 20
-1509.459970179451
 30
0.0
 11
-167.6602692960947
 21
-1504.459970179451
 31
0.0
  0
LINE
  5
102AF
330
1F
100
AcDbEntity
  8
0
  6
Continuous
100
AcDbLine
 10
-159.0000152582503
 20
-1509.459970179451
 30
0.0
 11
-167.6602692960947
 21
-1514.459970179451
 31
0.0
  0
LINE
  5
102B0
330
1F
100
AcDbEntity
  8
0
  6
Continuous
100
AcDbLine
 10
-199.0000152582503
 20
-1469.459970179451
 30
0.0
 11
-204.0000152582503
 21
-1478.120224217296
 31
0.0
  0
LINE
  5
102B1
330
1F
100
AcDbEntity
  8
0
  6
Continuous
100
AcDbLine
 10
-199.0000152582503
 20
-1469.459970179451
 30
0.0
 11
-194.0000152582502
 21
-1478.120224217296
 31
0.0
  0
LWPOLYLINE
  5
102B2
330
1F
100
AcDbEntity
  8
0
  6
Continuous
100
AcDbPolyline
 90
        4
 70
     1
 43
0.0
 10
-204.0000152582503
 20
-1504.459970179451
 10
-194.0000152582503
 20
-1504.459970179451
 10
-194.0000152582503
 20
-1514.459970179451
 10
-204.0000152582503
 20
-1514.459970179451
  0
MTEXT
  5
102B3
330
1F
100
AcDbEntity
  8
0
  6
Continuous
100
AcDbMText
 10
-222.8011095288366
 20
-1484.604988538342
 30
0.0
 40
15.0
 41
18.12323519920755
 46
0.0
 71
     1
 72
     5
  1
{\fArial|b0|i0|c0|p0;Y}
 73
     1
 44
1.0
101
Embedded Object
 70
     1
 10
1.0
 20
0.0
 30
0.0
 11
-222.8011095288366
 21
-1484.604988538342
 31
0.0
 40
18.12323519920755
 41
0.0
 42
13.75170532060027
 43
15.0
 71
     2
 72
     1
 44
18.12323519920755
 45
1.0
 73
     0
 74
     0
 46
0.0
  0
MTEXT
  5
102B9
330
1F
100
AcDbEntity
  8
0
  6
Continuous
100
AcDbMText
 10
-183.9634905489146
 20
-1518.577391168408
 30
0.0
 40
15.0
 41
18.12323519920755
 46
0.0
 71
     1
 72
     5
  1
{\fArial|b0|i0|c0|p0;X}
 73
     1
 44
1.0
101
Embedded Object
 70
     1
 10
1.0
 20
0.0
 30
0.0
 11
-183.9634905489146
 21
-1518.577391168408
 31
0.0
 40
18.12323519920755
 41
0.0
 42
13.75170532060027
 43
15.0
 71
     2
 72
     1
 44
18.12323519920755
 45
1.0
 73
     0
 74
     0
 46
0.0
  0
VIEWPORT
  5
10239
102
{ACAD_XDICTIONARY
360
1023A
102
}
330
1B
100
AcDbEntity
 67
     1
  8
0
  6
Continuous
348
10023
100
AcDbViewport
 10
2.834917862033369
 20
3.959344894387308
 30
0.0
 40
12.77010024878268
 41
8.852948395820337
 68
     1
 69
     1
 12
2.834917862033369
 22
3.959344894387308
 13
0.0
 23
0.0
 14
10.0
 24
10.0
 15
10.0
 25
10.0
 16
0.0
 26
0.0
 36
1.0
 17
0.0
 27
0.0
 37
0.0
 42
50.0
 43
0.0
 44
0.0
 45
8.852948395820337
 50
0.0
 51
0.0
 72
  1000
 90
   557088
  1

281
     0
 71
     1
 74
     0
110
0.0
120
0.0
130
0.0
111
1.0
121
0.0
131
0.0
112
0.0
122
1.0
132
0.0
 79
     0
146
0.0
170
     0
 61
     5
292
     1
282
     1
141
0.0
142
0.0
 63
   250
421
  3355443
  0
VIEWPORT
  5
1023D
102
{ACAD_XDICTIONARY
360
1023E
102
}
330
1B
100
AcDbEntity
 67
     1
  8
0
  6
Continuous
348
10023
100
AcDbViewport
 10
5.206925231676363
 20
3.960229125149431
 30
0.0
 40
10.49839048661688
 41
8.069657477149171
 68
     2
 69
     2
 12
438.4428401779316
 22
-954.3225664208032
 13
0.0
 23
0.0
 14
1.0
 24
1.0
 15
0.0
 25
0.0
 16
0.0
 26
0.0
 36
1.0
 17
0.0
 27
0.0
 37
0.0
 42
50.0
 43
0.0
 44
0.0
 45
1269.688894814744
 50
0.0
 51
0.0
 72
  1000
 90
   557152
  1

281
     0
 71
     1
 74
     0
110
0.0
120
0.0
130
0.0
111
1.0
121
0.0
131
0.0
112
0.0
122
1.0
132
0.0
 79
     0
146
0.0
170
     0
 61
     5
292
     1
282
     1
141
0.0
142
0.0
 63
   250
421
  3355443
  0
ENDSEC
  0
SECTION
  2
OBJECTS
  0
DICTIONARY
  5
C
330
0
100
AcDbDictionary
281
     1
  3
ACAD_CIP_PREVIOUS_PRODUCT_INFO
350
1005A
  3
ACAD_COLOR
350
10036
  3
ACAD_DETAILVIEWSTYLE
350
10051
  3
ACAD_GROUP
350
D
  3
ACAD_IMAGE_VARS
350
102D1
  3
ACAD_LAYOUT
350
10037
  3
ACAD_MATERIAL
350
10004
  3
ACAD_MLEADERSTYLE
350
1004D
  3
ACAD_MLINESTYLE
350
17
  3
ACAD_PLOTSETTINGS
350
10054
  3
ACAD_PLOTSTYLENAME
350
10002
  3
ACAD_SCALELIST
350
1003B
  3
ACAD_SECTIONVIEWSTYLE
350
1004F
  3
ACAD_TABLESTYLE
350
10038
  3
ACAD_VISUALSTYLE
350
1001D
  3
ACDB_RECOMPOSE_DATA
350
10435
  3
AcDbVariableDictionary
350
1020F
  0
DICTIONARY
  5
1006D
330
2
100
AcDbDictionary
280
     1
281
     1
  3
ACAD_LAYERSTATES
360
1006E
  0
DICTIONARY
  5
101F1
330
50
100
AcDbDictionary
280
     1
281
     1
  3
ADSK_XREC_LAYER_RECONCILED
360
101F2
  0
DICTIONARY
  5
10063
330
10062
100
AcDbDictionary
280
     1
281
     1
  3
ADSK_XREC_LAYER_RECONCILED
360
101F3
  0
DICTIONARY
  5
10065
330
10064
100
AcDbDictionary
280
     1
281
     1
  3
ADSK_XREC_LAYER_RECONCILED
360
101F4
  0
DICTIONARY
  5
10067
330
10066
100
AcDbDictionary
280
     1
281
     1
  3
ADSK_XREC_LAYER_RECONCILED
360
101F5
  0
DICTIONARY
  5
10069
330
10068
100
AcDbDictionary
280
     1
281
     1
  3
ADSK_XREC_LAYER_RECONCILED
360
101F6
  0
DICTIONARY
  5
1023A
330
10239
100
AcDbDictionary
280
     1
281
     1
  3
ASDK_XREC_ANNOTATION_SCALE_INFO
360
1023B
  0
DICTIONARY
  5
1023E
330
1023D
100
AcDbDictionary
280
     1
281
     1
  3
ASDK_XREC_ANNOTATION_SCALE_INFO
360
1023F
  0
XRECORD
  5
1005A
102
{ACAD_REACTORS
330
C
102
}
330
C
100
AcDbXrecord
280
     1
300
ACDLTM
300
2020
300

  0
DICTIONARY
  5
10036
102
{ACAD_REACTORS
330
C
102
}
330
C
100
AcDbDictionary
281
     1
  0
DICTIONARY
  5
10051
102
{ACAD_REACTORS
330
C
102
}
330
C
100
AcDbDictionary
281
     1
  3
Imperial24
350
10052
  0
DICTIONARY
  5
D
330
C
100
AcDbDictionary
281
     1
  0
RASTERVARIABLES
  5
102D1
102
{ACAD_REACTORS
330
C
102
}
330
C
100
AcDbRasterVariables
 90
        0
 70
     1
 71
     1
 72
     1
  0
DICTIONARY
  5
10037
102
{ACAD_REACTORS
330
C
102
}
330
C
100
AcDbDictionary
281
     1
  3
Model
350
10055
  3
Prsentation1
350
10056
  0
DICTIONARY
  5
10004
102
{ACAD_REACTORS
330
C
102
}
330
C
100
AcDbDictionary
281
     1
  3
ByBlock
350
1000D
  3
ByLayer
350
10005
  3
Global
350
10015
  0
DICTIONARY
  5
1004D
102
{ACAD_REACTORS
330
C
102
}
330
C
100
AcDbDictionary
281
     1
  3
Standard
350
1004E
  0
DICTIONARY
  5
17
330
C
100
AcDbDictionary
281
     1
  3
Standard
350
1003A
  0
DICTIONARY
  5
10054
102
{ACAD_REACTORS
330
C
102
}
330
C
100
AcDbDictionary
281
     1
  0
ACDBDICTIONARYWDFLT
  5
10002
102
{ACAD_REACTORS
330
C
102
}
330
C
100
AcDbDictionary
281
     1
  3
Normal
350
10003
100
AcDbDictionaryWithDefault
340
10003
  0
DICTIONARY
  5
1003B
102
{ACAD_REACTORS
330
C
102
}
330
C
100
AcDbDictionary
281
     1
  3
A0
350
1003C
  3
A1
350
1003D
  3
A2
350
1003E
  3
A3
350
1003F
  3
A4
350
10040
  3
A5
350
10041
  3
A6
350
10042
  3
A7
350
10043
  3
A8
350
10044
  3
A9
350
10045
  3
B0
350
10046
  3
B1
350
10047
  3
B2
350
10048
  3
B3
350
10049
  3
B4
350
1004A
  3
B5
350
1004B
  3
B6
350
1004C
  0
DICTIONARY
  5
1004F
102
{ACAD_REACTORS
330
C
102
}
330
C
100
AcDbDictionary
281
     1
  3
Imperial24
350
10050
  0
DICTIONARY
  5
10038
102
{ACAD_REACTORS
330
C
102
}
330
C
100
AcDbDictionary
281
     1
  3
Standard
350
10039
  0
DICTIONARY
  5
1001D
102
{ACAD_REACTORS
330
C
102
}
330
C
100
AcDbDictionary
281
     1
  3
2dWireframe
350
10023
  3
Basic
350
10022
  3
Brighten
350
10029
  3
ColorChange
350
1002D
  3
Conceptual
350
10026
  3
Dim
350
10028
  3
EdgeColorOff
350
10035
  3
Facepattern
350
1002C
  3
Flat
350
1001E
  3
FlatWithEdges
350
1001F
  3
Gouraud
350
10020
  3
GouraudWithEdges
350
10021
  3
Hidden
350
10025
  3
JitterOff
350
10033
  3
Linepattern
350
1002B
  3
OverhangOff
350
10034
  3
Realistic
350
10027
  3
Shaded
350
10032
  3
Shaded with edges
350
10031
  3
Shades of Gray
350
1002E
  3
Sketchy
350
1002F
  3
Thicken
350
1002A
  3
Wireframe
350
10024
  3
X-Ray
350
10030
  0
XRECORD
  5
10435
102
{ACAD_REACTORS
330
C
102
}
330
C
100
AcDbXrecord
280
     1
 90
        1
330
10039
  0
DICTIONARY
  5
1020F
102
{ACAD_REACTORS
330
C
102
}
330
C
100
AcDbDictionary
281
     1
  3
CANNOSCALE
350
10215
  3
CMLEADERSTYLE
350
10211
  3
CTABLESTYLE
350
10210
  3
CVIEWDETAILSTYLE
350
10212
  3
CVIEWSECTIONSTYLE
350
10213
  3
LAYEREVAL
350
10217
  3
LAYERNOTIFY
350
10218
  3
LIGHTINGUNITS
350
10216
  3
MSLTSCALE
350
10214
  0
DICTIONARY
  5
1006E
102
{ACAD_REACTORS
330
1006D
102
}
330
1006D
100
AcDbDictionary
281
     1
  0
XRECORD
  5
101F2
102
{ACAD_REACTORS
330
101F1
102
}
330
101F1
100
AcDbXrecord
280
     1
290
     1
  0
XRECORD
  5
101F3
102
{ACAD_REACTORS
330
10063
102
}
330
10063
100
AcDbXrecord
280
     1
290
     1
  0
XRECORD
  5
101F4
102
{ACAD_REACTORS
330
10065
102
}
330
10065
100
AcDbXrecord
280
     1
290
     1
  0
XRECORD
  5
101F5
102
{ACAD_REACTORS
330
10067
102
}
330
10067
100
AcDbXrecord
280
     1
290
     1
  0
XRECORD
  5
101F6
102
{ACAD_REACTORS
330
10069
102
}
330
10069
100
AcDbXrecord
280
     1
290
     1
  0
XRECORD
  5
1023B
102
{ACAD_REACTORS
330
1023A
102
}
330
1023A
100
AcDbXrecord
280
     1
 90
        1
340
1003C
  0
XRECORD
  5
1023F
102
{ACAD_REACTORS
330
1023E
102
}
330
1023E
100
AcDbXrecord
280
     1
 90
        1
340
1003C
  0
ACDBDETAILVIEWSTYLE
  5
10052
102
{ACAD_REACTORS
330
10051
102
}
330
10051
100
AcDbModelDocViewStyle
 70
     0
  3
Imperial24
290
     0
300
Imperial24
 90
        0
100
AcDbDetailViewStyle
 70
     0
 71
     0
 90
        3
 71
     1
340
11
 62
   256
 40
0.24
340
0
 62
   256
 40
0.24
300

 40
0.36
280
     3
 71
     2
340
0
 90
       25
 62
   256
 71
     3
340
11
 62
   256
 40
0.24
 90
        1
 40
0.75
 90
        1
300
%<\AcVar ViewType \f "%tc1">% %<\AcVar ViewDetailId>%\PECHELLE %<\AcVar ViewScale \f "%sn">%
 71
     4
340
0
 90
       25
 62
   256
340
0
 90
       25
 62
   256
280
     0
  0
LAYOUT
  5
10055
102
{ACAD_REACTORS
330
10037
102
}
330
10037
100
AcDbPlotSettings
  1

  2

  4

  6

 40
0.0
 41
0.0
 42
0.0
 43
0.0
 44
0.0
 45
0.0
 46
0.0
 47
0.0
 48
0.0
 49
0.0
140
0.0
141
0.0
142
1.0
143
1.0
 70
  1712
 72
     0
 73
     0
 74
     0
  7

 75
     0
147
1.0
 76
     0
 77
     2
 78
   300
148
0.0
149
0.0
100
AcDbLayout
  1
Model
 70
     1
 71
     0
 10
0.0
 20
0.0
 11
12.0
 21
9.0
 12
0.0
 22
0.0
 32
0.0
 14
0.0
 24
0.0
 34
0.0
 15
0.0
 25
0.0
 35
0.0
146
0.0
 13
0.0
 23
0.0
 33
0.0
 16
1.0
 26
0.0
 36
0.0
 17
0.0
 27
1.0
 37
0.0
 76
     0
330
1F
331
10059
  0
LAYOUT
  5
10056
102
{ACAD_REACTORS
330
10037
102
}
330
10037
100
AcDbPlotSettings
  1

  2
Canon MG5500 series
  4
iso-a4
  6

 40
3.400001764297484
 41
5.0
 42
3.399993896484375
 43
5.000030517578125
 44
210.0
 45
297.0000305175781
 46
0.0
 47
0.0
 48
-0.0422700116320769
 49
-0.0745996134251534
140
5.206925231676363
141
7.995057863724016
142
1.0
143
0.0281172734395442
 70
   688
 72
     1
 73
     0
 74
     4
  7

 75
     0
147
35.56532613840144
 76
     0
 77
     2
 78
   300
148
0.0422700116320769
149
0.0745996134251534
100
AcDbLayout
  1
Prsentation1
 70
     1
 71
     1
 10
-0.1378687909337618
 20
-0.2151859806228741
 11
5.766758631370509
 21
8.135645088992827
 12
0.0
 22
0.0
 32
0.0
 14
-0.0430452629098532
 24
-0.0751647761157237
 34
-0.0015258207003583
 15
10.45660355499354
 25
7.995399265248181
 35
0.0000000349246037
146
0.0
 13
0.0
 23
0.0
 33
0.0
 16
1.0
 26
0.0
 36
0.0
 17
0.0
 27
1.0
 37
0.0
 76
     0
330
1B
331
10239
1001
ACAD_PSEXT
1000
Canon MG5500 series
1000
Canon MG5500 series-AirPrint
1000
localhost
1000

1070
     0
  0
MATERIAL
  5
1000D
102
{ACAD_XDICTIONARY
360
1000E
102
}
102
{ACAD_REACTORS
330
10004
102
}
330
10004
100
AcDbMaterial
  1
ByBlock
 72
     0
 43
0.0008202099737533
 43
0.0
 43
0.0
 43
0.0
 43
0.0
 43
0.0008202099737533
 43
0.0
 43
0.0
 43
0.0
 43
0.0
 43
1.0
 43
0.0
 43
0.0
 43
0.0
 43
0.0
 43
1.0
 77
     0
 47
0.0008202099737533
 47
0.0
 47
0.0
 47
0.0
 47
0.0
 47
0.0008202099737533
 47
0.0
 47
0.0
 47
0.0
 47
0.0
 47
1.0
 47
0.0
 47
0.0
 47
0.0
 47
0.0
 47
1.0
171
     0
 49
0.0008202099737533
 49
0.0
 49
0.0
 49
0.0
 49
0.0
 49
0.0008202099737533
 49
0.0
 49
0.0
 49
0.0
 49
0.0
 49
1.0
 49
0.0
 49
0.0
 49
0.0
 49
0.0
 49
1.0
175
     0
142
0.0008202099737533
142
0.0
142
0.0
142
0.0
142
0.0
142
0.0008202099737533
142
0.0
142
0.0
142
0.0
142
0.0
142
1.0
142
0.0
142
0.0
142
0.0
142
0.0
142
1.0
179
     0
144
0.0008202099737533
144
0.0
144
0.0
144
0.0
144
0.0
144
0.0008202099737533
144
0.0
144
0.0
144
0.0
144
0.0
144
1.0
144
0.0
144
0.0
144
0.0
144
0.0
144
1.0
147
0.0008202099737533
147
0.0
147
0.0
147
0.0
147
0.0
147
0.0008202099737533
147
0.0
147
0.0
147
0.0
147
0.0
147
1.0
147
0.0
147
0.0
147
0.0
147
0.0
147
1.0
  0
MATERIAL
  5
10005
102
{ACAD_XDICTIONARY
360
10006
102
}
102
{ACAD_REACTORS
330
10004
102
}
330
10004
100
AcDbMaterial
  1
ByLayer
 72
     0
 43
0.0008202099737533
 43
0.0
 43
0.0
 43
0.0
 43
0.0
 43
0.0008202099737533
 43
0.0
 43
0.0
 43
0.0
 43
0.0
 43
1.0
 43
0.0
 43
0.0
 43
0.0
 43
0.0
 43
1.0
 77
     0
 47
0.0008202099737533
 47
0.0
 47
0.0
 47
0.0
 47
0.0
 47
0.0008202099737533
 47
0.0
 47
0.0
 47
0.0
 47
0.0
 47
1.0
 47
0.0
 47
0.0
 47
0.0
 47
0.0
 47
1.0
171
     0
 49
0.0008202099737533
 49
0.0
 49
0.0
 49
0.0
 49
0.0
 49
0.0008202099737533
 49
0.0
 49
0.0
 49
0.0
 49
0.0
 49
1.0
 49
0.0
 49
0.0
 49
0.0
 49
0.0
 49
1.0
175
     0
142
0.0008202099737533
142
0.0
142
0.0
142
0.0
142
0.0
142
0.0008202099737533
142
0.0
142
0.0
142
0.0
142
0.0
142
1.0
142
0.0
142
0.0
142
0.0
142
0.0
142
1.0
179
     0
144
0.0008202099737533
144
0.0
144
0.0
144
0.0
144
0.0
144
0.0008202099737533
144
0.0
144
0.0
144
0.0
144
0.0
144
1.0
144
0.0
144
0.0
144
0.0
144
0.0
144
1.0
147
0.0008202099737533
147
0.0
147
0.0
147
0.0
147
0.0
147
0.0008202099737533
147
0.0
147
0.0
147
0.0
147
0.0
147
1.0
147
0.0
147
0.0
147
0.0
147
0.0
147
1.0
  0
MATERIAL
  5
10015
102
{ACAD_XDICTIONARY
360
10016
102
}
102
{ACAD_REACTORS
330
10004
102
}
330
10004
100
AcDbMaterial
  1
Global
 72
     0
 43
0.0008202099737533
 43
0.0
 43
0.0
 43
0.0
 43
0.0
 43
0.0008202099737533
 43
0.0
 43
0.0
 43
0.0
 43
0.0
 43
1.0
 43
0.0
 43
0.0
 43
0.0
 43
0.0
 43
1.0
 77
     0
 47
0.0008202099737533
 47
0.0
 47
0.0
 47
0.0
 47
0.0
 47
0.0008202099737533
 47
0.0
 47
0.0
 47
0.0
 47
0.0
 47
1.0
 47
0.0
 47
0.0
 47
0.0
 47
0.0
 47
1.0
171
     0
 49
0.0008202099737533
 49
0.0
 49
0.0
 49
0.0
 49
0.0
 49
0.0008202099737533
 49
0.0
 49
0.0
 49
0.0
 49
0.0
 49
1.0
 49
0.0
 49
0.0
 49
0.0
 49
0.0
 49
1.0
175
     0
142
0.0008202099737533
142
0.0
142
0.0
142
0.0
142
0.0
142
0.0008202099737533
142
0.0
142
0.0
142
0.0
142
0.0
142
1.0
142
0.0
142
0.0
142
0.0
142
0.0
142
1.0
179
     0
144
0.0008202099737533
144
0.0
144
0.0
144
0.0
144
0.0
144
0.0008202099737533
144
0.0
144
0.0
144
0.0
144
0.0
144
1.0
144
0.0
144
0.0
144
0.0
144
0.0
144
1.0
147
0.0008202099737533
147
0.0
147
0.0
147
0.0
147
0.0
147
0.0008202099737533
147
0.0
147
0.0
147
0.0
147
0.0
147
1.0
147
0.0
147
0.0
147
0.0
147
0.0
147
1.0
  0
MLEADERSTYLE
  5
1004E
102
{ACAD_REACTORS
330
1004D
330
1026D
330
1026F
330
10270
330
10271
330
10272
330
10273
330
10274
330
10275
330
1027F
330
10283
330
10287
330
1028B
330
1028F
102
}
330
1004D
100
AcDbMLeaderStyle
179
     2
170
     2
171
     1
172
     0
 90
        2
 40
0.0
 41
0.0
173
     1
 91
-1056964608
340
14
 92
       -2
290
     1
 42
0.09
291
     1
 43
0.36
  3
Standard
 44
0.18
300

342
11
174
     1
178
     6
175
     1
176
     0
 93
-1056964608
 45
0.18
292
     0
297
     0
 46
0.18
 94
-1056964608
 47
1.0
 49
1.0
140
1.0
293
     1
141
0.0
294
     1
177
     0
142
1.0
295
     0
296
     0
143
0.125
271
     0
272
     9
273
     9
298
     0
  0
MLINESTYLE
  5
1003A
102
{ACAD_REACTORS
330
17
102
}
330
17
100
AcDbMlineStyle
  2
STANDARD
 70
     0
  3

 62
   256
 51
90.0
 52
90.0
 71
     2
 49
0.5
 62
   256
  6
BYLAYER
 49
-0.5
 62
   256
  6
BYLAYER
  0
ACDBPLACEHOLDER
  5
10003
102
{ACAD_REACTORS
330
10002
102
}
330
10002
  0
SCALE
  5
1003C
102
{ACAD_REACTORS
330
1003B
102
}
330
1003B
100
AcDbScale
 70
     0
300
1:1
140
1.0
141
1.0
290
     1
  0
SCALE
  5
1003D
102
{ACAD_REACTORS
330
1003B
102
}
330
1003B
100
AcDbScale
 70
     0
300
1/128" = 1'-0"
140
0.0078125
141
12.0
290
     0
  0
SCALE
  5
1003E
102
{ACAD_REACTORS
330
1003B
102
}
330
1003B
100
AcDbScale
 70
     0
300
1/64" = 1'-0"
140
0.015625
141
12.0
290
     0
  0
SCALE
  5
1003F
102
{ACAD_REACTORS
330
1003B
102
}
330
1003B
100
AcDbScale
 70
     0
300
1/32" = 1'-0"
140
0.03125
141
12.0
290
     0
  0
SCALE
  5
10040
102
{ACAD_REACTORS
330
1003B
102
}
330
1003B
100
AcDbScale
 70
     0
300
1/16" = 1'-0"
140
0.0625
141
12.0
290
     0
  0
SCALE
  5
10041
102
{ACAD_REACTORS
330
1003B
102
}
330
1003B
100
AcDbScale
 70
     0
300
3/32" = 1'-0"
140
0.09375
141
12.0
290
     0
  0
SCALE
  5
10042
102
{ACAD_REACTORS
330
1003B
102
}
330
1003B
100
AcDbScale
 70
     0
300
1/8" = 1'-0"
140
0.125
141
12.0
290
     0
  0
SCALE
  5
10043
102
{ACAD_REACTORS
330
1003B
102
}
330
1003B
100
AcDbScale
 70
     0
300
3/16" = 1'-0"
140
0.1875
141
12.0
290
     0
  0
SCALE
  5
10044
102
{ACAD_REACTORS
330
1003B
102
}
330
1003B
100
AcDbScale
 70
     0
300
1/4" = 1'-0"
140
0.25
141
12.0
290
     0
  0
SCALE
  5
10045
102
{ACAD_REACTORS
330
1003B
102
}
330
1003B
100
AcDbScale
 70
     0
300
3/8" = 1'-0"
140
0.375
141
12.0
290
     0
  0
SCALE
  5
10046
102
{ACAD_REACTORS
330
1003B
102
}
330
1003B
100
AcDbScale
 70
     0
300
1/2" = 1'-0"
140
0.5
141
12.0
290
     0
  0
SCALE
  5
10047
102
{ACAD_REACTORS
330
1003B
102
}
330
1003B
100
AcDbScale
 70
     0
300
3/4" = 1'-0"
140
0.75
141
12.0
290
     0
  0
SCALE
  5
10048
102
{ACAD_REACTORS
330
1003B
102
}
330
1003B
100
AcDbScale
 70
     0
300
1" = 1'-0"
140
1.0
141
12.0
290
     0
  0
SCALE
  5
10049
102
{ACAD_REACTORS
330
1003B
102
}
330
1003B
100
AcDbScale
 70
     0
300
1-1/2" = 1'-0"
140
1.5
141
12.0
290
     0
  0
SCALE
  5
1004A
102
{ACAD_REACTORS
330
1003B
102
}
330
1003B
100
AcDbScale
 70
     0
300
3" = 1'-0"
140
3.0
141
12.0
290
     0
  0
SCALE
  5
1004B
102
{ACAD_REACTORS
330
1003B
102
}
330
1003B
100
AcDbScale
 70
     0
300
6" = 1'-0"
140
6.0
141
12.0
290
     0
  0
SCALE
  5
1004C
102
{ACAD_REACTORS
330
1003B
102
}
330
1003B
100
AcDbScale
 70
     0
300
1'-0" = 1'-0"
140
12.0
141
12.0
290
     0
  0
ACDBSECTIONVIEWSTYLE
  5
10050
102
{ACAD_REACTORS
330
1004F
102
}
330
1004F
100
AcDbModelDocViewStyle
 70
     0
  3
Imperial24
290
     0
300
Imperial24
 90
        0
100
AcDbSectionViewStyle
 70
     0
 71
     0
 90
       78
 71
     1
340
11
 62
   256
 40
0.24
340
0
340
0
 62
   256
 40
0.24
300
I, O, Q, S, X, Z
 40
0.48
 90
        3
 40
0.18
 90
        1
 71
     2
340
0
 90
       25
 62
   256
340
0
 90
       50
 62
   256
 40
0.24
 40
0.0
 40
0.24
 71
     3
340
11
 62
   256
 40
0.24
 90
        1
 40
0.75
 90
        1
300
%<\AcVar ViewType \f "%tc1">% %<\AcVar ViewSectionStartId>%-%<\AcVar ViewSectionEndId>%\PECHELLE %<\AcVar ViewScale \f "%sn">%
 71
     4
 62
   256
 62
   257
300
ANSI31
 40
1.0
 90
        0
290
     0
290
     0
 90
        6
 40
0.0
 40
1.570796326794896
 40
0.2617993877991494
 40
1.308996938995747
 40
-0.2617993877991494
 40
1.832595714594044
  0
TABLESTYLE
  5
10039
102
{ACAD_XDICTIONARY
360
10223
102
}
102
{ACAD_REACTORS
330
10038
102
}
330
10038
100
AcDbTableStyle
280
     0
  3
Standard
 70
     0
 71
     0
 40
0.06
 41
0.06
280
     0
281
     0
  7
STANDARD
140
0.18
170
     2
 62
     0
 63
     7
283
     0
 90
      512
 91
        0
  1

274
    -2
284
     1
 64
     0
275
    -2
285
     1
 65
     0
276
    -2
286
     1
 66
     0
277
    -2
287
     1
 67
     0
278
    -2
288
     1
 68
     0
279
    -2
289
     1
 69
     0
  7
STANDARD
140
0.25
170
     5
 62
     0
 63
     7
283
     0
 90
      512
 91
        0
  1

274
    -2
284
     1
 64
     0
275
    -2
285
     1
 65
     0
276
    -2
286
     1
 66
     0
277
    -2
287
     1
 67
     0
278
    -2
288
     1
 68
     0
279
    -2
289
     1
 69
     0
  7
STANDARD
140
0.18
170
     5
 62
     0
 63
     7
283
     0
 90
      512
 91
        0
  1

274
    -2
284
     1
 64
     0
275
    -2
285
     1
 65
     0
276
    -2
286
     1
 66
     0
277
    -2
287
     1
 67
     0
278
    -2
288
     1
 68
     0
279
    -2
289
     1
 69
     0
  0
VISUALSTYLE
  5
10023
102
{ACAD_REACTORS
330
1001D
102
}
330
1001D
100
AcDbVisualStyle
  2
2dWireframe
 70
     4
177
     3
291
     0
 70
    58
 90
        0
176
     1
 90
        2
176
     1
 90
        0
176
     1
 90
        0
176
     1
 40
0.6
176
     1
 40
30.0
176
     1
 62
     7
420
 16777215
176
     1
 90
        1
176
     1
 90
        4
176
     1
 62
     7
176
     1
 62
   257
176
     1
 90
        1
176
     1
 90
        1
176
     1
 40
1.0
176
     1
 90
        0
176
     1
 62
   257
176
     1
 40
1.0
176
     1
 90
        1
176
     1
 90
        6
176
     1
 90
        2
176
     1
 62
     7
176
     1
 90
        5
176
     1
 90
        0
176
     1
 90
        0
176
     1
290
     0
176
     1
 90
        1
176
     1
 40
0.0
176
     1
 90
        0
176
     1
290
     1
176
     1
290
     1
176
     1
290
     0
176
     1
290
     0
176
     1
290
     0
176
     1
290
     0
176
     1
290
     0
176
     1
290
     0
176
     1
290
     0
176
     1
 90
       50
176
     1
 40
0.0
176
     1
 40
1.0
176
     1
 90
        0
176
     1
 62
    18
176
     1
 90
       50
176
     1
 90
        3
176
     1
 62
     5
420
      255
176
     1
290
     0
176
     1
 90
       50
176
     1
 90
       50
176
     1
 90
       50
176
     1
290
     0
176
     1
 90
       50
176
     1
 62
   256
176
     0
 40
1.0
176
     0
 90
        2
176
     1
  1
strokes_ogs.tif
176
     1
290
     0
176
     1
 40
1.0
176
     1
 40
1.0
176
     1
  0
VISUALSTYLE
  5
10022
102
{ACAD_REACTORS
330
1001D
102
}
330
1001D
100
AcDbVisualStyle
  2
Basic
 70
     7
177
     3
291
     1
 70
    58
 90
        1
176
     1
 90
        0
176
     1
 90
        1
176
     1
 90
        0
176
     1
 40
0.6
176
     1
 40
30.0
176
     1
 62
     7
420
 16777215
176
     1
 90
        0
176
     1
 90
        4
176
     1
 62
     7
176
     1
 62
   257
176
     1
 90
        1
176
     1
 90
        1
176
     1
 40
1.0
176
     1
 90
        8
176
     1
 62
     7
176
     1
 40
1.0
176
     1
 90
        1
176
     1
 90
        6
176
     1
 90
        2
176
     1
 62
     7
176
     1
 90
        5
176
     1
 90
        0
176
     1
 90
        0
176
     1
290
     0
176
     1
 90
        1
176
     1
 40
0.0
176
     1
 90
        0
176
     1
290
     0
176
     1
290
     1
176
     1
290
     1
176
     1
290
     0
176
     1
290
     0
176
     1
290
     0
176
     1
290
     0
176
     1
290
     0
176
     1
290
     0
176
     1
 90
       50
176
     1
 40
0.0
176
     1
 40
1.0
176
     1
 90
        0
176
     1
 62
    18
176
     1
 90
       50
176
     1
 90
        3
176
     1
 62
     5
420
      255
176
     1
290
     0
176
     1
 90
       50
176
     1
 90
       50
176
     1
 90
       50
176
     1
290
     0
176
     1
 90
       50
176
     1
 62
   256
176
     0
 40
1.0
176
     0
 90
        2
176
     1
  1
strokes_ogs.tif
176
     1
290
     0
176
     1
 40
1.0
176
     1
 40
1.0
176
     1
  0
VISUALSTYLE
  5
10029
102
{ACAD_REACTORS
330
1001D
102
}
330
1001D
100
AcDbVisualStyle
  2
Brighten
 70
    12
177
     3
291
     1
 70
    58
 90
        2
176
     1
 90
        2
176
     1
 90
        0
176
     1
 90
        0
176
     1
 40
0.6
176
     1
 40
30.0
176
     1
 62
     7
420
 16777215
176
     1
 90
        1
176
     1
 90
        4
176
     1
 62
     7
176
     1
 62
   257
176
     1
 90
        1
176
     1
 90
        1
176
     1
 40
1.0
176
     1
 90
        8
176
     1
 62
     7
176
     1
 40
1.0
176
     1
 90
        1
176
     1
 90
        6
176
     1
 90
        2
176
     1
 62
     7
176
     1
 90
        5
176
     1
 90
        0
176
     1
 90
        0
176
     1
290
     0
176
     1
 90
        1
176
     1
 40
50.0
176
     1
 90
        0
176
     1
290
     0
176
     1
290
     1
176
     1
290
     1
176
     1
290
     0
176
     1
290
     0
176
     1
290
     0
176
     1
290
     0
176
     1
290
     0
176
     1
290
     0
176
     1
 90
       50
176
     1
 40
0.0
176
     1
 40
1.0
176
     1
 90
        0
176
     1
 62
    18
176
     1
 90
       50
176
     1
 90
        3
176
     1
 62
     5
420
      255
176
     1
290
     0
176
     1
 90
       50
176
     1
 90
       50
176
     1
 90
       50
176
     1
290
     0
176
     1
 90
       50
176
     1
 62
   256
176
     0
 40
1.0
176
     0
 90
        2
176
     1
  1
strokes_ogs.tif
176
     1
290
     0
176
     1
 40
1.0
176
     1
 40
1.0
176
     1
  0
VISUALSTYLE
  5
1002D
102
{ACAD_REACTORS
330
1001D
102
}
330
1001D
100
AcDbVisualStyle
  2
ColorChange
 70
    16
177
     3
291
     1
 70
    58
 90
        2
176
     1
 90
        2
176
     1
 90
        3
176
     1
 90
        0
176
     1
 40
0.6
176
     1
 40
30.0
176
     1
 62
     8
420
  8421504
176
     1
 90
        1
176
     1
 90
        4
176
     1
 62
     7
176
     1
 62
   257
176
     1
 90
        1
176
     1
 90
        1
176
     1
 40
1.0
176
     1
 90
        8
176
     1
 62
     8
420
  8421504
176
     1
 40
1.0
176
     1
 90
        1
176
     1
 90
        6
176
     1
 90
        2
176
     1
 62
     7
176
     1
 90
        5
176
     1
 90
        0
176
     1
 90
        0
176
     1
290
     0
176
     1
 90
        1
176
     1
 40
0.0
176
     1
 90
        0
176
     1
290
     0
176
     1
290
     1
176
     1
290
     1
176
     1
290
     0
176
     1
290
     0
176
     1
290
     0
176
     1
290
     0
176
     1
290
     0
176
     1
290
     0
176
     1
 90
       50
176
     1
 40
0.0
176
     1
 40
1.0
176
     1
 90
        0
176
     1
 62
    18
176
     1
 90
       50
176
     1
 90
        3
176
     1
 62
     5
420
      255
176
     1
290
     0
176
     1
 90
       50
176
     1
 90
       50
176
     1
 90
       50
176
     1
290
     0
176
     1
 90
       50
176
     1
 62
   256
176
     0
 40
1.0
176
     0
 90
        2
176
     1
  1
strokes_ogs.tif
176
     1
290
     0
176
     1
 40
1.0
176
     1
 40
1.0
176
     1
  0
VISUALSTYLE
  5
10026
102
{ACAD_REACTORS
330
1001D
102
}
330
1001D
100
AcDbVisualStyle
  2
Conceptual
 70
     9
177
     3
291
     0
 70
    58
 90
        3
176
     1
 90
        2
176
     1
 90
        0
176
     1
 90
        0
176
     1
 40
0.6
176
     1
 40
30.0
176
     1
 62
     7
420
 16777215
176
     1
 90
        2
176
     1
 90
        2
176
     1
 62
     7
176
     1
 62
   257
176
     1
 90
        1
176
     1
 90
        1
176
     1
 40
179.0
176
     1
 90
        8
176
     1
 62
     7
176
     1
 40
1.0
176
     1
 90
        1
176
     1
 90
        6
176
     1
 90
        2
176
     1
 62
     7
176
     1
 90
        3
176
     1
 90
        0
176
     1
 90
        0
176
     1
290
     0
176
     1
 90
        1
176
     1
 40
0.0
176
     1
 90
        0
176
     1
290
     0
176
     1
290
     1
176
     1
290
     1
176
     1
290
     0
176
     1
290
     0
176
     1
290
     0
176
     1
290
     0
176
     1
290
     0
176
     1
290
     0
176
     1
 90
       50
176
     1
 40
0.0
176
     1
 40
1.0
176
     1
 90
        0
176
     1
 62
    18
176
     1
 90
       50
176
     1
 90
        3
176
     1
 62
     5
420
      255
176
     1
290
     0
176
     1
 90
       50
176
     1
 90
       50
176
     1
 90
       50
176
     1
290
     0
176
     1
 90
       50
176
     1
 62
   256
176
     0
 40
1.0
176
     0
 90
        2
176
     1
  1
strokes_ogs.tif
176
     1
290
     0
176
     1
 40
1.0
176
     1
 40
1.0
176
     1
  0
VISUALSTYLE
  5
10028
102
{ACAD_REACTORS
330
1001D
102
}
330
1001D
100
AcDbVisualStyle
  2
Dim
 70
    11
177
     3
291
     1
 70
    58
 90
        2
176
     1
 90
        2
176
     1
 90
        0
176
     1
 90
        0
176
     1
 40
0.6
176
     1
 40
30.0
176
     1
 62
     7
420
 16777215
176
     1
 90
        1
176
     1
 90
        4
176
     1
 62
     7
176
     1
 62
   257
176
     1
 90
        1
176
     1
 90
        1
176
     1
 40
1.0
176
     1
 90
        8
176
     1
 62
     7
176
     1
 40
1.0
176
     1
 90
        1
176
     1
 90
        6
176
     1
 90
        2
176
     1
 62
     7
176
     1
 90
        5
176
     1
 90
        0
176
     1
 90
        0
176
     1
290
     0
176
     1
 90
        1
176
     1
 40
-50.0
176
     1
 90
        0
176
     1
290
     0
176
     1
290
     1
176
     1
290
     1
176
     1
290
     0
176
     1
290
     0
176
     1
290
     0
176
     1
290
     0
176
     1
290
     0
176
     1
290
     0
176
     1
 90
       50
176
     1
 40
0.0
176
     1
 40
1.0
176
     1
 90
        0
176
     1
 62
    18
176
     1
 90
       50
176
     1
 90
        3
176
     1
 62
     5
420
      255
176
     1
290
     0
176
     1
 90
       50
176
     1
 90
       50
176
     1
 90
       50
176
     1
290
     0
176
     1
 90
       50
176
     1
 62
   256
176
     0
 40
1.0
176
     0
 90
        2
176
     1
  1
strokes_ogs.tif
176
     1
290
     0
176
     1
 40
1.0
176
     1
 40
1.0
176
     1
  0
VISUALSTYLE
  5
10035
102
{ACAD_REACTORS
330
1001D
102
}
330
1001D
100
AcDbVisualStyle
  2
EdgeColorOff
 70
    22
177
     3
291
     1
 70
    58
 90
        2
176
     0
 90
        2
176
     0
 90
        0
176
     0
 90
        0
176
     0
 40
0.6
176
     0
 40
30.0
176
     0
 62
     7
420
 16777215
176
     0
 90
        1
176
     0
 90
        4
176
     0
 62
     7
176
     0
 62
   257
176
     0
 90
        1
176
     0
 90
        1
176
     0
 40
1.0
176
     0
 90
        8
176
     2
 62
     7
176
     0
 40
1.0
176
     0
 90
        1
176
     0
 90
        6
176
     0
 90
        2
176
     0
 62
     7
176
     0
 90
        5
176
     0
 90
        0
176
     0
 90
        0
176
     0
290
     0
176
     0
 90
        1
176
     0
 40
0.0
176
     0
 90
        0
176
     0
290
     0
176
     1
290
     1
176
     1
290
     1
176
     1
290
     0
176
     1
290
     0
176
     1
290
     0
176
     1
290
     0
176
     1
290
     0
176
     1
290
     0
176
     1
 90
       50
176
     0
 40
0.0
176
     0
 40
1.0
176
     0
 90
        0
176
     0
 62
    18
176
     0
 90
       50
176
     0
 90
        3
176
     0
 62
     5
420
      255
176
     0
290
     0
176
     1
 90
       50
176
     0
 90
       50
176
     0
 90
       50
176
     0
290
     0
176
     1
 90
       50
176
     0
 62
   256
176
     0
 40
1.0
176
     0
 90
        2
176
     0
  1
strokes_ogs.tif
176
     0
290
     0
176
     1
 40
1.0
176
     0
 40
1.0
176
     0
  0
VISUALSTYLE
  5
1002C
102
{ACAD_REACTORS
330
1001D
102
}
330
1001D
100
AcDbVisualStyle
  2
Facepattern
 70
    15
177
     3
291
     1
 70
    58
 90
        2
176
     1
 90
        2
176
     1
 90
        0
176
     1
 90
        0
176
     1
 40
0.6
176
     1
 40
30.0
176
     1
 62
     7
420
 16777215
176
     1
 90
        1
176
     1
 90
        4
176
     1
 62
     7
176
     1
 62
   257
176
     1
 90
        1
176
     1
 90
        1
176
     1
 40
1.0
176
     1
 90
        8
176
     1
 62
     7
176
     1
 40
1.0
176
     1
 90
        1
176
     1
 90
        6
176
     1
 90
        2
176
     1
 62
     7
176
     1
 90
        5
176
     1
 90
        0
176
     1
 90
        0
176
     1
290
     0
176
     1
 90
        1
176
     1
 40
0.0
176
     1
 90
        0
176
     1
290
     0
176
     1
290
     1
176
     1
290
     1
176
     1
290
     0
176
     1
290
     0
176
     1
290
     0
176
     1
290
     0
176
     1
290
     0
176
     1
290
     0
176
     1
 90
       50
176
     1
 40
0.0
176
     1
 40
1.0
176
     1
 90
        0
176
     1
 62
    18
176
     1
 90
       50
176
     1
 90
        3
176
     1
 62
     5
420
      255
176
     1
290
     0
176
     1
 90
       50
176
     1
 90
       50
176
     1
 90
       50
176
     1
290
     0
176
     1
 90
       50
176
     1
 62
   256
176
     0
 40
1.0
176
     0
 90
        2
176
     1
  1
strokes_ogs.tif
176
     1
290
     0
176
     1
 40
1.0
176
     1
 40
1.0
176
     1
  0
VISUALSTYLE
  5
1001E
102
{ACAD_REACTORS
330
1001D
102
}
330
1001D
100
AcDbVisualStyle
  2
Flat
 70
     0
177
     3
291
     1
 70
    58
 90
        2
176
     1
 90
        1
176
     1
 90
        1
176
     1
 90
        2
176
     1
 40
0.6
176
     1
 40
30.0
176
     1
 62
     7
420
 16777215
176
     1
 90
        0
176
     1
 90
        0
176
     1
 62
     7
176
     1
 62
   257
176
     1
 90
        1
176
     1
 90
        1
176
     1
 40
1.0
176
     1
 90
        8
176
     1
 62
     7
176
     1
 40
1.0
176
     1
 90
        1
176
     1
 90
        6
176
     1
 90
        2
176
     1
 62
     7
176
     1
 90
        5
176
     1
 90
        0
176
     1
 90
        0
176
     1
290
     0
176
     1
 90
       13
176
     1
 40
0.0
176
     1
 90
        0
176
     1
290
     0
176
     1
290
     1
176
     1
290
     1
176
     1
290
     0
176
     1
290
     0
176
     1
290
     0
176
     1
290
     0
176
     1
290
     0
176
     1
290
     0
176
     1
 90
       50
176
     1
 40
0.0
176
     1
 40
1.0
176
     1
 90
        0
176
     1
 62
    18
176
     1
 90
       50
176
     1
 90
        3
176
     1
 62
     5
420
      255
176
     1
290
     0
176
     1
 90
       50
176
     1
 90
       50
176
     1
 90
       50
176
     1
290
     0
176
     1
 90
       50
176
     1
 62
   256
176
     0
 40
1.0
176
     0
 90
        2
176
     1
  1
strokes_ogs.tif
176
     1
290
     0
176
     1
 40
1.0
176
     1
 40
1.0
176
     1
  0
VISUALSTYLE
  5
1001F
102
{ACAD_REACTORS
330
1001D
102
}
330
1001D
100
AcDbVisualStyle
  2
FlatWithEdges
 70
     1
177
     3
291
     1
 70
    58
 90
        2
176
     1
 90
        1
176
     1
 90
        1
176
     1
 90
        2
176
     1
 40
0.6
176
     1
 40
30.0
176
     1
 62
     7
420
 16777215
176
     1
 90
        1
176
     1
 90
        0
176
     1
 62
     7
176
     1
 62
   257
176
     1
 90
        1
176
     1
 90
        1
176
     1
 40
1.0
176
     1
 90
        0
176
     1
 62
   257
176
     1
 40
1.0
176
     1
 90
        1
176
     1
 90
        6
176
     1
 90
        2
176
     1
 62
     7
176
     1
 90
        5
176
     1
 90
        0
176
     1
 90
        0
176
     1
290
     0
176
     1
 90
       13
176
     1
 40
0.0
176
     1
 90
        0
176
     1
290
     0
176
     1
290
     1
176
     1
290
     1
176
     1
290
     0
176
     1
290
     0
176
     1
290
     0
176
     1
290
     0
176
     1
290
     0
176
     1
290
     0
176
     1
 90
       50
176
     1
 40
0.0
176
     1
 40
1.0
176
     1
 90
        0
176
     1
 62
    18
176
     1
 90
       50
176
     1
 90
        3
176
     1
 62
     5
420
      255
176
     1
290
     0
176
     1
 90
       50
176
     1
 90
       50
176
     1
 90
       50
176
     1
290
     0
176
     1
 90
       50
176
     1
 62
   256
176
     0
 40
1.0
176
     0
 90
        2
176
     1
  1
strokes_ogs.tif
176
     1
290
     0
176
     1
 40
1.0
176
     1
 40
1.0
176
     1
  0
VISUALSTYLE
  5
10020
102
{ACAD_REACTORS
330
1001D
102
}
330
1001D
100
AcDbVisualStyle
  2
Gouraud
 70
     2
177
     3
291
     1
 70
    58
 90
        2
176
     1
 90
        2
176
     1
 90
        1
176
     1
 90
        2
176
     1
 40
0.6
176
     1
 40
30.0
176
     1
 62
     7
420
 16777215
176
     1
 90
        0
176
     1
 90
        0
176
     1
 62
     7
176
     1
 62
   257
176
     1
 90
        1
176
     1
 90
        1
176
     1
 40
1.0
176
     1
 90
        0
176
     1
 62
     7
176
     1
 40
1.0
176
     1
 90
        1
176
     1
 90
        6
176
     1
 90
        2
176
     1
 62
     7
176
     1
 90
        5
176
     1
 90
        0
176
     1
 90
        0
176
     1
290
     0
176
     1
 90
       13
176
     1
 40
0.0
176
     1
 90
        0
176
     1
290
     0
176
     1
290
     1
176
     1
290
     1
176
     1
290
     0
176
     1
290
     0
176
     1
290
     0
176
     1
290
     0
176
     1
290
     0
176
     1
290
     0
176
     1
 90
       50
176
     1
 40
0.0
176
     1
 40
1.0
176
     1
 90
        0
176
     1
 62
    18
176
     1
 90
       50
176
     1
 90
        3
176
     1
 62
     5
420
      255
176
     1
290
     0
176
     1
 90
       50
176
     1
 90
       50
176
     1
 90
       50
176
     1
290
     0
176
     1
 90
       50
176
     1
 62
   256
176
     0
 40
1.0
176
     0
 90
        2
176
     1
  1
strokes_ogs.tif
176
     1
290
     0
176
     1
 40
1.0
176
     1
 40
1.0
176
     1
  0
VISUALSTYLE
  5
10021
102
{ACAD_REACTORS
330
1001D
102
}
330
1001D
100
AcDbVisualStyle
  2
GouraudWithEdges
 70
     3
177
     3
291
     1
 70
    58
 90
        2
176
     1
 90
        2
176
     1
 90
        1
176
     1
 90
        2
176
     1
 40
0.6
176
     1
 40
30.0
176
     1
 62
     7
420
 16777215
176
     1
 90
        1
176
     1
 90
        0
176
     1
 62
     7
176
     1
 62
   257
176
     1
 90
        1
176
     1
 90
        1
176
     1
 40
1.0
176
     1
 90
        0
176
     1
 62
   257
176
     1
 40
1.0
176
     1
 90
        1
176
     1
 90
        6
176
     1
 90
        2
176
     1
 62
     7
176
     1
 90
        5
176
     1
 90
        0
176
     1
 90
        0
176
     1
290
     0
176
     1
 90
       13
176
     1
 40
0.0
176
     1
 90
        0
176
     1
290
     0
176
     1
290
     1
176
     1
290
     1
176
     1
290
     0
176
     1
290
     0
176
     1
290
     0
176
     1
290
     0
176
     1
290
     0
176
     1
290
     0
176
     1
 90
       50
176
     1
 40
0.0
176
     1
 40
1.0
176
     1
 90
        0
176
     1
 62
    18
176
     1
 90
       50
176
     1
 90
        3
176
     1
 62
     5
420
      255
176
     1
290
     0
176
     1
 90
       50
176
     1
 90
       50
176
     1
 90
       50
176
     1
290
     0
176
     1
 90
       50
176
     1
 62
   256
176
     0
 40
1.0
176
     0
 90
        2
176
     1
  1
strokes_ogs.tif
176
     1
290
     0
176
     1
 40
1.0
176
     1
 40
1.0
176
     1
  0
VISUALSTYLE
  5
10025
102
{ACAD_REACTORS
330
1001D
102
}
330
1001D
100
AcDbVisualStyle
  2
Hidden
 70
     6
177
     3
291
     0
 70
    58
 90
        1
176
     1
 90
        2
176
     1
 90
        2
176
     1
 90
        0
176
     1
 40
0.6
176
     1
 40
30.0
176
     1
 62
     7
420
 16777215
176
     1
 90
        2
176
     1
 90
        2
176
     1
 62
     7
176
     1
 62
   257
176
     1
 90
        2
176
     1
 90
        1
176
     1
 40
40.0
176
     1
 90
        0
176
     1
 62
   257
176
     1
 40
1.0
176
     1
 90
        1
176
     1
 90
        6
176
     1
 90
        2
176
     1
 62
     7
176
     1
 90
        3
176
     1
 90
        0
176
     1
 90
        0
176
     1
290
     0
176
     1
 90
        1
176
     1
 40
0.0
176
     1
 90
        0
176
     1
290
     0
176
     1
290
     1
176
     1
290
     1
176
     1
290
     0
176
     1
290
     0
176
     1
290
     0
176
     1
290
     0
176
     1
290
     0
176
     1
290
     0
176
     1
 90
       50
176
     1
 40
0.0
176
     1
 40
1.0
176
     1
 90
        0
176
     1
 62
    18
176
     1
 90
       50
176
     1
 90
        3
176
     1
 62
     5
420
      255
176
     1
290
     0
176
     1
 90
       50
176
     1
 90
       50
176
     1
 90
       50
176
     1
290
     0
176
     1
 90
       50
176
     1
 62
   256
176
     0
 40
1.0
176
     0
 90
        2
176
     1
  1
strokes_ogs.tif
176
     1
290
     0
176
     1
 40
1.0
176
     1
 40
1.0
176
     1
  0
VISUALSTYLE
  5
10033
102
{ACAD_REACTORS
330
1001D
102
}
330
1001D
100
AcDbVisualStyle
  2
JitterOff
 70
    20
177
     3
291
     1
 70
    58
 90
        2
176
     0
 90
        2
176
     0
 90
        0
176
     0
 90
        0
176
     0
 40
0.6
176
     0
 40
30.0
176
     0
 62
     7
420
 16777215
176
     0
 90
        1
176
     0
 90
        4
176
     0
 62
     7
176
     0
 62
   257
176
     0
 90
        1
176
     0
 90
        1
176
     0
 40
1.0
176
     0
 90
       10
176
     2
 62
     7
176
     0
 40
1.0
176
     0
 90
        1
176
     0
 90
        6
176
     0
 90
        2
176
     0
 62
     7
176
     0
 90
        5
176
     0
 90
        0
176
     0
 90
        0
176
     0
290
     0
176
     0
 90
        1
176
     0
 40
0.0
176
     0
 90
        0
176
     0
290
     0
176
     1
290
     1
176
     1
290
     1
176
     1
290
     0
176
     1
290
     0
176
     1
290
     0
176
     1
290
     0
176
     1
290
     0
176
     1
290
     0
176
     1
 90
       50
176
     0
 40
0.0
176
     0
 40
1.0
176
     0
 90
        0
176
     0
 62
    18
176
     0
 90
       50
176
     0
 90
        3
176
     0
 62
     5
420
      255
176
     0
290
     0
176
     1
 90
       50
176
     0
 90
       50
176
     0
 90
       50
176
     0
290
     0
176
     1
 90
       50
176
     0
 62
   256
176
     0
 40
1.0
176
     0
 90
        2
176
     0
  1
strokes_ogs.tif
176
     0
290
     0
176
     1
 40
1.0
176
     0
 40
1.0
176
     0
  0
VISUALSTYLE
  5
1002B
102
{ACAD_REACTORS
330
1001D
102
}
330
1001D
100
AcDbVisualStyle
  2
Linepattern
 70
    14
177
     3
291
     1
 70
    58
 90
        2
176
     1
 90
        2
176
     1
 90
        0
176
     1
 90
        0
176
     1
 40
0.6
176
     1
 40
30.0
176
     1
 62
     7
420
 16777215
176
     1
 90
        1
176
     1
 90
        4
176
     1
 62
     7
176
     1
 62
   257
176
     1
 90
        7
176
     1
 90
        7
176
     1
 40
1.0
176
     1
 90
        8
176
     1
 62
     7
176
     1
 40
1.0
176
     1
 90
        1
176
     1
 90
        6
176
     1
 90
        2
176
     1
 62
     7
176
     1
 90
        5
176
     1
 90
        0
176
     1
 90
        0
176
     1
290
     0
176
     1
 90
        1
176
     1
 40
0.0
176
     1
 90
        0
176
     1
290
     0
176
     1
290
     1
176
     1
290
     1
176
     1
290
     0
176
     1
290
     0
176
     1
290
     0
176
     1
290
     0
176
     1
290
     0
176
     1
290
     0
176
     1
 90
       50
176
     1
 40
0.0
176
     1
 40
1.0
176
     1
 90
        0
176
     1
 62
    18
176
     1
 90
       50
176
     1
 90
        3
176
     1
 62
     5
420
      255
176
     1
290
     0
176
     1
 90
       50
176
     1
 90
       50
176
     1
 90
       50
176
     1
290
     0
176
     1
 90
       50
176
     1
 62
   256
176
     0
 40
1.0
176
     0
 90
        2
176
     1
  1
strokes_ogs.tif
176
     1
290
     0
176
     1
 40
1.0
176
     1
 40
1.0
176
     1
  0
VISUALSTYLE
  5
10034
102
{ACAD_REACTORS
330
1001D
102
}
330
1001D
100
AcDbVisualStyle
  2
OverhangOff
 70
    21
177
     3
291
     1
 70
    58
 90
        2
176
     0
 90
        2
176
     0
 90
        0
176
     0
 90
        0
176
     0
 40
0.6
176
     0
 40
30.0
176
     0
 62
     7
420
 16777215
176
     0
 90
        1
176
     0
 90
        4
176
     0
 62
     7
176
     0
 62
   257
176
     0
 90
        1
176
     0
 90
        1
176
     0
 40
1.0
176
     0
 90
        9
176
     2
 62
     7
176
     0
 40
1.0
176
     0
 90
        1
176
     0
 90
        6
176
     0
 90
        2
176
     0
 62
     7
176
     0
 90
        5
176
     0
 90
        0
176
     0
 90
        0
176
     0
290
     0
176
     0
 90
        1
176
     0
 40
0.0
176
     0
 90
        0
176
     0
290
     0
176
     1
290
     1
176
     1
290
     1
176
     1
290
     0
176
     1
290
     0
176
     1
290
     0
176
     1
290
     0
176
     1
290
     0
176
     1
290
     0
176
     1
 90
       50
176
     0
 40
0.0
176
     0
 40
1.0
176
     0
 90
        0
176
     0
 62
    18
176
     0
 90
       50
176
     0
 90
        3
176
     0
 62
     5
420
      255
176
     0
290
     0
176
     1
 90
       50
176
     0
 90
       50
176
     0
 90
       50
176
     0
290
     0
176
     1
 90
       50
176
     0
 62
   256
176
     0
 40
1.0
176
     0
 90
        2
176
     0
  1
strokes_ogs.tif
176
     0
290
     0
176
     1
 40
1.0
176
     0
 40
1.0
176
     0
  0
VISUALSTYLE
  5
10027
102
{ACAD_REACTORS
330
1001D
102
}
330
1001D
100
AcDbVisualStyle
  2
Realistic
 70
     8
177
     3
291
     0
 70
    58
 90
        2
176
     1
 90
        3
176
     1
 90
        0
176
     1
 90
        2
176
     1
 40
0.6
176
     1
 40
30.0
176
     1
 62
     7
420
 16777215
176
     1
 90
        0
176
     1
 90
        0
176
     1
 62
     7
176
     1
 62
   257
176
     1
 90
        1
176
     1
 90
        1
176
     1
 40
1.0
176
     1
 90
        8
176
     1
 62
   257
176
     1
 40
1.0
176
     1
 90
        1
176
     1
 90
        6
176
     1
 90
        2
176
     1
 62
     7
176
     1
 90
        3
176
     1
 90
        0
176
     1
 90
        0
176
     1
290
     0
176
     1
 90
       13
176
     1
 40
0.0
176
     1
 90
        0
176
     1
290
     0
176
     1
290
     1
176
     1
290
     1
176
     1
290
     0
176
     1
290
     0
176
     1
290
     0
176
     1
290
     0
176
     1
290
     0
176
     1
290
     0
176
     1
 90
       50
176
     1
 40
0.0
176
     1
 40
1.0
176
     1
 90
        0
176
     1
 62
    18
176
     1
 90
       50
176
     1
 90
        3
176
     1
 62
     5
420
      255
176
     1
290
     0
176
     1
 90
       50
176
     1
 90
       50
176
     1
 90
       50
176
     1
290
     0
176
     1
 90
       50
176
     1
 62
   256
176
     0
 40
1.0
176
     0
 90
        2
176
     1
  1
strokes_ogs.tif
176
     1
290
     0
176
     1
 40
1.0
176
     1
 40
1.0
176
     1
  0
VISUALSTYLE
  5
10032
102
{ACAD_REACTORS
330
1001D
102
}
330
1001D
100
AcDbVisualStyle
  2
Shaded
 70
    27
177
     3
291
     0
 70
    58
 90
        2
176
     1
 90
        2
176
     1
 90
        1
176
     1
 90
        2
176
     1
 40
0.6
176
     1
 40
30.0
176
     1
 62
     7
420
 16777215
176
     1
 90
        0
176
     1
 90
        4
176
     1
 62
     7
176
     1
 62
   257
176
     1
 90
        1
176
     1
 90
        1
176
     1
 40
1.0
176
     1
 90
        8
176
     1
 62
   257
176
     1
 40
1.0
176
     1
 90
        1
176
     1
 90
        6
176
     1
 90
        2
176
     1
 62
     8
420
  7895160
176
     1
 90
        3
176
     1
 90
        0
176
     1
 90
        0
176
     1
290
     0
176
     1
 90
        5
176
     1
 40
0.0
176
     1
 90
        0
176
     1
290
     0
176
     1
290
     1
176
     1
290
     1
176
     1
290
     0
176
     1
290
     0
176
     1
290
     0
176
     1
290
     0
176
     1
290
     0
176
     1
290
     0
176
     1
 90
       50
176
     1
 40
0.0
176
     1
 40
1.0
176
     1
 90
        0
176
     1
 62
    18
176
     1
 90
       50
176
     1
 90
        3
176
     1
 62
     5
420
      255
176
     1
290
     0
176
     1
 90
       50
176
     1
 90
       50
176
     1
 90
       50
176
     1
290
     0
176
     1
 90
       50
176
     1
 62
   256
176
     0
 40
1.0
176
     0
 90
        2
176
     1
  1
strokes_ogs.tif
176
     1
290
     0
176
     1
 40
1.0
176
     1
 40
1.0
176
     1
  0
VISUALSTYLE
  5
10031
102
{ACAD_REACTORS
330
1001D
102
}
330
1001D
100
AcDbVisualStyle
  2
Shaded with edges
 70
    26
177
     3
291
     0
 70
    58
 90
        2
176
     1
 90
        2
176
     1
 90
        1
176
     1
 90
        2
176
     1
 40
0.6
176
     1
 40
30.0
176
     1
 62
     7
420
 16777215
176
     1
 90
        1
176
     1
 90
        2
176
     1
 62
     7
176
     1
 62
   257
176
     1
 90
        2
176
     1
 90
        1
176
     1
 40
1.0
176
     1
 90
        8
176
     1
 62
   257
176
     1
 40
1.0
176
     1
 90
        1
176
     1
 90
        6
176
     1
 90
        2
176
     1
 62
     7
176
     1
 90
        3
176
     1
 90
        0
176
     1
 90
        0
176
     1
290
     0
176
     1
 90
        5
176
     1
 40
0.0
176
     1
 90
        0
176
     1
290
     0
176
     1
290
     1
176
     1
290
     1
176
     1
290
     0
176
     1
290
     0
176
     1
290
     0
176
     1
290
     0
176
     1
290
     0
176
     1
290
     0
176
     1
 90
       50
176
     1
 40
0.0
176
     1
 40
1.0
176
     1
 90
        0
176
     1
 62
    18
176
     1
 90
       50
176
     1
 90
        3
176
     1
 62
     5
420
      255
176
     1
290
     0
176
     1
 90
       50
176
     1
 90
       50
176
     1
 90
       50
176
     1
290
     0
176
     1
 90
       50
176
     1
 62
   256
176
     0
 40
1.0
176
     0
 90
        2
176
     1
  1
strokes_ogs.tif
176
     1
290
     0
176
     1
 40
1.0
176
     1
 40
1.0
176
     1
  0
VISUALSTYLE
  5
1002E
102
{ACAD_REACTORS
330
1001D
102
}
330
1001D
100
AcDbVisualStyle
  2
Shades of Gray
 70
    23
177
     3
291
     0
 70
    58
 90
        2
176
     1
 90
        2
176
     1
 90
        3
176
     1
 90
        0
176
     1
 40
0.6
176
     1
 40
30.0
176
     1
 62
     7
420
 16777215
176
     1
 90
        2
176
     1
 90
        2
176
     1
 62
     7
176
     1
 62
     7
176
     1
 90
        1
176
     1
 90
        1
176
     1
 40
40.0
176
     1
 90
        8
176
     1
 62
     7
176
     1
 40
1.0
176
     1
 90
        1
176
     1
 90
        6
176
     1
 90
        2
176
     1
 62
     7
176
     1
 90
        3
176
     1
 90
        0
176
     1
 90
        0
176
     1
290
     0
176
     1
 90
        1
176
     1
 40
0.0
176
     1
 90
        0
176
     1
290
     0
176
     1
290
     1
176
     1
290
     1
176
     1
290
     0
176
     1
290
     0
176
     1
290
     0
176
     1
290
     0
176
     1
290
     0
176
     1
290
     0
176
     1
 90
       50
176
     1
 40
0.0
176
     1
 40
1.0
176
     1
 90
        0
176
     1
 62
    18
176
     1
 90
       50
176
     1
 90
        3
176
     1
 62
     5
420
      255
176
     1
290
     0
176
     1
 90
       50
176
     1
 90
       50
176
     1
 90
       50
176
     1
290
     0
176
     1
 90
       50
176
     1
 62
   256
176
     0
 40
1.0
176
     0
 90
        2
176
     1
  1
strokes_ogs.tif
176
     1
290
     0
176
     1
 40
1.0
176
     1
 40
1.0
176
     1
  0
VISUALSTYLE
  5
1002F
102
{ACAD_REACTORS
330
1001D
102
}
330
1001D
100
AcDbVisualStyle
  2
Sketchy
 70
    24
177
     3
291
     0
 70
    58
 90
        1
176
     1
 90
        2
176
     1
 90
        2
176
     1
 90
        0
176
     1
 40
0.6
176
     1
 40
30.0
176
     1
 62
     7
420
 16777215
176
     1
 90
        2
176
     1
 90
        2
176
     1
 62
     7
176
     1
 62
     7
176
     1
 90
        1
176
     1
 90
        1
176
     1
 40
40.0
176
     1
 90
       11
176
     1
 62
     7
176
     1
 40
1.0
176
     1
 90
        1
176
     1
 90
        6
176
     1
 90
        2
176
     1
 62
     7
176
     1
 90
        6
176
     1
 90
        0
176
     1
 90
        0
176
     1
290
     0
176
     1
 90
        1
176
     1
 40
0.0
176
     1
 90
        0
176
     1
290
     0
176
     1
290
     1
176
     1
290
     1
176
     1
290
     0
176
     1
290
     0
176
     1
290
     0
176
     1
290
     0
176
     1
290
     0
176
     1
290
     0
176
     1
 90
       50
176
     1
 40
0.0
176
     1
 40
1.0
176
     1
 90
        0
176
     1
 62
    18
176
     1
 90
       50
176
     1
 90
        3
176
     1
 62
     5
420
      255
176
     1
290
     0
176
     1
 90
       50
176
     1
 90
       50
176
     1
 90
       50
176
     1
290
     0
176
     1
 90
       50
176
     1
 62
   256
176
     0
 40
1.0
176
     0
 90
        2
176
     1
  1
strokes_ogs.tif
176
     1
290
     0
176
     1
 40
1.0
176
     1
 40
1.0
176
     1
  0
VISUALSTYLE
  5
1002A
102
{ACAD_REACTORS
330
1001D
102
}
330
1001D
100
AcDbVisualStyle
  2
Thicken
 70
    13
177
     3
291
     1
 70
    58
 90
        2
176
     1
 90
        2
176
     1
 90
        0
176
     1
 90
        0
176
     1
 40
0.6
176
     1
 40
30.0
176
     1
 62
     7
420
 16777215
176
     1
 90
        1
176
     1
 90
        4
176
     1
 62
     7
176
     1
 62
   257
176
     1
 90
        1
176
     1
 90
        1
176
     1
 40
1.0
176
     1
 90
       12
176
     1
 62
     7
176
     1
 40
1.0
176
     1
 90
        1
176
     1
 90
        6
176
     1
 90
        2
176
     1
 62
     7
176
     1
 90
        5
176
     1
 90
        0
176
     1
 90
        0
176
     1
290
     0
176
     1
 90
        1
176
     1
 40
0.0
176
     1
 90
        0
176
     1
290
     0
176
     1
290
     1
176
     1
290
     1
176
     1
290
     0
176
     1
290
     0
176
     1
290
     0
176
     1
290
     0
176
     1
290
     0
176
     1
290
     0
176
     1
 90
       50
176
     1
 40
0.0
176
     1
 40
1.0
176
     1
 90
        0
176
     1
 62
    18
176
     1
 90
       50
176
     1
 90
        3
176
     1
 62
     5
420
      255
176
     1
290
     0
176
     1
 90
       50
176
     1
 90
       50
176
     1
 90
       50
176
     1
290
     0
176
     1
 90
       50
176
     1
 62
   256
176
     0
 40
1.0
176
     0
 90
        2
176
     1
  1
strokes_ogs.tif
176
     1
290
     0
176
     1
 40
1.0
176
     1
 40
1.0
176
     1
  0
VISUALSTYLE
  5
10024
102
{ACAD_REACTORS
330
1001D
102
}
330
1001D
100
AcDbVisualStyle
  2
Wireframe
 70
     5
177
     3
291
     0
 70
    58
 90
        0
176
     1
 90
        2
176
     1
 90
        0
176
     1
 90
        0
176
     1
 40
0.6
176
     1
 40
30.0
176
     1
 62
     7
420
 16777215
176
     1
 90
        1
176
     1
 90
        4
176
     1
 62
     7
176
     1
 62
   257
176
     1
 90
        1
176
     1
 90
        1
176
     1
 40
1.0
176
     1
 90
        0
176
     1
 62
   257
176
     1
 40
1.0
176
     1
 90
        1
176
     1
 90
        6
176
     1
 90
        2
176
     1
 62
     7
176
     1
 90
        3
176
     1
 90
        0
176
     1
 90
        0
176
     1
290
     0
176
     1
 90
        1
176
     1
 40
0.0
176
     1
 90
        0
176
     1
290
     0
176
     1
290
     1
176
     1
290
     1
176
     1
290
     0
176
     1
290
     0
176
     1
290
     0
176
     1
290
     0
176
     1
290
     0
176
     1
290
     0
176
     1
 90
       50
176
     1
 40
0.0
176
     1
 40
1.0
176
     1
 90
        0
176
     1
 62
    18
176
     1
 90
       50
176
     1
 90
        3
176
     1
 62
     5
420
      255
176
     1
290
     0
176
     1
 90
       50
176
     1
 90
       50
176
     1
 90
       50
176
     1
290
     0
176
     1
 90
       50
176
     1
 62
   256
176
     0
 40
1.0
176
     0
 90
        2
176
     1
  1
strokes_ogs.tif
176
     1
290
     0
176
     1
 40
1.0
176
     1
 40
1.0
176
     1
  0
VISUALSTYLE
  5
10030
102
{ACAD_REACTORS
330
1001D
102
}
330
1001D
100
AcDbVisualStyle
  2
X-Ray
 70
    25
177
     3
291
     0
 70
    58
 90
        2
176
     1
 90
        2
176
     1
 90
        1
176
     1
 90
        1
176
     1
 40
0.5
176
     1
 40
30.0
176
     1
 62
     7
420
 16777215
176
     1
 90
        1
176
     1
 90
        0
176
     1
 62
     7
176
     1
 62
   257
176
     1
 90
        1
176
     1
 90
        1
176
     1
 40
1.0
176
     1
 90
        8
176
     1
 62
     7
176
     1
 40
1.0
176
     1
 90
        1
176
     1
 90
        6
176
     1
 90
        2
176
     1
 62
     7
176
     1
 90
        3
176
     1
 90
        0
176
     1
 90
        0
176
     1
290
     0
176
     1
 90
       13
176
     1
 40
0.0
176
     1
 90
        0
176
     1
290
     0
176
     1
290
     1
176
     1
290
     1
176
     1
290
     0
176
     1
290
     0
176
     1
290
     0
176
     1
290
     0
176
     1
290
     0
176
     1
290
     0
176
     1
 90
       50
176
     1
 40
0.0
176
     1
 40
1.0
176
     1
 90
        0
176
     1
 62
    18
176
     1
 90
       50
176
     1
 90
        3
176
     1
 62
     5
420
      255
176
     1
290
     0
176
     1
 90
       50
176
     1
 90
       50
176
     1
 90
       50
176
     1
290
     0
176
     1
 90
       50
176
     1
 62
   256
176
     0
 40
1.0
176
     0
 90
        2
176
     1
  1
strokes_ogs.tif
176
     1
290
     0
176
     1
 40
1.0
176
     1
 40
1.0
176
     1
  0
DICTIONARYVAR
  5
10215
102
{ACAD_REACTORS
330
1020F
102
}
330
1020F
100
DictionaryVariables
280
     0
  1
1:1
  0
DICTIONARYVAR
  5
10211
102
{ACAD_REACTORS
330
1020F
102
}
330
1020F
100
DictionaryVariables
280
     0
  1
STANDARD
  0
DICTIONARYVAR
  5
10210
102
{ACAD_REACTORS
330
1020F
102
}
330
1020F
100
DictionaryVariables
280
     0
  1
STANDARD
  0
DICTIONARYVAR
  5
10212
102
{ACAD_REACTORS
330
1020F
102
}
330
1020F
100
DictionaryVariables
280
     0
  1
Imperial24
  0
DICTIONARYVAR
  5
10213
102
{ACAD_REACTORS
330
1020F
102
}
330
1020F
100
DictionaryVariables
280
     0
  1
Imperial24
  0
DICTIONARYVAR
  5
10217
102
{ACAD_REACTORS
330
1020F
102
}
330
1020F
100
DictionaryVariables
280
     0
  1
1
  0
DICTIONARYVAR
  5
10218
102
{ACAD_REACTORS
330
1020F
102
}
330
1020F
100
DictionaryVariables
280
     0
  1
15
  0
DICTIONARYVAR
  5
10216
102
{ACAD_REACTORS
330
1020F
102
}
330
1020F
100
DictionaryVariables
280
     0
  1
0
  0
DICTIONARYVAR
  5
10214
102
{ACAD_REACTORS
330
1020F
102
}
330
1020F
100
DictionaryVariables
280
     0
  1
0
  0
DICTIONARY
  5
1000E
330
1000D
100
AcDbDictionary
280
     1
281
     1
  3
BUMPTILE
360
10010
  3
DIFFUSETILE
360
1000F
  3
OPACITYTILE
360
10013
  3
REFLECTIONTILE
360
10012
  3
REFRACTIONTILE
360
10014
  3
SPECULARTILE
360
10011
  0
DICTIONARY
  5
10006
330
10005
100
AcDbDictionary
280
     1
281
     1
  3
BUMPTILE
360
10008
  3
DIFFUSETILE
360
10007
  3
OPACITYTILE
360
1000B
  3
REFLECTIONTILE
360
1000A
  3
REFRACTIONTILE
360
1000C
  3
SPECULARTILE
360
10009
  0
DICTIONARY
  5
10016
330
10015
100
AcDbDictionary
280
     1
281
     1
  3
BUMPTILE
360
10018
  3
DIFFUSETILE
360
10017
  3
OPACITYTILE
360
1001B
  3
REFLECTIONTILE
360
1001A
  3
REFRACTIONTILE
360
1001C
  3
SPECULARTILE
360
10019
  0
DICTIONARY
  5
10223
330
10039
100
AcDbDictionary
280
     1
281
     1
  3
ACAD_ROUNDTRIP_2008_TABLESTYLE_CELLSTYLEMAP
360
10434
  0
XRECORD
  5
10010
102
{ACAD_REACTORS
330
1000E
102
}
330
1000E
100
AcDbXrecord
280
     1
270
     1
271
     1
  0
XRECORD
  5
1000F
102
{ACAD_REACTORS
330
1000E
102
}
330
1000E
100
AcDbXrecord
280
     1
270
     1
271
     1
  0
XRECORD
  5
10013
102
{ACAD_REACTORS
330
1000E
102
}
330
1000E
100
AcDbXrecord
280
     1
270
     1
271
     1
  0
XRECORD
  5
10012
102
{ACAD_REACTORS
330
1000E
102
}
330
1000E
100
AcDbXrecord
280
     1
270
     1
271
     1
  0
XRECORD
  5
10014
102
{ACAD_REACTORS
330
1000E
102
}
330
1000E
100
AcDbXrecord
280
     1
270
     1
271
     1
  0
XRECORD
  5
10011
102
{ACAD_REACTORS
330
1000E
102
}
330
1000E
100
AcDbXrecord
280
     1
270
     1
271
     1
  0
XRECORD
  5
10008
102
{ACAD_REACTORS
330
10006
102
}
330
10006
100
AcDbXrecord
280
     1
270
     1
271
     1
  0
XRECORD
  5
10007
102
{ACAD_REACTORS
330
10006
102
}
330
10006
100
AcDbXrecord
280
     1
270
     1
271
     1
  0
XRECORD
  5
1000B
102
{ACAD_REACTORS
330
10006
102
}
330
10006
100
AcDbXrecord
280
     1
270
     1
271
     1
  0
XRECORD
  5
1000A
102
{ACAD_REACTORS
330
10006
102
}
330
10006
100
AcDbXrecord
280
     1
270
     1
271
     1
  0
XRECORD
  5
1000C
102
{ACAD_REACTORS
330
10006
102
}
330
10006
100
AcDbXrecord
280
     1
270
     1
271
     1
  0
XRECORD
  5
10009
102
{ACAD_REACTORS
330
10006
102
}
330
10006
100
AcDbXrecord
280
     1
270
     1
271
     1
  0
XRECORD
  5
10018
102
{ACAD_REACTORS
330
10016
102
}
330
10016
100
AcDbXrecord
280
     1
270
     1
271
     1
  0
XRECORD
  5
10017
102
{ACAD_REACTORS
330
10016
102
}
330
10016
100
AcDbXrecord
280
     1
270
     1
271
     1
  0
XRECORD
  5
1001B
102
{ACAD_REACTORS
330
10016
102
}
330
10016
100
AcDbXrecord
280
     1
270
     1
271
     1
  0
XRECORD
  5
1001A
102
{ACAD_REACTORS
330
10016
102
}
330
10016
100
AcDbXrecord
280
     1
270
     1
271
     1
  0
XRECORD
  5
1001C
102
{ACAD_REACTORS
330
10016
102
}
330
10016
100
AcDbXrecord
280
     1
270
     1
271
     1
  0
XRECORD
  5
10019
102
{ACAD_REACTORS
330
10016
102
}
330
10016
100
AcDbXrecord
280
     1
270
     1
271
     1
  0
CELLSTYLEMAP
  5
10434
102
{ACAD_REACTORS
330
10223
102
}
330
10223
100
AcDbCellStyleMap
 90
        3
300
CELLSTYLE
  1
TABLEFORMAT_BEGIN
 90
        5
170
     1
 91
        0
 92
    32768
 62
   257
 93
        1
300
CONTENTFORMAT
  1
CONTENTFORMAT_BEGIN
 90
        0
 91
        0
 92
      512
 93
        0
300

 40
0.0
140
1.0
 94
        5
 62
     0
340
11
144
0.25
309
CONTENTFORMAT_END
171
     1
301
MARGIN
  1
CELLMARGIN_BEGIN
 40
0.06
 40
0.06
 40
0.06
 40
0.06
 40
0.18
 40
0.18
309
CELLMARGIN_END
 94
        6
 95
        1
302
GRIDFORMAT
  1
GRIDFORMAT_BEGIN
 90
        0
 91
        1
 62
     0
 92
       -2
340
0
 93
        0
 40
0.045
309
GRIDFORMAT_END
 95
        2
302
GRIDFORMAT
  1
GRIDFORMAT_BEGIN
 90
        0
 91
        1
 62
     0
 92
       -2
340
0
 93
        0
 40
0.045
309
GRIDFORMAT_END
 95
        4
302
GRIDFORMAT
  1
GRIDFORMAT_BEGIN
 90
        0
 91
        1
 62
     0
 92
       -2
340
0
 93
        0
 40
0.045
309
GRIDFORMAT_END
 95
        8
302
GRIDFORMAT
  1
GRIDFORMAT_BEGIN
 90
        0
 91
        1
 62
     0
 92
       -2
340
0
 93
        0
 40
0.045
309
GRIDFORMAT_END
 95
       16
302
GRIDFORMAT
  1
GRIDFORMAT_BEGIN
 90
        0
 91
        1
 62
     0
 92
       -2
340
0
 93
        0
 40
0.045
309
GRIDFORMAT_END
 95
       32
302
GRIDFORMAT
  1
GRIDFORMAT_BEGIN
 90
        0
 91
        1
 62
     0
 92
       -2
340
0
 93
        0
 40
0.045
309
GRIDFORMAT_END
309
TABLEFORMAT_END
  1
CELLSTYLE_BEGIN
 90
        1
 91
        1
300
_TITLE
309
CELLSTYLE_END
300
CELLSTYLE
  1
TABLEFORMAT_BEGIN
 90
        5
170
     1
 91
        0
 92
        0
 62
   257
 93
        1
300
CONTENTFORMAT
  1
CONTENTFORMAT_BEGIN
 90
        0
 91
        0
 92
      512
 93
        0
300

 40
0.0
140
1.0
 94
        5
 62
     0
340
11
144
0.18
309
CONTENTFORMAT_END
171
     1
301
MARGIN
  1
CELLMARGIN_BEGIN
 40
0.06
 40
0.06
 40
0.06
 40
0.06
 40
0.18
 40
0.18
309
CELLMARGIN_END
 94
        6
 95
        1
302
GRIDFORMAT
  1
GRIDFORMAT_BEGIN
 90
        0
 91
        1
 62
     0
 92
       -2
340
0
 93
        0
 40
0.045
309
GRIDFORMAT_END
 95
        2
302
GRIDFORMAT
  1
GRIDFORMAT_BEGIN
 90
        0
 91
        1
 62
     0
 92
       -2
340
0
 93
        0
 40
0.045
309
GRIDFORMAT_END
 95
        4
302
GRIDFORMAT
  1
GRIDFORMAT_BEGIN
 90
        0
 91
        1
 62
     0
 92
       -2
340
0
 93
        0
 40
0.045
309
GRIDFORMAT_END
 95
        8
302
GRIDFORMAT
  1
GRIDFORMAT_BEGIN
 90
        0
 91
        1
 62
     0
 92
       -2
340
0
 93
        0
 40
0.045
309
GRIDFORMAT_END
 95
       16
302
GRIDFORMAT
  1
GRIDFORMAT_BEGIN
 90
        0
 91
        1
 62
     0
 92
       -2
340
0
 93
        0
 40
0.045
309
GRIDFORMAT_END
 95
       32
302
GRIDFORMAT
  1
GRIDFORMAT_BEGIN
 90
        0
 91
        1
 62
     0
 92
       -2
340
0
 93
        0
 40
0.045
309
GRIDFORMAT_END
309
TABLEFORMAT_END
  1
CELLSTYLE_BEGIN
 90
        2
 91
        1
300
_HEADER
309
CELLSTYLE_END
300
CELLSTYLE
  1
TABLEFORMAT_BEGIN
 90
        5
170
     1
 91
        0
 92
        0
 62
   257
 93
        1
300
CONTENTFORMAT
  1
CONTENTFORMAT_BEGIN
 90
        0
 91
        0
 92
      512
 93
        0
300

 40
0.0
140
1.0
 94
        2
 62
     0
340
11
144
0.18
309
CONTENTFORMAT_END
171
     1
301
MARGIN
  1
CELLMARGIN_BEGIN
 40
0.06
 40
0.06
 40
0.06
 40
0.06
 40
0.18
 40
0.18
309
CELLMARGIN_END
 94
        6
 95
        1
302
GRIDFORMAT
  1
GRIDFORMAT_BEGIN
 90
        0
 91
        1
 62
     0
 92
       -2
340
0
 93
        0
 40
0.045
309
GRIDFORMAT_END
 95
        2
302
GRIDFORMAT
  1
GRIDFORMAT_BEGIN
 90
        0
 91
        1
 62
     0
 92
       -2
340
0
 93
        0
 40
0.045
309
GRIDFORMAT_END
 95
        4
302
GRIDFORMAT
  1
GRIDFORMAT_BEGIN
 90
        0
 91
        1
 62
     0
 92
       -2
340
0
 93
        0
 40
0.045
309
GRIDFORMAT_END
 95
        8
302
GRIDFORMAT
  1
GRIDFORMAT_BEGIN
 90
        0
 91
        1
 62
     0
 92
       -2
340
0
 93
        0
 40
0.045
309
GRIDFORMAT_END
 95
       16
302
GRIDFORMAT
  1
GRIDFORMAT_BEGIN
 90
        0
 91
        1
 62
     0
 92
       -2
340
0
 93
        0
 40
0.045
309
GRIDFORMAT_END
 95
       32
302
GRIDFORMAT
  1
GRIDFORMAT_BEGIN
 90
        0
 91
        1
 62
     0
 92
       -2
340
0
 93
        0
 40
0.045
309
GRIDFORMAT_END
309
TABLEFORMAT_END
  1
CELLSTYLE_BEGIN
 90
        3
 91
        2
300
_DATA
309
CELLSTYLE_END
  0
ENDSEC
  0
SECTION
  2
ACDSDATA
 70
     2
 71
     8
  0
ACDSSCHEMA
 90
        0
  1
AcDb_Thumbnail_Schema
  2
AcDbDs::ID
280
    10
 91
        8
  2
Thumbnail_Data
280
    15
 91
        0
101
ACDSRECORD
 95
        0
 90
        1
  2
AcDbDs::TreatedAsObjectData
280
     1
291
     1
101
ACDSRECORD
 95
        0
 90
        2
  2
AcDbDs::Legacy
280
     1
291
     1
101
ACDSRECORD
  1
AcDbDs::ID
 90
        3
  2
AcDs:Indexable
280
     1
291
     1
101
ACDSRECORD
  1
AcDbDs::ID
 90
        4
  2
AcDbDs::HandleAttribute
280
     7
282
     1
  0
ACDSSCHEMA
 90
        1
  1
AcDbDs::TreatedAsObjectDataSchema
  2
AcDbDs::TreatedAsObjectData
280
     1
 91
        0
  0
ACDSSCHEMA
 90
        2
  1
AcDbDs::LegacySchema
  2
AcDbDs::Legacy
280
     1
 91
        0
  0
ACDSSCHEMA
 90
        3
  1
AcDbDs::IndexedPropertySchema
  2
AcDs:Indexable
280
     1
 91
        0
  0
ACDSSCHEMA
 90
        4
  1
AcDbDs::HandleAttributeSchema
  2
AcDbDs::HandleAttribute
280
     7
 91
        1
284
     1
  0
ACDSRECORD
 90
        0
  2
AcDbDs::ID
280
    10
320
10055
  2
Thumbnail_Data
280
    15
 94
     2579
310
89504E470D0A1A0A0000000D4948445200000117000001000803000000AEDEC2C500000300504C5445212830FFFFFF2128300000000000000000000000000000000000000000000000000000330000660000990000CC0000FF0033000033330033660033990033CC0033FF0066000066330066660066990066CC0066FF0099
310
000099330099660099990099CC0099FF00CC0000CC3300CC6600CC9900CCCC00CCFF00FF0000FF3300FF6600FF9900FFCC00FFFF3300003300333300663300993300CC3300FF3333003333333333663333993333CC3333FF3366003366333366663366993366CC3366FF3399003399333399663399993399CC3399FF33CC00
310
33CC3333CC6633CC9933CCCC33CCFF33FF0033FF3333FF6633FF9933FFCC33FFFF6600006600336600666600996600CC6600FF6633006633336633666633996633CC6633FF6666006666336666666666996666CC6666FF6699006699336699666699996699CC6699FF66CC0066CC3366CC6666CC9966CCCC66CCFF66FF0066
310
FF3366FF6666FF9966FFCC66FFFF9900009900339900669900999900CC9900FF9933009933339933669933999933CC9933FF9966009966339966669966999966CC9966FF9999009999339999669999999999CC9999FF99CC0099CC3399CC6699CC9999CCCC99CCFF99FF0099FF3399FF6699FF9999FFCC99FFFFCC0000CC00
310
33CC0066CC0099CC00CCCC00FFCC3300CC3333CC3366CC3399CC33CCCC33FFCC6600CC6633CC6666CC6699CC66CCCC66FFCC9900CC9933CC9966CC9999CC99CCCC99FFCCCC00CCCC33CCCC66CCCC99CCCCCCCCCCFFCCFF00CCFF33CCFF66CCFF99CCFFCCCCFFFFFF0000FF0033FF0066FF0099FF00CCFF00FFFF3300FF3333
310
FF3366FF3399FF33CCFF33FFFF6600FF6633FF6666FF6699FF66CCFF66FFFF9900FF9933FF9966FF9999FF99CCFF99FFFFCC00FFCC33FFCC66FFCC99FFCCCCFFCCFFFFFF00FFFF33FFFF66FFFF99FFFFCCFFFFFF0000000D0D0D1A1A1A2828283535354343435050505D5D5D6B6B6B787878868686939393A1A1A1AEAEAEBB
310
BBBBC9C9C9D6D6D6E4E4E4F1F1F1FFFFFF0000000000000000000000000000000000000000000000000000000000002E4550F1000006CE4944415478DAEDDD4976E3201006606E90FB5F868DAFA10D7B6FB5EFB62D612631970CC5CFEB8E12C7C9135F8A51080981848484848484848484848484848484F4B3F41C28E993DA
310
CFF4439781FE445F17E728947A7F50EF235CF6534589D3C54CFA25A293D97F6FB2D7B81840142EB1622C75A265799D43C045D7324678BC4BD50F5D1C0D529B7D8FD72F6EAC08FBB3FBEA9730026DDC445D6C1B61EBDCE512CB3D9D4CCC6584763A95732A99B1FB2F39B9A69119A8CBE09D4C6E8E2964C67529C96D7F99615D
310
0A732AC94E653B53C64F110D0D9E0DF9EC1C32868B7D3C9A62BB493E3F3D8EBD799EDFBF51C54FCBDB5C9410815E9DEEBE741F193CF529D4B8748509B87C5AEB4FD75F5836864F68E4D4EB643651E7D213E6325EEC8C1FE348DFE5D52BD6873E27B3C9915DE2A1617EB3BB8BA875E90893AE5FCE3A3850688673E90753D74E
310
53F65FE4602EA3F4EBE0123C19D9548EBAC18CEA62A6C775DADCD4DFE5EF4CBF1D07482F5662B1E3BD97C0C53E26C701047376B3B984C60254FDDDF1CA917314CA1B07881BC601C3D5BBDAC5BA4E628C03ACFE1DD938605C177774F4FD5CDC300E98C1459817A997752968A7D1AF830B5CE052E2A2FB4A393FA6A766167071
310
8EA10553FAB3EB81408BD61C2EE1497FDD588BEBA970AB07E478AAC95DCC2C252E08045E11BEE8F42EC77512BB1FA78184A5605E4CB1FF872F2FBD8F7B511A305E54688C28EC4553FE10D29C8E50D65AB4D4EACEB9EA5D11B9501273515757286777A94956E31570893658F3F75F2E5154EBC9B4B8745C8AC8AABF4B721D16
310
2E702971492E320F0C079670B18F56574CC1C574F9F638ECD18F22BFAE36A28B310E30BA68B6CBE2E5C85EE8A2ECF1CFE22EE18B8BABD72F577766A19D46BF0EFD3AB8C0A5D5C5B9D33C5CBB5A2F11AE0B1AC9C53E9A6DB4B5BAC199B0EBD9424DE5A2A22E5D1BEE895CAC6553C75DD4E66535D573A9DDD82EE7F8281C33DF
310
62451F2FE9C5E7F63B48E63123E528E2425BBF14BA088A79EF6759CB4D311618F27A80BF234C1485EA7E7BAC7F810B5CE00217B8C0052E70810B5CE00297F6798665E2052E2847842E5877481B2C70810B5CE00217B8C0052E70810B5CE6996758265EE082720417B8C0052E33BA601E331532AD37C7B075D13E7009B9D456
310
3AFC5DEA601670A98281CBBA2E35305CAFDBCBC60E1FD7751EB2B127CCB95F079720405315B38A4B290C5C1677298481CBEA2E653023BA6C7D9E37C1CDC50D96DAE79348D1000397A95C28CA110B97CEE380F95D3E0D52F3F3D564A2B1820B1797F703F9E0D2D5257115606E972ECFCDE5E8D2E339CB52B4C1E4BB383B7850
310
6CE8D1F1B9DC642EDE5E37CE06B3A42E35F19233DDD2CBE5F291248A6C5F9CAA5981DC5985CE2EC1E74E90C64B298C8C0D9EF79EC9D9BDCEDE838C68CBE66734AB052AA4F1228E6DD98CFDDA88F79A7D26B39BA972938BF05DC40D2E5932B24480A29DBEB1FF62655B56A8F07789064DC48C657F372B68E291B4848B3BCF94
310
B1A2909DCB1EB7C95D64C9CDA5F4796A59F10597A8C2DCF3BB7081CB102E735F87854BF1C9C8B24785F05AE7112149B4C2CBB984119236CC5D62B92F1822CDBEBEAE24E725436A562E39356CDE14CCF4EB770B55AEF2CC6EBD774D5ED24344462E4559915D2B97915D0AB3227B562E03BB945F6FBC8E1016F7AB15D5B85921
310
C2E3BECFEA9C5CC50893FB8445C3360BA120E1725F795F97EA8D08D8BA343EBB94AB0BDD94075CE032878B732BC423FFBE09E62ED68BD1CC16BC152EA13987CBB4703992155512F3FE4BB21773153FECC70195BF022E70810B5CE002971E2E7F7F70810B5CE01271C99A38308645A17AB770F2610697BCFB858D77055C4AEF
310
3986CBECE5285210B6636BA1C5CA51F20FEE7E2FB35FB7CDE8E2CE9714B97C7F36ECF238A26C8BCCC78CEAE217969CA6C8FD7B875C1E8FD7BF4495338D4B5DFF435E04CBFF8FF10B07EBBA5C85DAE795D55DFCADCC3EC56B6D970D2E5EBD3B4439B2372C48DCA34FE8F267A5F42FB8C7257357074A9757B87CD2FB8BE15C44
310
E9BE23FD5C7435338A8BB527C8EFE2652C1791BF3BCA0C2E9D7678F1EB17C5C1856ECFA489CB91590438BB9436037A2B299A5DD9102F7C5D50BF849B5AB8FCDCA561F57A641E73B47E5DB18BA059CF30DAF8681897C1C6D363B89C932D7A526ABE794C0A97F30AC0BB101D8F27986DBE8ED6457F0517B31C0994A3C6DF0117
310
B8E4750DE112FB15EC5DB8AE7F697461B95E0A2E284737B9605D335CE00217CFC59CC72C5E079F5A8F39B38B3F3D9070B1DE0597755D8ACBD12A2E0DF982CBB22E5BB46EB972E1B63F83F4AB8FC87D13DEF7F29F1115FFDEF82E05F79388EB3D67A7DFFFA5285EB6AC7869E87AB3AB77E1D2DDE5BD560C2E01971D2E284770
310
59A29DEEE1C2B15F573B3EE23E0E60376EFC070126F922D66C2D5B0000000049454E44AE426082
  0
ACDSRECORD
 90
        0
  2
AcDbDs::ID
280
    10
320
10056
  2
Thumbnail_Data
280
    15
 94
     2239
310
89504E470D0A1A0A0000000D49484452000000B40000010008030000002D3FACD700000300504C5445FFFFFFFFFFFFFFFFFF0000000000000000000000000000000000000000000000000000330000660000990000CC0000FF0033000033330033660033990033CC0033FF0066000066330066660066990066CC0066FF0099
310
000099330099660099990099CC0099FF00CC0000CC3300CC6600CC9900CCCC00CCFF00FF0000FF3300FF6600FF9900FFCC00FFFF3300003300333300663300993300CC3300FF3333003333333333663333993333CC3333FF3366003366333366663366993366CC3366FF3399003399333399663399993399CC3399FF33CC00
310
33CC3333CC6633CC9933CCCC33CCFF33FF0033FF3333FF6633FF9933FFCC33FFFF6600006600336600666600996600CC6600FF6633006633336633666633996633CC6633FF6666006666336666666666996666CC6666FF6699006699336699666699996699CC6699FF66CC0066CC3366CC6666CC9966CCCC66CCFF66FF0066
310
FF3366FF6666FF9966FFCC66FFFF9900009900339900669900999900CC9900FF9933009933339933669933999933CC9933FF9966009966339966669966999966CC9966FF9999009999339999669999999999CC9999FF99CC0099CC3399CC6699CC9999CCCC99CCFF99FF0099FF3399FF6699FF9999FFCC99FFFFCC0000CC00
310
33CC0066CC0099CC00CCCC00FFCC3300CC3333CC3366CC3399CC33CCCC33FFCC6600CC6633CC6666CC6699CC66CCCC66FFCC9900CC9933CC9966CC9999CC99CCCC99FFCCCC00CCCC33CCCC66CCCC99CCCCCCCCCCFFCCFF00CCFF33CCFF66CCFF99CCFFCCCCFFFFFF0000FF0033FF0066FF0099FF00CCFF00FFFF3300FF3333
310
FF3366FF3399FF33CCFF33FFFF6600FF6633FF6666FF6699FF66CCFF66FFFF9900FF9933FF9966FF9999FF99CCFF99FFFFCC00FFCC33FFCC66FFCC99FFCCCCFFCCFFFFFF00FFFF33FFFF66FFFF99FFFFCCFFFFFF0000000D0D0D1A1A1A2828283535354343435050505D5D5D6B6B6B787878868686939393A1A1A1AEAEAEBB
310
BBBBC9C9C9D6D6D6E4E4E4F1F1F1FFFFFF000000000000000000000000000000000000000000000000000000000000AD4AB4E40000057A4944415478DAED9D4D72EB200C80B5CE26F7BF8C36B9062B966F7C88573BB6633B808080901269C633AD4BDBAFAAD09FC1C0A450609AFEA9933F68D02706CD09ED95C9135A9396FD
310
A6698336E82F81068336F3306883EE3E11DB65F0B0263B1CD0AD94B4FD8B3D0432B5C6E6315D46E12CC5F6E80FD0C1FCAD1FF4CE5B4A7E8266D1F48B182E3A2F378F15900FFAFD6B580AFDD27C3974C5440CABB540D9CBCF71B370790F1785CBC67EFE9CF54A5454CDCC23A91D2C854E978142A179348D693BC4729BEE0F8D
310
D00C9A2DF758A057791C65BF8BD9D0F759B8A0D78FCF0ADFEF1640AF178F79B4D2F47CB1780FCAA641AAA65B41AF36AD0A9AD77B34825EE60290EDDA5CE8E8F7B4855EAF1A689F862E55402174E52FF25FA8E932E8CCC2EB639B6E0B5D51B90CF71E25D05B415C576C8D825EAF1A683F14DAD795B55EA3790C838E4405D9D0
310
7B275293F798D6AB22C91B0C5D5703D499C71BF8FAA79444C44F34DD08BA3CF7D86C9A0D7A741160958B419B4D37F21E02A09D5EF328092E2A2B979F83F6066DD05CA9A9E489A812DA6C5A464424178048CCF290D2B954E8E4920489450052062ECBE59D4D0335E5D38822A109A747A9DAA05B43C7A845AEF730E8FEE67189
310
2B32A0B3165E2195417143E76479BAA0910B1AA0DDB2CD77D20C68AE05B24405806198EC4D7BEDCD23467D4845FB6BBA72D177AAD0120A7D2EA9AEE59534EFE12F156170438034EF9135B55158EE9127D2C2B86E683C890AE8282608AC5CA234C7BF02BB43D78471CCF319FDAAF172E8DC84A963B3A6D83C90F41A4830F343
310
23EDEB906096094DF57A2542370B52CD26A24AE860DB63EF7B4443E6C95E0614B6247438B41FEE8AF51EA91106AD06BA83F7B88333E836E611688D3D3DC70B3AD63D1B097D65FAFBDC1D6C5A26F4056A650E429F478E80DE63C61BF4164156E8A7CCDB6F2ED008031E5F6414E23BF4BC63E871B4A5BF8FC443C363E16E0F1D
310
368FF836A802E8FB2AECD0355BFB76E8655319DCDF0688D6F4BC758F842EDDB3A5161AB8A03F7F68C1E23DB8CD830C2E116494089D994F9F5D1E97F768013DBBE7C739BBEAEBA71B40BB8ED0D0CF3CA243B441A364F39057047C23F452D8AA8416D4427886BCD0FFDEBD22A238E843BFE0C2EC0EB987ACB61806AADA83A625
310
4347ABF16D81ACAC566F16F499727C53BD009AF042D25A088496BC4268F0C3CC83861668D3C91A519AF788D6884BAEBFD588B2FC749CC83D1E4EDB3317E7E6A6AE36E8B9430A8E09DAB7D674BA3522D4A691768972A09DD3079D95988E79E692B10A01E9E8C30F7DCAF92F25001774F3F51E546315F4AD4230E871D0B50F31
310
8AA091F06731E856DB456AA0E3D8E462DE769AEEBBCF451074FE3E1749D057ECE83E1721DE2358B85EEE8B0BE3A448CC3D44407F729E4B05340E87A6766E8929028EC04172B1D0A94368380ADBAA89983E84462474EEE61C41E6411F42230FBA6CB3BB2268697B02F20FA1E9D9542F9B88BF7E080D9F79343C8486159AD634
310
1222F7355DA921BF095DE53DD2AFBD5503ED469BC7A747A30C87AE5BA9AE53D391C3CB96BBD2A0F7C7CC77B80799EFDD26E2A787D03C578CF5D474D38429A33F3D2EB8A4DF206BD0FDC3B8417FDB441C0E5DF390C81B7462E155CBC7713DDE202B53D3A3A1DBF63D24572E56D81AB4410B6E21D0AB7AAD72316883B6CAC5A0
310
CDA67F021A2DF7B0CAC552538336689B8835D0F42A0481E6A1129AB20E71D0A587D0C880FE3CCB43E685571EB20EA149EF85016EE8859A7CA73A50EF5DE7348FADF18D243331860BFA76BBBDC6109B73A216B2DDE48386C3989C45F56F635E37F8CCE3761A933A842670FF3C84D97B641D421318739ECD9CD0EB44AC78F561
310
C0DF337A8F55A60F85DFE579182E25617C737DFAA04188A8D37421B40CF1066DD05F060D066DE661D082A095094C13E81383E683FEA74E605228FF01384125DA735B75EB0000000049454E44AE426082
  0
ENDSEC
  0
EOF
